<svg id="Layer_3" data-name="Layer 3" xmlns="http://www.w3.org/2000/svg" viewBox="0 0 668.969 162.957"><path d="M14.421,280.02a11.2,11.2,0,0,0,3.3,4.58,61.934,61.934,0,0,0,14.07,9.09c2.81,3.46,8.12,5.59,4.28,10.02,6.45-.91,10.88,4.39,16.52,5,4.9,5.63,13.79,4.46,19.31,9.49,4.7,4.21,11.27,4.68,16.45,8.04-5.05,2.38-7.66-1.24-12.5-1.02-3.53-2.31-10.55-2.38-12.71-1.22,13.36.57,24.17,12.17,38.18,11.58a9.089,9.089,0,0,0-4.17,4.05c1.88.4,3.85.72,5.3,2.11-1.7.02-3.41.05-5.11.01a277.589,277.589,0,0,1-29.87-7.09c-2.23-.89-9.01-6.31-7.69-1.46-3.2,0-2.92-4.17-5.63-5.16-3.92,1.27-9.09-6-2.87-5.42-6.22-3.4-14.21-3.19-19.39-8.5-4.8-1.91,3.41,6.04-1.07,4.2-2.86-.82-12.74-3.88-6.47.42,1.99,4.56-6.05.34-9.09,1.42-5.8,2.06-9.11-5.2-15.12-2.14v-36.1C4.861,282.81,10.321,282.81,14.421,280.02Zm52.65,48.99c.05.43.14,1.29.19,1.72,7.26-.51,8.68,6.29,15.9,6.23,2.13-6.2-7.48-1.11-5.29-4.88C74.441,330.53,70.691,329.88,67.071,329.01Z" transform="translate(-0.141 -280.02)" style="fill:#38302e"/><path d="M31.791,293.69c9.61,1.55,17.4,8.37,26.99,10.28,8.12,6.41,19.2,6.31,27.01,13.36,5.36,3.23,11.88,4.18,17.31,7.55a11.088,11.088,0,0,0,7.95,1.99c2.49.03,4.04,2.15,6,3.34,8.69,1.68,14.52,9.18,23.53,10.27,12.84,1.97,25.45,3.07,38.35,4.01,2.54.72,6.32,1.25,6.11,4.74-8.7-.75-17.29-2.26-25.93-3.42-3.76.04-10.31-3.29-11.47,1.8a22.773,22.773,0,0,1-3.26.69c-14.15-.85-27.92-4.6-41.93-6.56-1.45-1.39-3.42-1.71-5.3-2.11a9.089,9.089,0,0,1,4.17-4.05c8.2,2.29,15.5,7.51,24.43,6.66.54,5.54,8.86-1.42,12.73,1.43-9.49-7.06-23.63-3.32-32.37-11.68-6.79.05-10.82-6.37-17.76-5.75-5.18-3.36-11.75-3.83-16.45-8.04-5.52-5.03-14.41-3.86-19.31-9.49-5.64-.61-10.07-5.91-16.52-5C39.911,299.28,34.6,297.15,31.791,293.69Z" transform="translate(-0.141 -280.02)" style="fill:#1c1f24"/><path d="M30.821,318.32c4.48,1.84-3.73-6.11,1.07-4.2,5.18,5.31,13.17,5.1,19.39,8.5-6.22-.58-1.05,6.69,2.87,5.42,2.71.99,2.43,5.16,5.63,5.16-1.32-4.85,5.46.57,7.69,1.46-1.85.13-3.7.27-5.55.38-2.64-.76-10.24.06-6.2-3.87-4.89-2.52-10-5.04-15.63-5.15-5.91-.7-9.92-6.17-15.74-7.28C18.081,314.44,27.961,317.5,30.821,318.32Z" transform="translate(-0.141 -280.02)" style="fill:#57483e"/><path d="M.141,318.02c6.01-3.06,9.32,4.2,15.12,2.14,3.04-1.08,11.08,3.14,9.09-1.42,5.82,1.11,9.83,6.58,15.74,7.28,5.63.11,10.74,2.63,15.63,5.15-4.04,3.93,3.56,3.11,6.2,3.87-1.78,2.83,6.84,4.92-3.35,2.56-6.49-1.31-14.89.26-20.01-5.05-2.91-3.94-12.48-.84-9.86-7.52-3.87-2.19-10.09-4.65-13.81-1.4a55.009,55.009,0,0,1,10.09,2.61c.11,2.29-3.42,2.02-3.85,4.41,5.42.02,10.35,6,15.63,2.98,2.6,2.54,5.68,4.09,9.54,3.64-1.65,3.62-8.54-1.21-8,2.46,6.86.65,13.14,1.94,15.96,8.02-2.96-.53-6.15-.66-6.07,2.49-11.67-6.46-26.37-5.22-39.11-9.36,1.81-2.96,9.44-1.64,12.97.43-4.75-5.42,3.94.96,6.28-.38-.63-5.83-9.44-2.1-12.96-3.6-3.57-4.38,2.79-2.34,3.91-5.36-1.53-2.93-5.51-3.13-8.37-3.99a59.893,59.893,0,0,0-10.77-1.11Z" transform="translate(-0.141 -280.02)" style="fill:#41311d"/><path d="M14.891,323.63c3.72-3.25,9.94-.79,13.81,1.4-2.62,6.68,6.95,3.58,9.86,7.52,5.12,5.31,13.52,3.74,20.01,5.05,10.19,2.36,1.57.27,3.35-2.56,1.85-.11,3.7-.25,5.55-.38a277.589,277.589,0,0,0,29.87,7.09c-1.49.06-2.97.18-4.45.35a145.347,145.347,0,0,1,18.53,7.44c2.89.69,9.45-2.16,9.23,2.43,5.1-1.04,10.56.49,15.24-1.68,5.04.46,4.18,7.6-.78,4.84-3.92,3.82,14.66-1.07,10.85,5.13-3.7-1.65-11.71-3.65-12.41,1.86-3-.28-5.51-3.44-8.58-2.18-5.03,2.03-8.86-6.14-14.21-3.38a5.337,5.337,0,0,1-4.83,1.31c.33-1.64,1.96-1.89,3.27-2.42a55.392,55.392,0,0,0-9.3-3.25c7.35.58,1.54-2.02-1.85-3.62-4.85.46-8.14-3.92-12.71-4.81-1.71-1.23-5.48,1.74-4.78-1.64-5.21-2.51-11-.8-16.26-3.08-3.91,3.18,4.37,4.09,5.76,6.1-4.02-4.16,1.37-2.81,4.39-2.32,2.21,2.09-4.34,1.39-3.36,4.27,3.08-.57,6.45-3.08,8.21.94-8.2.33-16.23-1.56-24.38-2.04,3.29,2.41,7.41,2.01,11.18,2.8.32,1.04.67,2.08,1.03,3.12-.5-.02-1.5-.05-2-.06-5.3-3.44-11.77-.09-16.94-1.62-.08-3.15,3.11-3.02,6.07-2.49-2.82-6.08-9.1-7.37-15.96-8.02-.54-3.67,6.35,1.16,8-2.46-3.86.45-6.94-1.1-9.54-3.64-5.28,3.02-10.21-2.96-15.63-2.98.43-2.39,3.96-2.12,3.85-4.41A55.009,55.009,0,0,0,14.891,323.63Z" transform="translate(-0.141 -280.02)" style="fill:#674f2f"/><path d="M63.141,324c2.16-1.16,9.18-1.09,12.71,1.22,4.84-.22,7.45,3.4,12.5,1.02,6.94-.62,10.97,5.8,17.76,5.75,8.74,8.36,22.88,4.62,32.37,11.68-3.87-2.85-12.19,4.11-12.73-1.43-8.93.85-16.23-4.37-24.43-6.66C87.311,336.17,76.5,324.57,63.141,324Z" transform="translate(-0.141 -280.02)" style="fill:#48413d"/><path d="M.141,326.87a59.893,59.893,0,0,1,10.77,1.11c1.2,1.63,2.91,3,3.35,5.07q-7.095-1.905-14.12-4.02Z" transform="translate(-0.141 -280.02)" style="fill:#86714e"/><path d="M10.911,327.98c2.86.86,6.84,1.06,8.37,3.99-1.12,3.02-7.48.98-3.91,5.36-2.92,1.57-3.61-.56-3.92-3.1a39.14,39.14,0,0,0-10.37-2.3c-.06,3.07,4.1,2.57,5.94,4.21,1.19,2.76-2.43,1.49-3.97,1.85-.73-.01-2.18-.02-2.91-.02v-8.94q7.02,2.115,14.12,4.02C13.821,330.98,12.111,329.61,10.911,327.98Z" transform="translate(-0.141 -280.02)" style="fill:#5e472a"/><path d="M67.071,329.01c3.62.87,7.37,1.52,10.8,3.07-2.19,3.77,7.42-1.32,5.29,4.88-7.22.06-8.64-6.74-15.9-6.23C67.211,330.3,67.121,329.44,67.071,329.01Z" transform="translate(-0.141 -280.02)" style="fill:#5b544a"/><path d="M1.081,331.93a39.14,39.14,0,0,1,10.37,2.3c.31,2.54,1,4.67,3.92,3.1,3.52,1.5,12.33-2.23,12.96,3.6-2.34,1.34-11.03-5.04-6.28.38-3.53-2.07-11.16-3.39-12.97-.43-1.91,1.69-7.88-.07-6.03-2.89,1.54-.36,5.16.91,3.97-1.85C5.181,334.5,1.021,335,1.081,331.93Z" transform="translate(-0.141 -280.02)" style="fill:#7d6346"/><path d="M.141,337.97c.73,0,2.18.01,2.91.02-1.85,2.82,4.12,4.58,6.03,2.89,12.74,4.14,27.44,2.9,39.11,9.36,5.17,1.53,11.64-1.82,16.94,1.62-1.93,4.57,5.13,3.68,3.46,7.46-2.24,5.32,6.55.86,8.69,4.39,2.94,1.9-4.44.39-.96,3.06.67,12.55-2.15,2.9-3.94-.7.34,5.6-4.21,4.65-6.99,1.61-1.77-4.09-3.04,2.86-5.97,2.71-1.71-2.35-3.78-5.11-3.54-.3-1.24-4.21-7.87-5.55-6.2.22-2.11-1.24-3.19-3.56-5-5.13-.89,1.61-1.89,1.98-3.01.36a7.667,7.667,0,0,0-6.93,4.59c-1.08-.54-2.1-1.18-3.13-1.79,5.65-.2,6.16-11.3-.1-8.69-1.51-6.47-4.29,1.27-6.86,2.62.9-3.42-3.02-11.56-5.35-5.26-.75.78-.94,3.05-2.39,1.97-5.4-2.04-11.28-1.43-16.77-3.01Zm53.4,16.46c-8.66,1.46,3.74,4.91,6.78,4.36C59.321,356.03,58.011,351.29,53.541,354.43Z" transform="translate(-0.141 -280.02)" style="fill:#a88551"/><path d="M64.3,339.05c5.26,2.28,11.05.57,16.26,3.08-.7,3.38,3.07.41,4.78,1.64,4.57.89,7.86,5.27,12.71,4.81,3.39,1.6,9.2,4.2,1.85,3.62-.67-.02-2-.08-2.67-.11-5.65-.23-10.98-2.35-16.36-3.89.98,1.73,2.17,3.33,3.23,5.01-2.1-1.02-3.87-2.75-6.23-3.15-3.86-.9-7.84-.89-11.77-1.26-3.77-.79-7.89-.39-11.18-2.8,8.15.48,16.18,2.37,24.38,2.04-1.76-4.02-5.13-1.51-8.21-.94-.98-2.88,5.57-2.18,3.36-4.27-3.02-.49-8.41-1.84-4.39,2.32C68.671,343.14,60.391,342.23,64.3,339.05Z" transform="translate(-0.141 -280.02)" style="fill:#866d46"/><path d="M92.891,342.1c1.48-.17,2.96-.29,4.45-.35,1.7.04,3.41.01,5.11-.01,14.01,1.96,27.78,5.71,41.93,6.56-9.64-.76-3.66,3.39.47,3.26,5.83-6.56,14.4,3.79,21.54,1.15,1.22.39,2.42.84,3.6,1.34,6.63,2.77,14.25,6.08,21.44,3.67,2.85,4.07-5.17,3.19-1.84,6.7,2.39,4.47-4.21,1.14-6.55,2.61,1.91,4.35,16.14,6.65,10.33-.3,5.22-.94.19,7.91,5.84,6.24,6.16.62,11.99,3.15,18.27,3.14-1.81,2.08-4.83,3.4-3.69,7.13-.88-7.56-10.66-6.96-16.44-8.14-4.49-.67-8.68-2.57-13.15-3.29,4.54,4.02-6.27,2.26-7.33,5.9-.41-.11-1.22-.34-1.63-.45-1.76,1.24-4.43,2.2-4.08-1.07,2-1.13,4.14-1.97,6.17-3.04a10.185,10.185,0,0,1,5.96-.4c-1.51-3.41-6.89-2.71-9.03-5.88-1.65-3.98,4.71-1.34,7.1-2.06-3.19-5.44-13.89.77-15.26-3.98a45.5,45.5,0,0,0-20.14-.57c3.81-6.2-14.77-1.31-10.85-5.13,4.96,2.76,5.82-4.38.78-4.84-4.68,2.17-10.14.64-15.24,1.68.22-4.59-6.34-1.74-9.23-2.43A145.347,145.347,0,0,0,92.891,342.1Z" transform="translate(-0.141 -280.02)" style="fill:#93774b"/><path d="M147.641,347.61c1.16-5.09,7.71-1.76,11.47-1.8.19.6.58,1.79.77,2.39-5.76.76,4.84,4.02,6.51,4.51-7.14,2.64-15.71-7.71-21.54-1.15-4.13.13-10.11-4.02-.47-3.26A22.773,22.773,0,0,0,147.641,347.61Z" transform="translate(-0.141 -280.02)" style="fill:#4b3d2b"/><path d="M159.111,345.81c8.64,1.16,17.23,2.67,25.93,3.42.29.1.87.31,1.16.42,5.56.5,11.14.89,16.67,1.72a32.079,32.079,0,0,0,4.98.5,149.393,149.393,0,0,1,19.4,2.82c-.03-.64-.08-1.91-.11-2.55-.69-1.12-2.12-1.39-3.15-2.1,10.48.81,20.91-3.2,31.46-.1-1.58.74-3.16,1.45-4.71,2.25-6.75,1.23-13.57-.37-20.35.13-3.74,2.94,2.09,4.4,4.51,2.79.93,3.8-3.99,3.8-6.5,2.84-4.48-.71-9.72-4.08-14.05-1.32-.98-7.32-10.95-.32-4.9,3.46-3.33.96-7.43,4.41-10.64,1.84,1.07-.92,2.16-1.8,3.3-2.64,5.89,3.46,6.46-11.22-.74-6.27-1.84,1.88-2.73,2.06-2.22-.92-5.2,3.77-11.48-1.04-17.36-.96-7.14-2.21-14.71-1.47-21.91-2.94C159.691,347.6,159.3,346.41,159.111,345.81Z" transform="translate(-0.141 -280.02)" style="fill:#565959"/><path d="M186.2,349.65c.77-3.76,4.7-1.78,6.99-.74,4.48-.21,10.63-2.01,14.19,1.85-1.5.23-3,.43-4.51.61C197.341,350.54,191.761,350.15,186.2,349.65Z" transform="translate(-0.141 -280.02)" style="fill:#201e1d"/><path d="M80.871,348.2c5.38,1.54,10.71,3.66,16.36,3.89-.94.87-3.22,1.71-1.37,2.99,4.89,4.46-2.58.86-2.72,4.66,2.76-.15,5.52-.24,8.29-.33-.68,3.63-4.06,1.55-6.47,2.48-3.39-1.38-6.71-3.19-10.42-3.44-.95,1.99-2.13,2.87-3.63.79,3.47-3.14-3.94-1.5-1.14-4.68,2.18-1.5-1.21-3.06-1.9-4.5,2.36.4,4.13,2.13,6.23,3.15C83.041,351.53,81.851,349.93,80.871,348.2Z" transform="translate(-0.141 -280.02)" style="fill:#614a30"/><path d="M166.391,352.71c-1.67-.49-12.27-3.75-6.51-4.51,7.2,1.47,14.77.73,21.91,2.94,5.88-.08,12.16,4.73,17.36.96-.51,2.98.38,2.8,2.22.92,7.2-4.95,6.63,9.73.74,6.27-3.53-.71-7.11-1.13-10.68-1.57-7.27-.65-14-4.29-21.44-3.67C168.811,353.55,167.611,353.1,166.391,352.71Z" transform="translate(-0.141 -280.02)" style="fill:#1f191a"/><path d="M66.1,348.8c3.93.37,7.91.36,11.77,1.26.69,1.44,4.08,3,1.9,4.5-2.8,3.18,4.61,1.54,1.14,4.68-5.77-.71-9.25-4.18-13.78-7.32C66.771,350.88,66.421,349.84,66.1,348.8Z" transform="translate(-0.141 -280.02)" style="fill:#3c2f1c"/><path d="M207.851,351.87c5.21-3.41,13.06.48,19.29.27.03.64.08,1.91.11,2.55A149.393,149.393,0,0,0,207.851,351.87Z" transform="translate(-0.141 -280.02)" style="fill:#141518"/><path d="M65.131,351.86c.5.01,1.5.04,2,.06,4.53,3.14,8.01,6.61,13.78,7.32,1.5,2.08,2.68,1.2,3.63-.79,3.71.25,7.03,2.06,10.42,3.44-6.44,6.53,9.4,2.43,4.36,8.94,1.42,5.16-3.33,4.19-4.94.96-1.25-4.39-5.08,3.72-7.18-.55-.12.43-.35,1.28-.46,1.71-1.13-.71-2.56-2.49-3.1-.22a57.217,57.217,0,0,1-7.32-5.96c-3.48-2.67,3.9-1.16.96-3.06-2.14-3.53-10.93.93-8.69-4.39C70.261,355.54,63.2,356.43,65.131,351.86Zm22.24,10.22" transform="translate(-0.141 -280.02)" style="fill:#8f744a"/><path d="M97.231,352.09c.67.03,2,.09,2.67.11a55.392,55.392,0,0,1,9.3,3.25c-1.31.53-2.94.78-3.27,2.42-3.23-1.33-6.53-2.73-10.07-2.79C94.011,353.8,96.291,352.96,97.231,352.09Z" transform="translate(-0.141 -280.02)" style="fill:#3b2c17"/><path d="M230.391,352.32c6.78-.5,13.6,1.1,20.35-.13,9.71,3.02,20.24.42,30.21,1.94,3.74.35,7.77,2.09,9.05,5.89-5.36,2.17-12.77-2.94-17.12,1.77h-1.56c-4.5-5.82-13.34-1.46-19.65-3.24-6.78-3.71-5.32,2.64-6.4,6.46-1.65-.04-3.29-.11-4.93-.2-7.39-1.83-14.98-2.58-22.49-3.73a46.64,46.64,0,0,0-8.4-.99c-6.05-3.78,3.92-10.78,4.9-3.46,4.33-2.76,9.57.61,14.05,1.32,2.51.96,7.43.96,6.5-2.84C232.481,356.72,226.651,355.26,230.391,352.32Z" transform="translate(-0.141 -280.02)" style="fill:#141d29"/><path d="M53.541,354.43c4.47-3.14,5.78,1.6,6.78,4.36C57.281,359.34,44.881,355.89,53.541,354.43Z" transform="translate(-0.141 -280.02)" style="fill:#4c3411"/><path d="M169.991,354.05c7.44-.62,14.17,3.02,21.44,3.67C184.241,360.13,176.621,356.82,169.991,354.05Z" transform="translate(-0.141 -280.02)" style="fill:#564433"/><path d="M95.861,355.08c3.54.06,6.84,1.46,10.07,2.79a5.337,5.337,0,0,0,4.83-1.31c5.35-2.76,9.18,5.41,14.21,3.38,6.07,3.9-4.7,1.47-7.73,1.6-3.03-3.01-5.84.87-9.21-.34-.98,2.95,10.12,4.45,6.1,1.84-2.5-1.76,2-1.04,3.11-1.5-3.81,5.1,4.12,3.17,5.36,6.94,3.97,1.63,6.94-1.61,10.63-1.58-1.34,4.09-9.72,6.99-12.1,4.25,11.61.22.67-2.43-2.86-1.88-2.48.76-6.54-1.68-7.59,1.41-1.34,7.02-7.27,1.51-11.36.15,5.04-6.51-10.8-2.41-4.36-8.94,2.41-.93,5.79,1.15,6.47-2.48-2.77.09-5.53.18-8.29.33C93.281,355.94,100.751,359.54,95.861,355.08Z" transform="translate(-0.141 -280.02)" style="fill:#79603b"/><path d="M.141,355.97c5.49,1.58,11.37.97,16.77,3.01-5.22.95-10.35,2.4-15.78,2.11.85,4.41,6.04,1.34,9.09,1.99-.04,6.34-3.7-.24-6.57,3.3a24.608,24.608,0,0,1-3.51-1.69Z" transform="translate(-0.141 -280.02)" style="fill:#8d7042"/><path d="M16.911,358.98c1.45,1.08,1.64-1.19,2.39-1.97-.54,1.14.51,3.77-1.28,3.81-4.31-.14-2.78,5.48-3.86,8.23-4.09,3.15-1.03-5.44-3.94-5.97-3.05-.65-8.24,2.42-9.09-1.99C6.561,361.38,11.691,359.93,16.911,358.98Z" transform="translate(-0.141 -280.02)" style="fill:#685a2f"/><path d="M133.551,362.12c.7-5.51,8.71-3.51,12.41-1.86,2.63.55,11.93,4.16,1.71,2.08-3.34-1.97-6.83-.41-1.65,1.06-2.55,3.41-.1,5.34,3.98,3.66.36-5.01,11.23.94,9.44,4.8-4.94-.82-10.21.99-14-3.17-3.74-2.37-.97,1.25.11,2.98,1.09,3.34-3.77,3.63-4.55,6.43-3.54,1.75-.6-6.22-4.44-3.93.18,2.28-2.46,4.08-2.54.83-2.91-4.17-1.51,8.39-4.52,3.6-1.25-3.75-6.24-.15-5.53-4.55-1.78,3.5-3.92,3.07-5.95,0-2.52-1.77-4.74-.61-5.73,2.08-.52-1.82-1.11-3.63-1.61-5.45,1.05-3.09,5.11-.65,7.59-1.41,3.53-.55,14.47,2.1,2.86,1.88,2.38,2.74,10.76-.16,12.1-4.25-3.69-.03-6.66,3.21-10.63,1.58-1.24-3.77-9.17-1.84-5.36-6.94,3.03-.13,13.8,2.3,7.73-1.6C128.041,358.68,130.551,361.84,133.551,362.12Z" transform="translate(-0.141 -280.02)" style="fill:#8f734c"/><path d="M191.431,357.72c3.57.44,7.15.86,10.68,1.57-1.14.84-2.23,1.72-3.3,2.64-2.01-4.15-6.56,2.99-2.01,2.53,1.15,2.51-.49,6.74,2.41,8.51-5.65,1.67-.62-7.18-5.84-6.24,5.81,6.95-8.42,4.65-10.33.3,2.34-1.47,8.94,1.86,6.55-2.61C186.261,360.91,194.281,361.79,191.431,357.72Z" transform="translate(-0.141 -280.02)" style="fill:#645632"/><path d="M245.271,365.01c1.08-3.82-.38-10.17,6.4-6.46,6.31,1.78,15.15-2.58,19.65,3.24-2.74-.31-4.74.1-3.34,3.15Q256.626,365.06,245.271,365.01Z" transform="translate(-0.141 -280.02)" style="fill:#776d5b"/><path d="M145.961,360.26a45.5,45.5,0,0,1,20.14.57c1.37,4.75,12.07-1.46,15.26,3.98-2.39.72-8.75-1.92-7.1,2.06,2.14,3.17,7.52,2.47,9.03,5.88a10.185,10.185,0,0,0-5.96.4c-5.06-.18-13.9-3.63-15.63,2.8-1.02-1.2-1.37-2.8-2.26-4.09,1.79-3.86-9.08-9.81-9.44-4.8-4.08,1.68-6.53-.25-3.98-3.66-5.18-1.47-1.69-3.03,1.65-1.06C157.891,364.42,148.591,360.81,145.961,360.26Z" transform="translate(-0.141 -280.02)" style="fill:#6f5736"/><path d="M108.031,361.2c3.37,1.21,6.18-2.67,9.21.34-1.11.46-5.61-.26-3.11,1.5C118.151,365.65,107.051,364.15,108.031,361.2Z" transform="translate(-0.141 -280.02)" style="fill:#513c1c"/><path d="M196.8,364.46c-4.55.46,0-6.68,2.01-2.53,3.21,2.57,7.31-.88,10.64-1.84a46.64,46.64,0,0,1,8.4.99c3.18,3.54,8.97,2.23,12.22,5.68,2.91,4.2,7.63-1.45,11.29,1.02,1.79,1.17,3.36-1.02,5.2-1.08,3.49,1.79,7.38,2.85,10.36,5.52,1.91,3.02,5.63,8.3-.84,6.76-5.04,1.17-9.94-.66-14.79-.11a159.622,159.622,0,0,1-19.94-2.41c-1.29-.14-2.58-.27-3.87-.35-6.28.01-12.11-2.52-18.27-3.14C196.311,371.2,197.951,366.97,196.8,364.46Z" transform="translate(-0.141 -280.02)" style="fill:#1c2617"/><path d="M217.851,361.08c7.51,1.15,15.1,1.9,22.49,3.73-3.13,1.54-8.86-1.28-10.27,1.95C226.821,363.31,221.031,364.62,217.851,361.08Z" transform="translate(-0.141 -280.02)" style="fill:#49514b"/><path d="M87.371,362.08" transform="translate(-0.141 -280.02)" style="fill:#4e3316"/><path d="M184.2,371.81c4.47.72,8.66,2.62,13.15,3.29.03,2.61-2.49,1.05-4.04,1.1-1.85,2.76-2.8,6-3.97,9.09-.51-3.33,1.25-7.48-.88-10.55.44,5.32-3.64,4.95-1.64-.01-2.76,1.86-1.2,6-4.47,1.11,1.02,5.17-2.39,3.68-5.48,1.87C177.931,374.07,188.741,375.83,184.2,371.81Z" transform="translate(-0.141 -280.02)" style="fill:#70673b"/><path d="M256.921,372.22q3.99-.285,7.99-.58c1.76.82,4.43,1.08,4.57,3.51-.06.64-.19,1.93-.25,2.57-.15,1.84-.23,3.69-.3,5.54-1.89-.34-4.35-3.01-5.67-.49-.72-2.85-4.76-2.01-7.02-2.9l-.16-.89C262.551,380.52,258.831,375.24,256.921,372.22Z" transform="translate(-0.141 -280.02)" style="fill:#475d5c"/><path d="M162.841,376.77c.26-3.04,3.6-.68,5.4-.58-.97,1.73-2.86,2.36-4.62,2.98C163.431,378.57,163.041,377.37,162.841,376.77Z" transform="translate(-0.141 -280.02)" style="fill:#88896e"/><path d="M221.351,376.46a159.622,159.622,0,0,0,19.94,2.41,13.579,13.579,0,0,1-1.24,5.18c-2.7.53-3.05-.91-2.26-3.13-2.52.81-9.93,1.74-3.91-.36-1.57-2.19-6.87,4.01-9.76-.48,1.73,3.53-.75,3.68-1.27.15C219.891,384.52,217.551,376.34,221.351,376.46Z" transform="translate(-0.141 -280.02)" style="fill:#736f52"/><path d="M178.9,344.507c11.1-1.18,22.3-.16,33.44-.73.75.02,2.25.04,3,.06a42.039,42.039,0,0,0,16.65.05c31.41,2.56,62.91.51,94.35,2.01,10.17.35,20.35-.19,30.53.3,9.76,1.38,19.64.54,29.46.96-8.08,1.71-16.42-.17-24.48,1.41-15.31,1.02-30.66-.08-45.98.63-7.19-.24-14.37-.3-21.55-.14-12.97.25-25.91,1.48-38.9.9-10.55-3.1-20.98.91-31.46.1,1.03.71,2.46.98,3.15,2.1-6.23.21-14.08-3.68-19.29-.27a32.079,32.079,0,0,1-4.98-.5c1.51-.18,3.01-.38,4.51-.61-3.56-3.86-9.71-2.06-14.19-1.85-2.29-1.04-6.22-3.02-6.99.74-.29-.11-.87-.32-1.16-.42C185.22,345.757,181.44,345.227,178.9,344.507Z" transform="translate(-0.141 -280.02)" style="fill:#2e4858"/><path d="M356.87,346.2c16.99-.65,34.05.35,51.02-1.06l4.8,1.4c-8.46,4.06-17.55-.69-26.36.62C376.51,346.737,366.63,347.577,356.87,346.2Z" transform="translate(-0.141 -280.02)" style="fill:#466778"/><path d="M407.89,345.137a60.036,60.036,0,0,1,7.82.06c1.91,2.4,3.51,5.81,7.21,4.79,12.43-.37,24.99.94,37.33-.85,2.77-.57,7.83-2.85,7.57,1.85,26.81-.18,53.58.12,80.31,1.71a3.6,3.6,0,0,0-4.04,2.19c-61.65.91-123.2-3-184.78-3.96.64-1.1,10.1-1.14,2.54-2.36,8.06-1.58,16.4.3,24.48-1.41,8.81-1.31,17.9,3.44,26.36-.62Z" transform="translate(-0.141 -280.02)" style="fill:#385361"/><path d="M255.42,349.957c12.99.58,25.93-.65,38.9-.9-2.2,1.22-8.55,3.5,1.73,1.88,13.36.78,26.77-.51,40.09.93-2.81-4.87-14.53-.04-20.27-2.67,15.32-.71,30.67.39,45.98-.63,7.56,1.22-1.9,1.26-2.54,2.36,61.58.96,123.13,4.87,184.78,3.96.72.02,2.17.05,2.89.07,14.15.42,28.28,1.56,42.45.95,1.47.03,2.94.05,4.43.03,22.85-.77,45.72,2.76,68.51.47l6.74-.48v5.09c-21.91-.77-43.81-1.35-65.76-1.1-5.88-3.96-17.12-3.54-24.87-1.44-3.19,1.37-6.1-1.85-9.26-.41-12.97,1.94-26.01-1.98-38.99-.38-10.29-.33-20.6,1.02-30.87,0-8.89-3.57-18.49.69-27.65-.34a38.837,38.837,0,0,0-16.72-.53c-58.06-.12-116.06-2.57-174.07-2.67-9.97-1.52-20.5,1.08-30.21-1.94C252.26,351.407,253.84,350.7,255.42,349.957Z" transform="translate(-0.141 -280.02)" style="fill:#5c737b"/><path d="M294.32,349.057c7.18-.16,14.36-.1,21.55.14,5.74,2.63,17.46-2.2,20.27,2.67-13.32-1.44-26.73-.15-40.09-.93C285.77,352.557,292.12,350.277,294.32,349.057Z" transform="translate(-0.141 -280.02)" style="fill:#72848a"/><path d="M280.92,354.147c58.01.1,116.01,2.55,174.07,2.67.29.56.85,1.68,1.13,2.24-55.32.56-111.16-1.44-166.15.98C288.69,356.237,284.66,354.5,280.92,354.147Z" transform="translate(-0.141 -280.02)" style="fill:#365058"/><path d="M454.99,356.817a38.837,38.837,0,0,1,16.72.53c9.16,1.03,18.76-3.23,27.65.34,10.27,1.02,20.58-.33,30.87,0,12.98-1.6,26.02,2.32,38.99.38,3.16-1.44,6.07,1.78,9.26.41,7.75-2.1,18.99-2.52,24.87,1.44-74.83.3-149.66-.25-224.48.28-11.51-.22-23.04-.51-34.53,0-17.69.6-35.86-2.4-53.18,1.85-6.11-.03-12.21-.05-18.31-.24,4.35-4.71,11.76.4,17.12-1.77,54.99-2.42,110.83-.42,166.15-.98C455.84,358.5,455.28,357.377,454.99,356.817Z" transform="translate(-0.141 -280.02)" style="fill:#497178"/><path d="M291.16,362.047c17.32-4.25,35.49-1.25,53.18-1.85-13.66,2.52-29.05-2.11-41.67,4.7-3.13.04-6.21.11-9.32.24-.85-.03-2.54-.08-3.38-.11C290.35,364.017,290.74,363.027,291.16,362.047Z" transform="translate(-0.141 -280.02)" style="fill:#599da5"/><path d="M344.34,360.2c11.49-.51,23.02-.22,34.53,0,44.74,2.33,89.81-.68,134.51,1.44-8.85,1.53-17.86-.55-26.59,2.28-10.6.55-21.57-2.9-31.91.24-46.65-1.34-93.17-.67-139.77-.24-3.22-.09-6.6-.36-9.58,1.08-.72-.02-2.15-.08-2.86-.1C315.29,358.087,330.68,362.717,344.34,360.2Z" transform="translate(-0.141 -280.02)" style="fill:#3a9fb1"/><path d="M378.87,360.2c74.82-.53,149.65.02,224.48-.28,21.95-.25,43.85.33,65.76,1.1v.97c-50.41.14-100.83-.29-151.23.2-1.51-.15-3.01-.34-4.5-.55C468.68,359.517,423.61,362.527,378.87,360.2Z" transform="translate(-0.141 -280.02)" style="fill:#4b9ca9"/><path d="M267.95,364.957c-1.4-3.05.6-3.46,3.34-3.15h1.56c6.1.19,12.2.21,18.31.24-.42.98-.81,1.97-1.19,2.98-14.35,2.24-29.11-.87-43.44,1.69-1.84.06-3.41,2.25-5.2,1.08-3.66-2.47-8.38,3.18-11.29-1.02,1.41-3.23,7.14-.41,10.27-1.95,1.64.09,3.28.16,4.93.2Q256.6,365.087,267.95,364.957Z" transform="translate(-0.141 -280.02)" style="fill:#868d82"/><path d="M486.79,363.917c8.73-2.83,17.74-.75,26.59-2.28,1.49.21,2.99.4,4.5.55,29.96,4.19,60.48,4.36,90.7,5.43,20.15-2.78,40.47,4.99,60.53,1.17v4.14c-30.29,1.14-60.58-1.31-90.85-2.31C547.77,370,516.99,368.667,486.79,363.917Z" transform="translate(-0.141 -280.02)" style="fill:#1ba1b6"/><path d="M517.88,362.187c50.4-.49,100.82-.06,151.23-.2v6.8c-20.06,3.82-40.38-3.95-60.53-1.17C578.36,366.547,547.84,366.377,517.88,362.187Z" transform="translate(-0.141 -280.02)" style="fill:#1397aa"/><path d="M315.11,363.917c46.6-.43,93.12-1.1,139.77.24,63.25,10.74,127.79,7.4,191.61,12.41,7.54-.38,15.05.47,22.62.46v1.81c-8.53,1.79-17.19-.6-25.78.37-41.23-1.81-82.44-4.42-123.68-5.6-31.64-.53-62.9-6.73-94.56-6.68-39.7-2.57-80.05,1.04-119.56-1.93C308.51,363.557,311.89,363.827,315.11,363.917Z" transform="translate(-0.141 -280.02)" style="fill:#3bafc2"/><path d="M454.88,364.157c10.34-3.14,21.31.31,31.91-.24,30.2,4.75,60.98,6.08,91.47,6.7,30.27,1,60.56,3.45,90.85,2.31v4.1c-7.57.01-15.08-.84-22.62-.46C582.67,371.557,518.13,374.9,454.88,364.157Z" transform="translate(-0.141 -280.02)" style="fill:#29a9bd"/><path d="M246.53,366.717c14.33-2.56,29.09.55,43.44-1.69.84.03,2.53.08,3.38.11-1.37.7-2.74,1.39-4.14,2.03-7.61,2.39-19.11-2.24-24.33,4.49q-4,.3-7.99.58C253.91,369.567,250.02,368.507,246.53,366.717Z" transform="translate(-0.141 -280.02)" style="fill:#84b7b4"/><path d="M293.35,365.137c3.11-.13,6.19-.2,9.32-.24,2.27,2.79,5.49,4.98,9.41,4.21,28.32,2.34,56.74.34,85.03-1.2,43.71,1.75,87.22,7.06,130.99,8.02,38.41.6,76.88,4.54,115.23,3.28,8.59-.97,17.25,1.42,25.78-.37v23.2c-9.69-.62-18.93-3.09-28.38-1.64-11.2-5.86-24.59-3.12-36.63-4.48-6.95.15-13.36-3.18-20.31-2.44,1.79-4.2,7.67-1.73,10.45-5.18-64.63-12.03-130.64-13.48-196.11-18.33-35.15,1.06-70.42,3.16-105.49-.66q-6.48,1.35-3.43-2.14C290.61,366.527,291.98,365.837,293.35,365.137Z" transform="translate(-0.141 -280.02)" style="fill:#5bbbcb"/><path d="M302.67,364.9c.71.02,2.14.08,2.86.1,39.51,2.97,79.86-.64,119.56,1.93,31.66-.05,62.92,6.15,94.56,6.68,41.24,1.18,82.45,3.79,123.68,5.6-38.35,1.26-76.82-2.68-115.23-3.28-43.77-.96-87.28-6.27-130.99-8.02-28.29,1.54-56.71,3.54-85.03,1.2C308.16,369.877,304.94,367.687,302.67,364.9Z" transform="translate(-0.141 -280.02)" style="fill:#49b9cb"/><path d="M264.88,371.657c5.22-6.73,16.72-2.1,24.33-4.49q-3.045,3.5,3.43,2.14c35.07,3.82,70.34,1.72,105.49.66,65.47,4.85,131.48,6.3,196.11,18.33-2.78,3.45-8.66.98-10.45,5.18,6.95-.74,13.36,2.59,20.31,2.44,12.04,1.36,25.43-1.38,36.63,4.48,9.45-1.45,18.69,1.02,28.38,1.64v10.82c-9.48,2.52-18.13-2.43-27.6-2.46-8.91-3.38-19.16.23-27.42-5.36-5.85-3.85-12.8.42-19.04-2.08-3.57-1.57,7.1-4.21,1.24-5.21-21.38.06-43.15-1.08-64.35-3.03,2.72-8.36,13.72-3.44,19.41-7.44-44.25-1.78-87.57-12.25-131.93-12.6-34.34-4.69-68.94,1.82-103.33-1.46-15.06-.48-30.09-1.48-45.15-2.03-1.56.05-.88,2.81-1.49,3.98C269.31,372.737,266.64,372.477,264.88,371.657Z" transform="translate(-0.141 -280.02)" style="fill:#69c5d4"/><path d="M269.45,375.167c.61-1.17-.07-3.93,1.49-3.98,1.76,4.79,8.51,1.77,12.12,3.05,32.84.38,65.69,3.73,98.52,1.38,29.47-.79,58.44,5.7,87.55,9.19,8.8,1.55,18.91-1.31,27.12,2.79a19.841,19.841,0,0,0-13.36,8.32c14.52-1.03,28.77,2.27,43.21,2.71a27.617,27.617,0,0,1,19.44,5.02c7.44-1.63,14.42,1.11,20.25,5.6,18.8,1.7,37.35,6.81,56.3,7.82,2.13-.17,2.96,2.15,4.26,3.42-3.52.05-1.44,2.94-.34,4.53-4.11-2.86-5.07,2.3-2.87,4.99-2.66.7-3.21-1.13-3.34-3.35-2.91-.11-4.25-1.74-3.9-4.7a23.139,23.139,0,0,1-4.55,5.35c-1.58-2.48-3.9-10.95-5.45-4.09-.93-1.42-1.78-2.89-2.71-4.29-1.3,3.32,1.27,11.98-3.99,9-1.8-3.64-6.99-8.15-10.86-4.82.5-5.64-3.11-1.46-4.17,1.21-1.42-1.66-3.22-6.21-5-2.47a55.678,55.678,0,0,1-5.16,5.37c-.43-5.15-4.77-8.25-7.53-12.18.07,3.56-4.14,2.34-6.25,3.99a3.612,3.612,0,0,1-2.03-.23c-.18-1.36-.83-1.89-1.93-1.6-10.81,6.37-20.74-7.38-31.41-2.73-3.99.26-6.8-6.36-10.87-3.71-2.39,3.07-7.2-3.19-5.64,1.95.14,3.07-2.71,6.32-2.31,1.3-.28-2.45-3.33-5.74-4.7-2.16l-.37-.73c-1.88-2.31-1.08-10.68-5-8.13-1.65-2.01-3.19-5.12-6.88-3.07-8.07.11-17.63-2.8-24.5-.42-1.82,2.39-.55,6.34-3.37,8.71-.75-2.96,2.11-6.87-.35-9.07-7.95-2.85-16.57-2.33-24.83-3.34,2.98-3.18,5.68-7.17,10.13-8.36-17.67-3.06-36.32-1.26-54.06-5.45-8.87-3.04-19.55-2.18-28,1.03-28.49-1.4-56.98-3.65-85.45-5.74-2.24,1.25-8.85-3.79-8.98,1.01l-.48-.55C269.26,377.1,269.39,375.807,269.45,375.167Z" transform="translate(-0.141 -280.02)" style="fill:#8ed4de"/><path d="M270.94,371.187c15.06.55,30.09,1.55,45.15,2.03,34.39,3.28,68.99-3.23,103.33,1.46,44.36.35,87.68,10.82,131.93,12.6-5.69,4-16.69-.92-19.41,7.44,21.2,1.95,42.97,3.09,64.35,3.03,5.86,1-4.81,3.64-1.24,5.21,6.24,2.5,13.19-1.77,19.04,2.08,8.26,5.59,18.51,1.98,27.42,5.36,9.47.03,18.12,4.98,27.6,2.46V425c-10.63,1.23-21.13-2.08-31.69-2.78-.38.44-1.16,1.33-1.54,1.77.43-3.89-7.06-2.63-2.95-.11-1.49.4-2.97.81-4.47,1.13.57-2.27,1.05-4.63-2.11-4.52-1.3-1.27-2.13-3.59-4.26-3.42-18.95-1.01-37.5-6.12-56.3-7.82-5.83-4.49-12.81-7.23-20.25-5.6a27.617,27.617,0,0,0-19.44-5.02c-14.44-.44-28.69-3.74-43.21-2.71a19.841,19.841,0,0,1,13.36-8.32c-8.21-4.1-18.32-1.24-27.12-2.79-29.11-3.49-58.08-9.98-87.55-9.19-32.83,2.35-65.68-1-98.52-1.38C279.45,372.957,272.7,375.977,270.94,371.187Z" transform="translate(-0.141 -280.02)" style="fill:#7accda"/><path d="M269.68,378.287c.13-4.8,6.74.24,8.98-1.01,28.47,2.09,56.96,4.34,85.45,5.74-5.3,4.77,6.03,3.39,8.64,3.56,5.47-3.19,16.01.55,10.48,7.36-3.3-5.56-4.3.62-5.5,4.06a18.325,18.325,0,0,1-4.17-5.98c-2.18,2.53-1.19,7.16-3.43,1.81-3.13-5.61-4.75,7.84-7.06,2.06-.78-1.61-.09-5.2-2.65-4.83-.44,1.84-.17,4.47-2.53,5.01,1.04-3.38-1.71-3.2-2.01-5.94-1.05,2.04-1.93,4.53-4.48,5.71-2.55-3.31-8.8.2-10.43-4.85-2.07-2.71-2.27,2.57-3.06,3.94-3.16-1.24-5.32-7.08-7.64-1.8-.74-1.13-.52-3.92-2.13-3.88-1.56.35-1.52,2.73-2.27,3.94-.22.27-.67.81-.89,1.08.02-1.52-2.75-6.8-2.25-2.97,1.65,2.3-4.62,4.38-3.05,1.31,1.17-3.04-1.46-1.01-2.33.26-.79-1.7-1.05-4.76-3.53-3.17-2.09.88-.95-1.34-.98-2.47a85.594,85.594,0,0,0-8.88-2.14l-.84-.14c-3.09-.7-6.47-1.01-8.57-3.6-.84,1.43-1.78,1.74-2.85.36-4.09.83-8.58,3.61-11.59-.54-2.49,4.03-4.68-2.34-8.08-.35C271.22,379.987,270.43,379.157,269.68,378.287Z" transform="translate(-0.141 -280.02)" style="fill:#afdbdf"/><path d="M269.2,377.737l.48.55c.75.87,1.54,1.7,2.35,2.53-1.03,1.11-2.88,6.37-3.13,2.46C268.97,381.427,269.05,379.577,269.2,377.737Z" transform="translate(-0.141 -280.02)" style="fill:#839085"/><path d="M364.11,383.017c8.45-3.21,19.13-4.07,28-1.03,17.74,4.19,36.39,2.39,54.06,5.45-4.45,1.19-7.15,5.18-10.13,8.36,8.26,1.01,16.88.49,24.83,3.34,2.46,2.2-.4,6.11.35,9.07-.05,1.33-.06,2.67-.05,4.02l-.36,2.4c-2.01-.84-2.96,3.9-4.31,1.04-2.9-5.35-1.92,5.94-6.43,2.46-1.56-5.08-6.91-7.44-8.74-12.41-.93-1.71-1.91-6.27-4.54-4.12-2.94,1.73-1.52,6.38-4.26,8.53a29.563,29.563,0,0,0-2.04-6.39c-2.33-3.36-1.72-9.89-6.26-10.83.05.68.15,2.05.2,2.73-3.19,1.28-.55,7.7-4.82,6.1-1.39-4.26-3.11-4.39-2.72.49l-.36-.68c-.68-3.37-4.22-2.85-3.38-6.75-4.83-5.15-6.53,3.43-7.03,7.12-.16.52-.47,1.56-.62,2.08-.27,3.65-1.97-.05-3.06-1.24-.15-.39-.47-1.18-.63-1.58-3.76-1.57-1.93-6.99-5.82-7.11,1.25-4.95-7.36-4.71-2.92-1.18-.66.11-1.98.33-2.64.43-2.39.29-4.8.51-7.2.62,5.53-6.81-5.01-10.55-10.48-7.36C370.14,386.407,358.81,387.787,364.11,383.017Z" transform="translate(-0.141 -280.02)" style="fill:#a2dae0"/><path d="M303.96,385.087a85.594,85.594,0,0,1,8.88,2.14c.03,1.13-1.11,3.35.98,2.47a20.329,20.329,0,0,1,2.43,5.37c-2.34.03-2.32-2.71-3.63-4.06-2.05,5.24-1.33-4.82-4.87-2.45C305.02,389.877,304.65,387.047,303.96,385.087Z" transform="translate(-0.141 -280.02)" style="fill:#7e8776"/><path d="M325.87,393.187c.75-1.21.71-3.59,2.27-3.94C328.52,390.927,328.59,395.337,325.87,393.187Z" transform="translate(-0.141 -280.02)" style="fill:#67766b"/><path d="M351.4,395.837c2.55-1.18,3.43-3.67,4.48-5.71.3,2.74,3.05,2.56,2.01,5.94-2.31.81-4.53-.93-6.79.43Z" transform="translate(-0.141 -280.02)" style="fill:#5c6e61"/><path d="M393.07,392.887c-4.44-3.53,4.17-3.77,2.92,1.18.1.66.31,1.98.41,2.64-1.32-.24-3.51-.87-3.48,1.22-1.01-.46-2.01-.94-3.05-1.33l-.56-.21c-1.69-1.15.39-2.1,1.12-3.07C391.09,393.217,392.41,393,393.07,392.887Z" transform="translate(-0.141 -280.02)" style="fill:#89b7b2"/><path d="M406.12,401.917c.5-3.69,2.2-12.27,7.03-7.12.17,4.4-7,3.85-3.87,6.98C411.32,404.247,407.3,402.007,406.12,401.917Z" transform="translate(-0.141 -280.02)" style="fill:#8bb3ab"/><path d="M464.59,399.5c6.87-2.38,16.43.53,24.5.42,3.69-2.05,5.23,1.06,6.88,3.07a16.27,16.27,0,0,1-1.93,8.74c-.7,2.3-1.45,4.1-2.88,1.17.82-5.4-7.78-4.36-3.16.02-3.7-2.15-5.42,3.32-5.11,6.2.79,3.11-.47,5.37-.97,1.06-1.32-4.1-6.31-2.98-8.55-.26-.93-2.5-1.48-5.4-4.19-6.6-.4-2.33-1.58-4.4-2.3-6.62A36.344,36.344,0,0,0,464.59,399.5Z" transform="translate(-0.141 -280.02)" style="fill:#9fd8de"/><path d="M461.22,408.207c2.82-2.37,1.55-6.32,3.37-8.71a36.344,36.344,0,0,1,2.29,7.2c-2.57,1.41-2.01,5.9-5.71,5.53C461.16,410.877,461.17,409.537,461.22,408.207Z" transform="translate(-0.141 -280.02)" style="fill:#739b8e"/><path d="M436.79,401.6c2.63-2.15,3.61,2.41,4.54,4.12-3.08-1.37-4.01,3-5.99,4.55C435.75,407.357,436.23,404.457,436.79,401.6Z" transform="translate(-0.141 -280.02)" style="fill:#638c72"/><path d="M432.53,410.127c2.74-2.15,1.32-6.8,4.26-8.53-.56,2.86-1.04,5.76-1.45,8.67.19,2.56-1.15,2.97-3.22,1.92-.67-2.04-1.29-4.1-2.09-6.09.12-.59.34-1.77.46-2.36A29.563,29.563,0,0,1,432.53,410.127Z" transform="translate(-0.141 -280.02)" style="fill:#93b4a8"/><path d="M488,412.917c-4.62-4.38,3.98-5.42,3.16-.02-3.13,1.5-4.25,3.43-7.51,5.68l-.76.54C482.58,416.237,484.3,410.767,488,412.917Z" transform="translate(-0.141 -280.02)" style="fill:#6d958d"/><path d="M501.34,411.847c1.37-3.58,4.42-.29,4.7,2.16C504.54,413.2,502.22,413.387,501.34,411.847Z" transform="translate(-0.141 -280.02)" style="fill:#6b9885"/><path d="M513.99,410.757c4.07-2.65,6.88,3.97,10.87,3.71,10.67-4.65,20.6,9.1,31.41,2.73a21.9,21.9,0,0,0-.27,4.43c-.2.53-.62,1.58-.83,2.11a93.675,93.675,0,0,0-10.99.18,32.964,32.964,0,0,0-3.88-4.29c-1.69-.23-3.47.04-5.05-.7l-.3-.88c-.42-1.82-2.61-.37-3.71-.17-2.82.05-8.1-2.34-8.95,1.93-1.4-.91-2.99-1.57-4.12-2.84-.52-2.75-2.56-4.57-5.28-3.07C513.24,412.847,513.6,411.8,513.99,410.757Z" transform="translate(-0.141 -280.02)" style="fill:#a0d7d2"/><path d="M531.24,417.877c1.1-.2,3.29-1.65,3.71.17C533.82,419.607,531.61,420.507,531.24,417.877Z" transform="translate(-0.141 -280.02)" style="fill:#63887a"/><path d="M556.27,417.2c1.1-.29,1.75.24,1.93,1.6-.53.98-1.05,1.96-1.55,2.95l-.65-.12A21.9,21.9,0,0,1,556.27,417.2Z" transform="translate(-0.141 -280.02)" style="fill:#699889"/><path d="M584.17,424.317c1.06-2.67,4.67-6.85,4.17-1.21A4.417,4.417,0,0,1,584.17,424.317Z" transform="translate(-0.141 -280.02)" style="fill:#6a9d89"/><path d="M637.42,422.217c10.56.7,21.06,4.01,31.69,2.78v17.98c-2.87-.81-5.42-2.06-6.51-5.01-.81,1.86-1.63,6-4.41,4.22l.02-.85c3.44-.23,1.97-6.78-1-6.42-.15,1.69-.18,3.39-.18,5.1-.66-.69-1.3-1.39-1.92-2.09.17-2.65-3.22-.72-3.93-3.02-.7-2.12-4.91-3.15-4.05.13.39,3.89-2.21-.65-4.15-.49-1.31-.48-2.58-1-3.86-1.5a19.411,19.411,0,0,1-3.04-4.82,5.933,5.933,0,0,0,4.23-1.95c-2.18.63-3.91.08-4.43-2.29C636.26,423.547,637.04,422.657,637.42,422.217Z" transform="translate(-0.141 -280.02)" style="fill:#95d4d9"/><path d="M657.21,434.917c2.97-.36,4.44,6.19,1,6.42-.3-.33-.89-.99-1.18-1.32C657.03,438.307,657.06,436.607,657.21,434.917Z" transform="translate(-0.141 -280.02)" style="fill:#4b7a68"/></svg>