<svg xmlns="http://www.w3.org/2000/svg" viewBox="0 0 669.141 257.038"><g id="Layer_4" data-name="Layer 4"><path d="M640.9,226.854c-1.41,6.26,4.48,11.84,2.33,18.24,4.11-.63,2.57-9.03,7.76-8.11,1.83-.17.78,2.69,1.41,3.81,2.7-.13,6.99-2.76,4.16,4.51,1.85-3.26,4.59-6.43,4.65-10.36-3.35-.71-4.92,3.27-8.06,3.12-.43-2.41.05-4.53,2.9-4.47.88-3.84-4.79-8.5-.78-11.05" transform="translate(0 -100.171)" style="fill:#113352"/><path d="M623.1,240.994c1.82,1.68-.07,3.47-.81,5.14,2.06,5.03,1.69,10.54,1.93,15.9,6.47-1.83,2.55-10.7,6.14-14.98,2.4-.57,4.85,4.09,6.64.64,2.98-8.93-2.45-3.3-4.53-1.42,2.96-7.02-1.73-4.26-4.41-4.34" transform="translate(0 -100.171)" style="fill:#113352"/><path d="M669.141,217.7v30.05c-18.54,4.81-35.48,13.81-52.85,21.22-20.81,4.66-40.37,13.36-59.27,22.93-.9.55-1.8,1.1-2.7,1.64-6.05-2.56,4.4-5.27,5.45-7.74-1.53-5.22,4.73-4.15,7.67-5.52a27.357,27.357,0,0,1,21.37-7.53c4.43-6.54,13.16-8,17.11-14.97,2.28-5,9.92-3.87,11.47-9.47" transform="translate(0 -100.171)" style="fill:#113352"/><path d="M655.271,222.544c-4.01,2.55,1.66,7.21.78,11.05-2.85-.06-3.33,2.06-2.9,4.47,3.14.15,4.71-3.83,8.06-3.12-.06,3.93-2.8,7.1-4.65,10.36,2.83-7.27-1.46-4.64-4.16-4.51-.63-1.12.42-3.98-1.41-3.81-5.19-.92-3.65,7.48-7.76,8.11,2.15-6.4-3.74-11.98-2.33-18.24" transform="translate(0 -100.171)" style="fill:#1e3d5b"/><path d="M241.081,270.934c2.87,5.54,12.78,9.06,9.4,16.37a21.876,21.876,0,0,1-16.84-3.73c-4.09-2.85-9.99-2.65-12.82-7.26-2.56-2.71-7.94-5.45-10.88-4.61,1.72,7.7-9.59,3.46-11.22,8.98,2.85,2.87-1.11,3.61-3.6,3.34-5.57-6.81,8.41-8.86,10.73-12.85a66.223,66.223,0,0,0-9.8-2.44c4.67-3.47,8.87,2.34,13.92-.85,1.21-5.68-5.07-4.93-6.67-.68.98-2.75.76-5.47-1.39-7.61" transform="translate(0 -100.171)" style="fill:#2d425b"/><path d="M262.111,259.274c.15,5.88.36,12.6,4,17.82a9.91,9.91,0,0,1-5.1,7.3c-4.92-6.79-12.46-10.27-19.93-13.46" transform="translate(0 -100.171)" style="fill:#2d425b"/><path d="M617.391,248.314c-1.55,5.6-9.19,4.47-11.47,9.47-3.95,6.97-12.68,8.43-17.11,14.97a27.357,27.357,0,0,0-21.37,7.53c-2.94,1.37-9.2.3-7.67,5.52-1.05,2.47-11.5,5.18-5.45,7.74a88.574,88.574,0,0,1-17.49,6.29c1.46-2.67,6.41-2.75,5.4-6.82-7.78-.23-14.79,3.67-21.9,6.24-.95-5.09,2.39-9.18,2.77-14.04" transform="translate(0 -100.171)" style="fill:#1c3b59"/><path d="M628.061,241.934c2.68.08,7.37-2.68,4.41,4.34,2.08-1.88,7.51-7.51,4.53,1.42-1.79,3.45-4.24-1.21-6.64-.64-3.59,4.28.33,13.15-6.14,14.98-.24-5.36.13-10.87-1.93-15.9.74-1.67,2.63-3.46.81-5.14" transform="translate(0 -100.171)" style="fill:#1c3b59"/><path d="M554.851,285.734c7.56-9.56,20.33-10.94,30.33-16.71,4.83,2.62,7.5-3.78,11.26-5.62,5.75-.13,6.61-7.36,11.01-10.02,3.12-1.14,7.12-7.46,1.02-5.07" transform="translate(0 -100.171)" style="fill:#1c3b59"/><path d="M608.471,248.314a8.453,8.453,0,0,1-6.04,3.01c-1.84,2.53-4.06,5.25-7.34,5.76-.4-1.38,2.16-5.47-.64-3.75-3.47,2.12-4.88,7.3-9.99,7.09-8.46,5.19-15.31,13.97-26.03,14.89" transform="translate(0 -100.171)" style="fill:#1c3b59"/><path d="M393.111,277.864c-4.97.05-11.18-3.39-15.6.22.11-.88.21-1.76.28-2.65-6.49-2.25-10.54-8.24-16.54-11.39" transform="translate(0 -100.171)" style="fill:#365265"/><path d="M400.311,262.654c3.1,2.86,5.62,7.93,6.85,12.3-.67,3.7-4.97-.16-6.97,2.13-2.03,1.85-4.65,1.19-7.08.78" transform="translate(0 -100.171)" style="fill:#365265"/><path d="M8.381,250.194c-2.7,2.09-5.48,4.07-8.24,6.08v-16.66" transform="translate(0 -100.171)" style="fill:#3c4d65"/><path d="M71.911,272.184c1.39,3.75,6.08,2.36,9.28,3.02-.78,4.73-7.16,4.21-10.4,6.65-5.21,1.52-3.98,17.87,1.79,10.5,1.94.03,3.87,3.47,6.87,2.37.11,3.87,3.56,4.98,5.95,7.24-1.35,1.45-3.2,5.09-5.45,3.26-2.71-2.47-3.56,3.74-6.7,2.82-2.44-1.91-5.84-4.6-4.31-8.1-4.08-.67-6.98,2.23-10.16,4.06-9.59-1.91-17.38-8.73-26.99-10.28a61.934,61.934,0,0,1-14.07-9.09c3.04-4.5-.04-8.78-4.56-10.61-1.95,2.02.56,4.05,1.26,6.03-4.1,2.79-9.56,2.79-14.28,1.9v-25.68c2.76-2.01,5.54-3.99,8.24-6.08" transform="translate(0 -100.171)" style="fill:#1c2e4a"/><path d="M38.811,257.864c.17,2.22-1.58,5.26.85,6.55,2.2,3.68,8.88,2.66,7.14-2.17-6.62.69-.61-2.66,2.68-3.37" transform="translate(0 -100.171)" style="fill:#1c2e4a"/><path d="M57.321,266.734c-1.01-2.72-4.3-4.77-6.96-5.7-3.08,5.12,3.35,5.93,6.96,5.7" transform="translate(0 -100.171)" style="fill:#1c2e4a"/><path d="M43.581,259.844c-2.44.85-5.42,1.28-3.92,4.57-2.43-1.29-.68-4.33-.85-6.55" transform="translate(0 -100.171)" style="fill:#334662"/><path d="M125.981,265.184c.09,2.6,5.03,2.56,4.56,4.78-.77,4.85-10.75.38-5.62,4.86-9.27.85-14.27,9.58-22.29,12.63-.8,1.06-1.49,2.19-2.21,3.3-3.32,0-7.03,1.15-9.44-1.69-2.68,2.64-7.46,6.3-4.87-.01-4.18,4.37-2.67-2.93-4.71-5.34-1.9-4.1-9.84,2.68-10.61-1.86,3.24-2.44,9.62-1.92,10.4-6.65-3.2-.66-7.89.73-9.28-3.02" transform="translate(0 -100.171)" style="fill:#343f54"/><path d="M125.261,258.594c3.88-1.78,1.45,1.73,2.25,3.86,2.3,1.45,9.25,3.89-1.53,2.73" transform="translate(0 -100.171)" style="fill:#343f54"/><path d="M146.581,259.524c-4.05-1.36-8.2-2.65-11.61-5.34" transform="translate(0 -100.171)" style="fill:#c3b7a7"/><path d="M201.911,259.594c2.15,2.14,2.37,4.86,1.39,7.61,1.6-4.25,7.88-5,6.67.68-5.05,3.19-9.25-2.62-13.92.85-3.24,3.3-7.3,6.24-11.9,7.02-7.69-1.98-12.16,6.92-19.06,8.37.51-1.85,1.25-3.62,1.85-5.44-5.65,3.61-9.75,10.3-16.85,11.38.97-13.17,13.66-20.84,20.1-30.05.72-3.68-4.08-2.93-4.11-6.08" transform="translate(0 -100.171)" style="fill:#213855"/><path d="M318.451,278.884c.85,3.16-3.47,3.99-5.75,4.58-9.99-2.54.87,9.26-6.38,9.26-5.82-3.3-11.13-10.8-18.47-9.99-4.46,3.81-9.63-5.65-13.21.68-.28,5.88-4.03-2.85-5.44.58-.44,4.16-3.12,4.22-6.03,1.89-.43-.26-1.29-.77-1.71-1.03l-.45-.46a9.91,9.91,0,0,0,5.1-7.3c-3.64-5.22-3.85-11.94-4-17.82" transform="translate(0 -100.171)" style="fill:#1e3f5b"/><path d="M325.191,271.8c-1.04,2.16-.24,8.87-2.94,5.11" transform="translate(0 -100.171)" style="fill:#1e3f5b"/><path d="M393.111,277.864a56.248,56.248,0,0,0-8.72.32c-4.25,2.69,3.36,7.64-.96,10.14-3.85,2.78-3.4-4.58-7.19-4.57-.23-4.49-1.34-7.05-5.17-4.02-2.04,1.32.21-5.86-2.08-2.81-3.9,1.84-1.13,7.65-4.83,9.16-6.88-5.73-15.57-8.15-23.07-12.83a28.2,28.2,0,0,1-10.2-.09c-2.4,4.13-1.12,9.88-4.67,13.18" transform="translate(0 -100.171)" style="fill:#1e3f5b"/><path d="M361.251,264.044c6,3.15,10.05,9.14,16.54,11.39-.07.89-.17,1.77-.28,2.65,4.42-3.61,10.63-.17,15.6-.22" transform="translate(0 -100.171)" style="fill:#1e3f5b"/><path d="M558.431,275.314c10.72-.92,17.57-9.7,26.03-14.89,5.11.21,6.52-4.97,9.99-7.09,2.8-1.72.24,2.37.64,3.75,3.28-.51,5.5-3.23,7.34-5.76a8.453,8.453,0,0,0,6.04-3.01" transform="translate(0 -100.171)" style="fill:#2b445e"/><path d="M608.471,248.314c6.1-2.39,2.1,3.93-1.02,5.07-4.4,2.66-5.26,9.89-11.01,10.02-3.76,1.84-6.43,8.24-11.26,5.62-10,5.77-22.77,7.15-30.33,16.71" transform="translate(0 -100.171)" style="fill:#2b445e"/><path d="M616.291,268.974c17.37-7.41,34.31-16.41,52.85-21.22v22.89c-8.4,2.38-15.95,6.82-23.88,10.34-7.32,4.15-18.24-.64-23.03,7.9,3.66,3.73-2.38,5.99-3.91,9.25-2.33,5.5-8.93,6.31-12.44,10.6-2.66,4.27,5.23-.39,7.34,2.44a18.588,18.588,0,0,1-5.28,4.71,25.43,25.43,0,0,0-4.6,1.56c-11.34-7.78-23.6.83-34.29,5.66.27-4.16,5.22-5.28,8.24-6.93,6.47-2.9,12.07-7.34,17.66-11.63-1.8-1.14-2.9-2.57.24-3.5,8.13-4.4,15.27-10.36,23.67-14.29.39-6.45,3.84-10.2,9.5-12.71a12.794,12.794,0,0,0-10.54,4.56c-3.24-1.5-8.17-2.02-8.8-6.26C612.441,273.534,614.5,271.064,616.291,268.974Z" transform="translate(0 -100.171)" style="fill:#314358"/><path d="M125.981,265.184c10.78,1.16,3.83-1.28,1.53-2.73-.8-2.13,1.63-5.64-2.25-3.86" transform="translate(0 -100.171)" style="fill:#434c5e"/><path d="M166.081,253.934c.03,3.15,4.83,2.4,4.11,6.08-6.44,9.21-19.13,16.88-20.1,30.05,7.1-1.08,11.2-7.77,16.85-11.38-.6,1.82-1.34,3.59-1.85,5.44,6.9-1.45,11.37-10.35,19.06-8.37,4.6-.78,8.66-3.72,11.9-7.02a66.223,66.223,0,0,1,9.8,2.44c-2.32,3.99-16.3,6.04-10.73,12.85-1.31.97-2.57,2.01-3.8,3.08.21-7.25-7.49.58-10.15,1.95-3.28,1.02,3.15,2.79.19,4.11-5.93,2.7-12.89,3.17-18.46,6.59-3.46,1.78-6.23,5.07-10.18,5.71-9.44-1.05-15.18,7.57-22.54,11.78-5.03.21,4.44-6.59,1.11-7.1-7.06,5.03-13.29,11.44-20.24,16.76a11.088,11.088,0,0,1-7.95-1.99c6.32-7.27,9.15-17.03,8.63-26.57-.28-5.97,4.71,5.4,6.84.08,2.78-3.33,2.42.3,1.71,2.75,5.34-1.42,7.85-6.98,12.38-9.75,2.14-1.42-1.34-6.61-1.95-2.53-3.01-1.65-2.35-5.66-4.33-8.08-5.71,5.86-13.1,9.77-18.14,16.32-1.69,2.6-1.87-1.52-3.15-2.16-2.46,1.71-4.68,4.42-8,4.11a25.5,25.5,0,0,1,3.33-8.33c.72-1.11,1.41-2.24,2.21-3.3,8.02-3.05,13.02-11.78,22.29-12.63-5.13-4.48,4.85-.01,5.62-4.86.47-2.22-4.47-2.18-4.56-4.78" transform="translate(0 -100.171)" style="fill:#434c5e"/><path d="M134.971,254.184c3.41,2.69,7.56,3.98,11.61,5.34" transform="translate(0 -100.171)" style="fill:#434c5e"/><path d="M135.191,259.944c2.72,4.92-3.66,1.94-1.99,6.08C136.771,267.224,140.511,259.554,135.191,259.944Z" transform="translate(0 -100.171)" style="fill:#434c5e"/><path d="M49.481,258.874c-3.29.71-9.3,4.06-2.68,3.37,1.74,4.83-4.94,5.85-7.14,2.17-1.5-3.29,1.48-3.72,3.92-4.57" transform="translate(0 -100.171)" style="fill:#5a6780"/><path d="M393.111,277.864c2.43.41,5.05,1.07,7.08-.78,2-2.29,6.3,1.57,6.97-2.13-1.23-4.37-3.75-9.44-6.85-12.3" transform="translate(0 -100.171)" style="fill:#113f61"/><path d="M422.781,275.124c-2.24,3.5-10.54,6.26-7.17,11.29,2.22,5.16,10.01,4.58,12.85,9.61-1.42,1.33-3.7,3.06-5.13.79-2.59-1.68,2.34-7.23-5.07-4.03-2.94-.72-4.59-6.85-8.31-3.95-2.68,2.59-2.29-2.54-4.49-3.24-2.7-2.87-3.66,6.99-5.81,2.03-.37-4.37-4.11-6.58-6.54-9.76" transform="translate(0 -100.171)" style="fill:#113f61"/><path d="M480.6,287.024c-.85-2.06-3.02-8.17-.93,1.4,2.85,7.29,10.13,11.02,16.91,14,1.68,1.35,6.45-.69,7.03,2.54-6.24,7.02-15.54,1.56-23.35,4.16-3.58,1.22-7.81-.64-11.16,1.22-2.62.99-2.6,4.11-3.45,6.35-13.81,6.49-14.43-17.37-27.42-16.08-5.82,1.37-9.6-8.59-3.19-8.89-1.09-2.26-6.93-10.07-6.44-4.44-1.46,5.76-8.46-7.05-3.44-6.28,4.47.1-1.46-4.04-2.38-5.88" transform="translate(0 -100.171)" style="fill:#113f61"/><path d="M443.271,271.964c-3.13,6.52,7.68,6.4,6.98,13.08,4.52-3.4,10.12-1.39,14.04,1.93,5.89,1.52,4.46-7.97-1.77-5.47" transform="translate(0 -100.171)" style="fill:#113f61"/><path d="M135.191,259.944c5.32-.39,1.58,7.28-1.99,6.08C131.531,261.884,137.911,264.864,135.191,259.944Z" transform="translate(0 -100.171)" style="fill:#b4b4ba"/><path d="M57.321,266.734c-3.61.23-10.04-.58-6.96-5.7,2.66.93,5.95,2.98,6.96,5.7" transform="translate(0 -100.171)" style="fill:#3c4e6a"/><path d="M523.1,285.214c-.38,4.86-3.72,8.95-2.77,14.04-3.52,4.31-8.89,5.91-14.3,5.83l-2.42-.12c-.58-3.23-5.35-1.19-7.03-2.54-6.78-2.98-14.06-6.71-16.91-14-2.09-9.57.08-3.46.93-1.4" transform="translate(0 -100.171)" style="fill:#1f4869"/><path d="M557.021,291.9c18.9-9.57,38.46-18.27,59.27-22.93-1.79,2.09-3.85,4.56-7.27,3.37.63,4.24,5.56,4.76,8.8,6.26a12.794,12.794,0,0,1,10.54-4.56c-5.66,2.51-9.11,6.26-9.5,12.71-8.4,3.93-15.54,9.89-23.67,14.29-3.14.93-2.04,2.36-.24,3.5-5.59,4.29-11.19,8.73-17.66,11.63-3.02,1.65-7.97,2.77-8.24,6.93,10.69-4.83,22.95-13.44,34.29-5.66-5.4,2.98-12.01.07-17.8-.02-9.3,4.7-18.66,10.13-29.55,8.36,2.53-3.63,8.64-3.96,10.22-8.88-13.16,2.37-25.24,9.61-38.32,9.97,3.4-2.75,8.04-4.01,10.49-7.87-3.46-3.28-9.54,5.68-10.8-.56-4.23-6.39-13.11,2.12-18.74-1.15a12.212,12.212,0,0,0-10.88.38c-6.02,2.92-13.58-2.66-18.15,3.98-3.26,4.38-8.25-.13-9.73-3.7-5.04-2.21-.39-4.5-.98-7.61,3.35-1.86,7.58,0,11.16-1.22,7.81-2.6,17.11,2.86,23.35-4.16l2.42.12c5.3,3.69.33,4.41-2.09,7.77,4.46-2.33,7.18.1,10.09,2.22,4.29-7.81,13.97-.98,20.14.83,5.44,4.58,12.2-6.03,16.38.6,6.93-1.06,15.52-1.05,22.56-4.61,13.19-6.46,23.9-16.25,37.08-22.77,1.72-.78,3.29-1.82,3.16-3.95-16.04,3.48-28.98,15.99-45.43,17.76,2-4.22,8.31-8.47,4.87-13.58C568.471,283.924,562.491,293.914,557.021,291.9Z" transform="translate(0 -100.171)" style="fill:#233e56"/><path d="M241.081,270.934c7.47,3.19,15.01,6.67,19.93,13.46l.45.46c-7.06-4.2-6,7.63-12.16,6.96-5.55-3.8-12.77-1.02-17.85-6.13-3.96-1.99-2.96,2.19-.73,3.86,3.86,12.15-5.83-3.86-6.08,4.08-2.42,3.8,4.46,3.39,3.21,7.06-1.71,4.49-7.62,12.56-11.72,6.41a14.039,14.039,0,0,0-8.03-7.21c.1,5.29,6.02,8.07,6.86,13.27,7.51,2.62,12.23,8.25,16.17,14.65-2.53,3.86-5.14,1.37-5.59-2.28-5.01-2.87-8.94-9.54-15.35-7.58,2.99-6.09-3.31-7.69-8.09-6.76,3.16,5.8-2.08,12.8,3.48,17.3-.58,7.53,8.25,8.95,9.79,15.37-.75-.02-2.25-.04-3-.06-5.66.57-16.28-2.78-13.65-10.18,1.31-3.6-4.6-5.72-3.11-9.2,4.37-10.8-9.26-19.99-6.49-30.48.83-2.25,1.48-4.55,2.2-6.83,1.23-1.07,2.49-2.11,3.8-3.08,2.49.27,6.45-.47,3.6-3.34,1.63-5.52,12.94-1.28,11.22-8.98,2.94-.84,8.32,1.9,10.88,4.61,2.83,4.61,8.73,4.41,12.82,7.26a21.876,21.876,0,0,0,16.84,3.73c3.38-7.31-6.53-10.83-9.4-16.37" transform="translate(0 -100.171)" style="fill:#11314e"/><path d="M462.521,281.5c6.23-2.5,7.66,6.99,1.77,5.47-3.92-3.32-9.52-5.33-14.04-1.93.7-6.68-10.11-6.56-6.98-13.08" transform="translate(0 -100.171)" style="fill:#274b6a"/><path d="M645.261,280.984c7.93-3.52,15.48-7.96,23.88-10.34V283.9c-11.26-.81-21.18,8.88-31.4,10.43C637.141,289.244,640.811,283.844,645.261,280.984Z" transform="translate(0 -100.171)" style="fill:#0b2d46"/><path d="M322.251,276.914c2.7,3.76,1.9-2.95,2.94-5.11" transform="translate(0 -100.171)" style="fill:#083656"/><path d="M325.191,271.8c4.41,3.7-1.01,9.96,1.03,14.54,3.55-3.3,2.27-9.05,4.67-13.18a28.2,28.2,0,0,0,10.2.09c7.5,4.68,16.19,7.1,23.07,12.83,3.7-1.51.93-7.32,4.83-9.16,2.29-3.05.04,4.13,2.08,2.81,3.83-3.03,4.94-.47,5.17,4.02.1,3.45.63,10.65,5.23,6.87,2.47.46,6.15,2.9,6.06-1.36,4.64-1.89-1.5,9.97,4.57,8.77,4.47.32.49-7.79,4.18-10.11,3.82,2.24,3.26,7.68,5.99,10.98,2.9,3.98-8.55,1.33-2.8,7.68,1.98,6.8,10.98-.44,15.34,1.7,6.22,2.94-6.79,10.47,1.27,11.13.13,4.23-4.17,9.57-6.95,3.56-5.48-3.25,2.62-7.02-1.89-9.04-4.71,5.21-12.39,6.16-17.13.09-1.47,5.6-10.06,1.37-5.25-2.3,3.62-3.4-1.14-5.46-4.26-3.96-.03-3.83-6.67-5.87-2.83-9.23.37-2.12-3.13-4.5-5.37-4.67,1.02,6.69-2.57,14.36,3.03,19.82a36.068,36.068,0,0,1,7.63,15.18c-4.14,2.32-7.01-4.8-11.59-2.58-5.75,1.75.85,6.48,3.51,7.99-.75,2.22-3.38,6.74-5.64,3.55-2.77-1.6-.92-6.1-3.86-7.24-2.13-1.6-4.37.31-6.34,1.15a4.413,4.413,0,0,0-6.05.07c-5.55-2.37-10.03-6.46-13.89-10.99.79,3.38,1.87,6.69,1.93,10.21-9.99.55-20.84-9.22-17.55-19.68,1.72-3.24-4.6-5.98-6.33-3.1-.99,2.84,2.19,4.91,1.92,7.67-.93,4.41-4.06-.99-6.05-2.01.64,10.56,10.6,17.46,17.88,23.3.44,2.91-6.31-.01-6.58,1.15-3.33,1.99,2.42,4.68,1.95,7.56-31.44-1.5-62.94.55-94.35-2.01,5.41-2.57-1.51-5.83-1.87-8.96,3.65-3.44,18.06,9.86,17.46-2.58,1.66-.14,4.96-.4,6.61-.53-1.53-7.66-12.17-10.61-11.08-18.89,8.22-.11,8.6,13.19,17.17,12.11-5.1-4.17-6.96-11.11-12.83-14.4-3.01-1.44-2.89-5.71-6.29-6.78-2.97-.58.93-4.36,2.18-2.13a49.333,49.333,0,0,0,17.7,10.44c1.3,4.24-1.98,2.09-4.2.99,1.63,5.79,8.6,8.54,13.04,11.9,3.26-4.03-.24-8.45-4.9-7.35-4.04,1.36-1.45-4.58-.66-6.64,13.45.11,22.9,12.67,36.85,10.92.42-3.15-3.78-2.93-5.71-4.29.58-3.29-.56-6.85,1.44-9.8-11.3.27-16.37-12.52-15.95-21.95-5.23,3.22-14.54,7.07-17.81-.08,2.91,2.33,5.59,2.27,6.03-1.89,1.41-3.43,5.16,5.3,5.44-.58,3.58-6.33,8.75,3.13,13.21-.68,7.34-.81,12.65,6.69,18.47,9.99,7.25,0-3.61-11.8,6.38-9.26,2.28-.59,6.6-1.42,5.75-4.58" transform="translate(0 -100.171)" style="fill:#083656"/><path d="M13.161,274.024c4.52,1.83,7.6,6.11,4.56,10.61a11.2,11.2,0,0,1-3.3-4.58C13.721,278.074,11.211,276.044,13.161,274.024Z" transform="translate(0 -100.171)" style="fill:#5f6672"/><path d="M393.111,277.864c2.43,3.18,6.17,5.39,6.54,9.76,2.15,4.96,3.11-4.9,5.81-2.03,2.2.7,1.81,5.83,4.49,3.24,3.72-2.9,5.37,3.23,8.31,3.95,7.41-3.2,2.48,2.35,5.07,4.03,1.43,2.27,3.71.54,5.13-.79-2.84-5.03-10.63-4.45-12.85-9.61-3.37-5.03,4.93-7.79,7.17-11.29" transform="translate(0 -100.171)" style="fill:#093a5b"/><path d="M422.781,275.124c.92,1.84,6.85,5.98,2.38,5.88-5.02-.77,1.98,12.04,3.44,6.28-.49-5.63,5.35,2.18,6.44,4.44-6.41.3-2.63,10.26,3.19,8.89,12.99-1.29,13.61,22.57,27.42,16.08.85-2.24.83-5.36,3.45-6.35.59,3.11-4.06,5.4.98,7.61-6.93.06-13.86.67-20.75,1.27-3.32,4.21-1.54,11.47-7.02,13.86-8.24,3.65-17.59,6.79-19.36,16.92-3.7,1.02-5.3-2.39-7.21-4.79a60.036,60.036,0,0,0-7.82-.06c-16.97,1.41-34.03.41-51.02,1.06-10.18-.49-20.36.05-30.53-.3.47-2.88-5.28-5.57-1.95-7.56.27-1.16,7.02,1.76,6.58-1.15-7.28-5.84-17.24-12.74-17.88-23.3,1.99,1.02,5.12,6.42,6.05,2.01.27-2.76-2.91-4.83-1.92-7.67,1.73-2.88,8.05-.14,6.33,3.1-3.29,10.46,7.56,20.23,17.55,19.68-.06-3.52-1.14-6.83-1.93-10.21,3.86,4.53,8.34,8.62,13.89,10.99a4.413,4.413,0,0,1,6.05-.07c1.97-.84,4.21-2.75,6.34-1.15,2.94,1.14,1.09,5.64,3.86,7.24,2.26,3.19,4.89-1.33,5.64-3.55-2.66-1.51-9.26-6.24-3.51-7.99,4.58-2.22,7.45,4.9,11.59,2.58a36.068,36.068,0,0,0-7.63-15.18c-5.6-5.46-2.01-13.13-3.03-19.82,2.24.17,5.74,2.55,5.37,4.67-3.84,3.36,2.8,5.4,2.83,9.23,3.12-1.5,7.88.56,4.26,3.96-4.81,3.67,3.78,7.9,5.25,2.3,4.74,6.07,12.42,5.12,17.13-.09,4.51,2.02-3.59,5.79,1.89,9.04,2.78,6.01,7.08.67,6.95-3.56-8.06-.66,4.95-8.19-1.27-11.13-4.36-2.14-13.36,5.1-15.34-1.7-5.75-6.35,5.7-3.7,2.8-7.68-2.73-3.3-2.17-8.74-5.99-10.98-3.69,2.32.29,10.43-4.18,10.11-6.07,1.2.07-10.66-4.57-8.77.09,4.26-3.59,1.82-6.06,1.36-4.6,3.78-5.13-3.42-5.23-6.87,3.79-.01,3.34,7.35,7.19,4.57,4.32-2.5-3.29-7.45.96-10.14a56.248,56.248,0,0,1,8.72-.32" transform="translate(0 -100.171)" style="fill:#093a5b"/><path d="M108.241,297.134c5.04-6.55,12.43-10.46,18.14-16.32,1.98,2.42,1.32,6.43,4.33,8.08.61-4.08,4.09,1.11,1.95,2.53-4.53,2.77-7.04,8.33-12.38,9.75.71-2.45,1.07-6.08-1.71-2.75-2.13,5.32-7.12-6.05-6.84-.08.52,9.54-2.31,19.3-8.63,26.57-5.43-3.37-11.95-4.32-17.31-7.55-7.81-7.05-18.89-6.95-27.01-13.36,3.18-1.83,6.08-4.73,10.16-4.06-1.53,3.5,1.87,6.19,4.31,8.1,3.14.92,3.99-5.29,6.7-2.82,2.25,1.83,4.1-1.81,5.45-3.26-2.39-2.26-5.84-3.37-5.95-7.24-3,1.1-4.93-2.34-6.87-2.37-5.77,7.37-7-8.98-1.79-10.5.77,4.54,8.71-2.24,10.61,1.86,2.04,2.41.53,9.71,4.71,5.34-2.59,6.31,2.19,2.65,4.87.01,2.41,2.84,6.12,1.69,9.44,1.69a25.5,25.5,0,0,0-3.33,8.33c3.32.31,5.54-2.4,8-4.11C106.371,295.614,106.551,299.734,108.241,297.134Z" transform="translate(0 -100.171)" style="fill:#263447"/><path d="M622.231,288.884c4.79-8.54,15.71-3.75,23.03-7.9-4.45,2.86-8.12,8.26-7.52,13.35,10.22-1.55,20.14-11.24,31.4-10.43v25.76c-7.55,2.4-14.9,5.7-22.83,6.63-4.82,2.6-10.9,5.36-15.81,1.54,1.33-2.37,1.74-5.74-1.34-6.95-3.19,1.16-6.39,6.58-9.74,2.8-2.1-2.72-5.59-.19-6.4,2.37a10.056,10.056,0,0,1-5.08-.17,18.588,18.588,0,0,0,5.28-4.71c-2.11-2.83-10,1.83-7.34-2.44,3.51-4.29,10.11-5.1,12.44-10.6C619.851,294.874,625.891,292.614,622.231,288.884Z" transform="translate(0 -100.171)" style="fill:#233b50"/><path d="M181.171,289.054c2.66-1.37,10.36-9.2,10.15-1.95-.72,2.28-1.37,4.58-2.2,6.83-5.89,6.29-14.29,7.37-22,9.85-.41-3.36.31-5.91-4.22-4.03,5.57-3.42,12.53-3.89,18.46-6.59C184.321,291.844,177.891,290.074,181.171,289.054Z" transform="translate(0 -100.171)" style="fill:#2e3b53"/><path d="M249.3,291.814c6.16.67,5.1-11.16,12.16-6.96.42.26,1.28.77,1.71,1.03,3.27,7.15,12.58,3.3,17.81.08-.42,9.43,4.65,22.22,15.95,21.95-2,2.95-.86,6.51-1.44,9.8,1.93,1.36,6.13,1.14,5.71,4.29-13.95,1.75-23.4-10.81-36.85-10.92-.79,2.06-3.38,8,.66,6.64,4.66-1.1,8.16,3.32,4.9,7.35-4.44-3.36-11.41-6.11-13.04-11.9,2.22,1.1,5.5,3.25,4.2-.99a49.333,49.333,0,0,1-17.7-10.44c-1.25-2.23-5.15,1.55-2.18,2.13,3.4,1.07,3.28,5.34,6.29,6.78,5.87,3.29,7.73,10.23,12.83,14.4-8.57,1.08-8.95-12.22-17.17-12.11-1.09,8.28,9.55,11.23,11.08,18.89-1.65.13-4.95.39-6.61.53.6,12.44-13.81-.86-17.46,2.58.36,3.13,7.28,6.39,1.87,8.96a42.039,42.039,0,0,1-16.65-.05c-1.54-6.42-10.37-7.84-9.79-15.37-5.56-4.5-.32-11.5-3.48-17.3,4.78-.93,11.08.67,8.09,6.76,6.41-1.96,10.34,4.71,15.35,7.58.45,3.65,3.06,6.14,5.59,2.28-3.94-6.4-8.66-12.03-16.17-14.65-.84-5.2-6.76-7.98-6.86-13.27a14.039,14.039,0,0,1,8.03,7.21c4.1,6.15,10.01-1.92,11.72-6.41,1.25-3.67-5.63-3.26-3.21-7.06.25-7.94,9.94,8.07,6.08-4.08-2.23-1.67-3.23-5.85.73-3.86C236.531,290.794,243.751,288.014,249.3,291.814Z" transform="translate(0 -100.171)" style="fill:#062e4e"/><path d="M567.921,302.934c16.45-1.77,29.39-14.28,45.43-17.76.13,2.13-1.44,3.17-3.16,3.95-13.18,6.52-23.89,16.31-37.08,22.77-7.04,3.56-15.63,3.55-22.56,4.61-4.18-6.63-10.94,3.98-16.38-.6-6.17-1.81-15.85-8.64-20.14-.83-2.91-2.12-5.63-4.55-10.09-2.22,2.42-3.36,7.39-4.08,2.09-7.77,5.41.08,10.78-1.52,14.3-5.83,7.11-2.57,14.12-6.47,21.9-6.24,1.01,4.07-3.94,4.15-5.4,6.82a88.574,88.574,0,0,0,17.49-6.29c.9-.54,1.8-1.09,2.7-1.64,5.47,2.01,11.45-7.98,15.77-2.55C576.231,294.464,569.921,298.714,567.921,302.934Z" transform="translate(0 -100.171)" style="fill:#32455b"/><path d="M167.121,303.784c7.71-2.48,16.11-3.56,22-9.85-2.77,10.49,10.86,19.68,6.49,30.48-1.49,3.48,4.42,5.6,3.11,9.2-2.63,7.4,7.99,10.75,13.65,10.18-11.14.57-22.34-.45-33.44.73-12.9-.94-25.51-2.04-38.35-4.01-9.01-1.09-14.84-8.59-23.53-10.27,7.16.17,8.24-9.07,13.13-13,7.36-4.21,13.1-12.83,22.54-11.78,3.95-.64,6.72-3.93,10.18-5.71C167.431,297.874,166.711,300.424,167.121,303.784Z" transform="translate(0 -100.171)" style="fill:#1c3047"/><path d="M111.051,326.9c6.95-5.32,13.18-11.73,20.24-16.76,3.33.51-6.14,7.31-1.11,7.1-4.89,3.93-5.97,13.17-13.13,13C115.091,329.054,113.541,326.934,111.051,326.9Z" transform="translate(0 -100.171)" style="fill:#333c48"/><path d="M646.311,316.294c7.93-.93,15.28-4.23,22.83-6.63v46.28l-6.74.48c-7.55-3.47-16.65,2.78-23.44-2.21-2.79,1.13-6.52,2.48-8.24-.89-11.97.61-24.18.63-36.21.87-.16.44-.47,1.32-.62,1.76-1.49.02-2.96,0-4.43-.03-.73-2.21-3.31-2.31-5.14-3.08a26.74,26.74,0,0,1-4.11-4.73c2.04-2.2,1.6-4.6.17-6.99,2.91-.46,5.79-1.11,8.67-1.77,2.74,2.24-2.87,2.11-4.14,3.47-2.74,1.04-1.03,3.96-.67,5.99,3.64-2.35,7.63-4.97,11.35-1.4-1.05,5.17,5.5,4.17,8.78,2.8,2.67-1.4,7.22,1.02,7.78-3.15-6.7-.92-11.56-5.76-17.31-8.78-3.25-1.21.17-6.85,2.89-4.82,3.28,1.72,6.97,1.02,10.51,1.27-1.72-5.21-9.09-7.55-14.1-5.78-2.86.65-3.27-2.23-2.37-4.22,3.46-3.27,9-1.54,11.99-5.13,2.19-3.62,7.61.04,9.26-3.55.81-2.56,4.3-5.09,6.4-2.37,3.35,3.78,6.55-1.64,9.74-2.8,3.08,1.21,2.67,4.58,1.34,6.95C635.411,321.654,641.491,318.894,646.311,316.294Z" transform="translate(0 -100.171)" style="fill:#0b3247"/><path d="M497.961,317.674a12.212,12.212,0,0,1,10.88-.38c5.63,3.27,14.51-5.24,18.74,1.15,1.26,6.24,7.34-2.72,10.8.56-2.45,3.86-7.09,5.12-10.49,7.87,13.08-.36,25.16-7.6,38.32-9.97-1.58,4.92-7.69,5.25-10.22,8.88,10.89,1.77,20.25-3.66,29.55-8.36,5.79.09,12.4,3,17.8.02a25.43,25.43,0,0,1,4.6-1.56,10.056,10.056,0,0,0,5.08.17c-1.65,3.59-7.07-.07-9.26,3.55-2.99,3.59-8.53,1.86-11.99,5.13-6.66-.42-13.58.46-20.27,1.61-3.93,4.76,4.92-.2,4.65,5.59-4.87,2.73-11.04,2.43-16.1.32-2.67-.19-1.25,3.06-1.06,4.6-6.29-2.57-9.46,5.56-15.96,5.23.64-2.6,2.62-4.52,3.87-6.81-2.51-2.12-8.78-8.49-10.33-3.01-4.77,6.1-9.96-2.57-15.27-.91-5.62-7.76-14.84-4.27-22.47-3.51a18.668,18.668,0,0,1-15.81,1.93c5.51-1.36,8.19-7.57,14.18-7.69C500.311,322.424,498.741,319.224,497.961,317.674Z" transform="translate(0 -100.171)" style="fill:#133852"/><path d="M449.331,319.224c6.89-.6,13.82-1.21,20.75-1.27,1.48,3.57,6.47,8.08,9.73,3.7,4.57-6.64,12.13-1.06,18.15-3.98.78,1.55,2.35,4.75-.76,4.41-5.99.12-8.67,6.33-14.18,7.69a18.668,18.668,0,0,0,15.81-1.93c7.63-.76,16.85-4.25,22.47,3.51,5.31-1.66,10.5,7.01,15.27.91,1.55-5.48,7.82.89,10.33,3.01-1.25,2.29-3.23,4.21-3.87,6.81,6.5.33,9.67-7.8,15.96-5.23-.19-1.54-1.61-4.79,1.06-4.6,5.06,2.11,11.23,2.41,16.1-.32.27-5.79-8.58-.83-4.65-5.59,6.69-1.15,13.61-2.03,20.27-1.61-.9,1.99-.49,4.87,2.37,4.22,5.01-1.77,12.38.57,14.1,5.78-3.54-.25-7.23.45-10.51-1.27-2.72-2.03-6.14,3.61-2.89,4.82,5.75,3.02,10.61,7.86,17.31,8.78-.56,4.17-5.11,1.75-7.78,3.15-3.28,1.37-9.83,2.37-8.78-2.8-3.72-3.57-7.71-.95-11.35,1.4-.36-2.03-2.07-4.95.67-5.99,1.27-1.36,6.88-1.23,4.14-3.47-2.88.66-5.76,1.31-8.67,1.77,1.43,2.39,1.87,4.79-.17,6.99a26.74,26.74,0,0,0,4.11,4.73c-12-.45-24.26-2.18-36.16-.13-26.73-1.59-53.5-1.89-80.31-1.71.26-4.7-4.8-2.42-7.57-1.85-12.34,1.79-24.9.48-37.33.85,1.77-10.13,11.12-13.27,19.36-16.92C447.791,330.694,446.011,323.434,449.331,319.224Z" transform="translate(0 -100.171)" style="fill:#06334d"/><path d="M548.161,352.714c11.9-2.05,24.16-.32,36.16.13,1.83.77,4.41.87,5.14,3.08-14.17.61-28.3-.53-42.45-.95C547.3,354.414,547.881,353.274,548.161,352.714Z" transform="translate(0 -100.171)" style="fill:#2b4958"/><path d="M544.121,354.9a3.6,3.6,0,0,1,4.04-2.19c-.28.56-.86,1.7-1.15,2.26C546.291,354.954,544.841,354.924,544.121,354.9Z" transform="translate(0 -100.171)" style="fill:#1f3f4e"/><path d="M594.511,354.194c12.03-.24,24.24-.26,36.21-.87,1.72,3.37,5.45,2.02,8.24.89,6.79,4.99,15.89-1.26,23.44,2.21-22.79,2.29-45.66-1.24-68.51-.47C594.041,355.514,594.351,354.634,594.511,354.194Z" transform="translate(0 -100.171)" style="fill:#2a4854"/></g><g id="Layer_7" data-name="Layer 7"><path d="M497.79,104.241,669,108.4m-172.3-8.23" transform="translate(0 -100.171)" style="fill:#959ba1"/><path d="M496.7,100.171" transform="translate(0 -100.171)" style="fill:#8f959d"/><path d="M0,123.4" transform="translate(0 -100.171)" style="fill:#a8a3a1"/><path d="M32.01,222.451" transform="translate(0 -100.171)" style="fill:#c5b69d"/><path d="M128.91,224.421" transform="translate(0 -100.171)" style="fill:#e3dac4"/><path d="M250.23,212.571" transform="translate(0 -100.171)" style="fill:#9aafbe"/><path d="M98.09,225.461" transform="translate(0 -100.171)" style="fill:#d7d8cf"/><path d="M665.08,217.331c1.29-.43,2.6-.8,3.92-1.17v30.05c-18.54,4.81-35.48,13.81-52.85,21.22-20.81,4.66-40.37,13.36-59.27,22.93-.9.55-1.8,1.1-2.7,1.64-6.05-2.56,4.4-5.27,5.45-7.74-1.53-5.22,4.73-4.15,7.67-5.52a27.357,27.357,0,0,1,21.37-7.53c4.43-6.54,13.16-8,17.11-14.97,2.28-5,9.92-3.87,11.47-9.47.54-3.34,2.82-5.73,5.71-7.32,1.82,1.68-.07,3.47-.81,5.14,2.06,5.03,1.69,10.54,1.93,15.9,6.47-1.83,2.55-10.7,6.14-14.98,2.4-.57,4.85,4.09,6.64.64,2.98-8.93-2.45-3.3-4.53-1.42,2.96-7.02-1.73-4.26-4.41-4.34.97-4.43,4.22-8.35,1.86-13.11,2.79-2.08,6.37-1.06,9.59-1.77l1.39-.2c-1.41,6.26,4.48,11.84,2.33,18.24,4.11-.63,2.57-9.03,7.76-8.11,1.83-.17.78,2.69,1.41,3.81,2.7-.13,6.99-2.76,4.16,4.51,1.85-3.26,4.59-6.43,4.65-10.36-3.35-.71-4.92,3.27-8.06,3.12-.43-2.41.05-4.53,2.9-4.47.88-3.84-4.79-8.5-.78-11.05A9.136,9.136,0,0,0,665.08,217.331Z" transform="translate(0 -100.171)" style="fill:#113352"/><path d="M640.76,225.311c4.23-2.73,9.1-5.62,14.37-4.31-4.01,2.55,1.66,7.21.78,11.05-2.85-.06-3.33,2.06-2.9,4.47,3.14.15,4.71-3.83,8.06-3.12-.06,3.93-2.8,7.1-4.65,10.36,2.83-7.27-1.46-4.64-4.16-4.51-.63-1.12.42-3.98-1.41-3.81-5.19-.92-3.65,7.48-7.76,8.11C645.24,237.151,639.35,231.571,640.76,225.311Z" transform="translate(0 -100.171)" style="fill:#1e3d5b"/><path d="M272.99,229.6" transform="translate(0 -100.171)" style="fill:#c8cfdc"/><path d="M622.18,228.631c2.51-.54,5.08-.78,7.6-1.35,2.36,4.76-.89,8.68-1.86,13.11,2.68.08,7.37-2.68,4.41,4.34,2.08-1.88,7.51-7.51,4.53,1.42-1.79,3.45-4.24-1.21-6.64-.64-3.59,4.28.33,13.15-6.14,14.98-.24-5.36.13-10.87-1.93-15.9.74-1.67,2.63-3.46.81-5.14-2.89,1.59-5.17,3.98-5.71,7.32-1.55,5.6-9.19,4.47-11.47,9.47-3.95,6.97-12.68,8.43-17.11,14.97a27.357,27.357,0,0,0-21.37,7.53c-2.94,1.37-9.2.3-7.67,5.52-1.05,2.47-11.5,5.18-5.45,7.74a88.574,88.574,0,0,1-17.49,6.29c1.46-2.67,6.41-2.75,5.4-6.82-7.78-.23-14.79,3.67-21.9,6.24-.95-5.09,2.39-9.18,2.77-14.04,4.29,3.24,8-.48,4.24-4.56,3.22,1.2,5.37,6.93,9.18,4.79,2.91-.87,2.35-5.54,5.85-5.66,1.54-.16,2.25-1.63,3.22-2.64a5.664,5.664,0,0,0,5.84-3.66c.9-1.13,1.83-2.24,2.77-3.34q1.5-1.47,3.12-2.82l.67-.54c2.3-1.97,4.8-3.79,7.9-4.17.24-1.37-.94-3.37.78-4.06,4.14,5.37,8.58.29,11.48-3.32,1.64-1.05,3.28-2.12,4.86-3.28,1.68-1.14,3.41-2.23,5.18-3.25a26.877,26.877,0,0,0,3.23-2.32c6.51-1.24,8.94-10.32,17.04-8.1,1.55-.32,3.41-.04,4.7-1.11C615.61,232.721,618.93,230.711,622.18,228.631Zm-13.85,18.14a8.453,8.453,0,0,1-6.04,3.01c-1.84,2.53-4.06,5.25-7.34,5.76-.4-1.38,2.16-5.47-.64-3.75-3.47,2.12-4.88,7.3-9.99,7.09-8.46,5.19-15.31,13.97-26.03,14.89-3.6,4.85-9.3,7.41-13.45,11.64a38.517,38.517,0,0,1,9.87-1.22c7.56-9.56,20.33-10.94,30.33-16.71,4.83,2.62,7.5-3.78,11.26-5.62,5.75-.13,6.61-7.36,11.01-10.02C610.43,250.7,614.43,244.381,608.33,246.771Z" transform="translate(0 -100.171)" style="fill:#1c3b59"/><path d="M0,229.411c5.16-.8,9.32.71,11.74,5.39l.05.97c-3.97-1.1-7.8-2.62-11.79-3.65Z" transform="translate(0 -100.171)" style="fill:#3a4353"/><path d="M24.37,236.131c4.69,1.23,8.93-3.11,11.62-6.03l1.61-.04.15.74c-.61,2.17,2.1,3.05,3.21,4.5-2.8,1.08-10.68-.03-8.15,4.35,3.15,3.71-3.47,2.54-4.8,5.5,3.89-.13,3.03,7.2,7.54,6.06.62-2,3.4-6.02,3.78-1.59-1,3.41-5.13,4.5-7.52,6.84-7.46-3.02-11.34-11.46-18.12-15.95.1-.5.32-1.48.43-1.98,3.88,2.73,9.73,7.98,13.93,3.11-4.64-1.76-9.17-3.76-13.77-5.59-1.13.54-2.65,2.02-2.49-.28l-.05-.97A11.292,11.292,0,0,1,24.37,236.131Z" transform="translate(0 -100.171)" style="fill:#798089"/><path d="M40.96,235.3c-1.11-1.45-3.82-2.33-3.21-4.5a53.905,53.905,0,0,1,5.31,3.8c-2.61,3.11,2.22,1.18,3.95.73,3.34-.57,7.72-1.22,10.04,1.87,5.76-2.37,10.42-1.38,14.8,2.56a15.312,15.312,0,0,1,1.11,5.44c-.27.55-.82,1.63-1.1,2.17-3.65.87-3.78-2.36-2.92-4.94-3.48-.06-1.11,6.1-4.99,6.44-3.84-1.7-.87-5.59,2.34-5.04-2.81-2.68-7.91-6.76-10.88-2.09-3.98-.07-6.52,2.88-9.89,4.41-2.23,1.61-6.1-.36-6.19,3.47-.38-4.43-3.16-.41-3.78,1.59-4.51,1.14-3.65-6.19-7.54-6.06,1.33-2.96,7.95-1.79,4.8-5.5C30.28,235.271,38.16,236.381,40.96,235.3Z" transform="translate(0 -100.171)" style="fill:#5e6978"/><path d="M256.16,231.621" transform="translate(0 -100.171)" style="fill:#555556"/><path d="M0,232.121c3.99,1.03,7.82,2.55,11.79,3.65-.16,2.3,1.36.82,2.49.28,4.6,1.83,9.13,3.83,13.77,5.59-4.2,4.87-10.05-.38-13.93-3.11-.11.5-.33,1.48-.43,1.98-3.62-2.62.08,2.88.53,4.58a46.615,46.615,0,0,0-6.06,1.17c-4.77-1.28-2.85-8.25-8.16-8.19Z" transform="translate(0 -100.171)" style="fill:#5a677b"/><path d="M243.97,233.451" transform="translate(0 -100.171)" style="fill:#ccd0cf"/><path d="M409.68,234.411" transform="translate(0 -100.171)" style="fill:#bfd0db"/><path d="M0,238.071c5.31-.06,3.39,6.91,8.16,8.19.02.6.06,1.79.08,2.39-2.7,2.09-5.48,4.07-8.24,6.08Z" transform="translate(0 -100.171)" style="fill:#3c4d65"/><path d="M0,280.411v-25.68c2.76-2.01,5.54-3.99,8.24-6.08,2.17.02,7.49-.42,5.98-3.56-.45-1.7-4.15-7.2-.53-4.58,6.78,4.49,10.66,12.93,18.12,15.95,2.33.73,5,2.34,6.86-.14.17,2.22-1.58,5.26.85,6.55,2.2,3.68,8.88,2.66,7.14-2.17-6.62.69-.61-2.66,2.68-3.37l1.48-.72c3.11,2.43,6.01,5.12,9.06,7.63,3.81,2.39,8,4.12,11.89,6.4,1.39,3.75,6.08,2.36,9.28,3.02-.78,4.73-7.16,4.21-10.4,6.65-5.21,1.52-3.98,17.87,1.79,10.5,1.94.03,3.87,3.47,6.87,2.37.11,3.87,3.56,4.98,5.95,7.24-1.35,1.45-3.2,5.09-5.45,3.26-2.71-2.47-3.56,3.74-6.7,2.82-2.44-1.91-5.84-4.6-4.31-8.1-4.08-.67-6.98,2.23-10.16,4.06" transform="translate(0 -100.171)" style="fill:#1c2e4a"/><path d="M17.58,283.091c3.04-4.5-.04-8.78-4.56-10.61-1.95,2.02.56,4.05,1.26,6.03" transform="translate(0 -100.171)" style="fill:#1c2e4a"/><path d="M16.3,251.761" transform="translate(0 -100.171)" style="fill:#1c2e4a"/><path d="M50.22,259.491c-3.08,5.12,3.35,5.93,6.96,5.7C56.17,262.471,52.88,260.421,50.22,259.491Z" transform="translate(0 -100.171)" style="fill:#1c2e4a"/><path d="M55.41,241.741c2.97-4.67,8.07-.59,10.88,2.09-3.21-.55-6.18,3.34-2.34,5.04,1.22,1.67,5.37,2.46,4.25,4.84-1-.48-1.99-.99-2.96-1.53-3.91-5.06-17.56-3.85-14.42,4.43l-1.48.72c-2.43-.28-6.68-2.64-5.9.97-2.44.85-5.42,1.28-3.92,4.57-2.43-1.29-.68-4.33-.85-6.55-1.86,2.48-4.53.87-6.86.14,2.39-2.34,6.52-3.43,7.52-6.84.09-3.83,3.96-1.86,6.19-3.47C48.89,244.621,51.43,241.671,55.41,241.741Z" transform="translate(0 -100.171)" style="fill:#334662"/><path d="M63.95,248.871c3.88-.34,1.51-6.5,4.99-6.44-.86,2.58-.73,5.81,2.92,4.94,2.53,6.09,9.96,8.96,16.11,9.51-2.47,5.81,10.63,4.95,3.78,9.3-5.69-1.41-10.79-5.96-15.64-9.48-.44,1.1-.81,2.22-1.22,3.34a10.945,10.945,0,0,0-4.37.5c-1.01-.57-1.99-1.17-2.98-1.77,1.4-1.77,3.5-2.33,5.61-2.79-1.46-1.13-3.29-1.53-4.95-2.27C69.32,251.331,65.17,250.541,63.95,248.871Z" transform="translate(0 -100.171)" style="fill:#777e86"/><path d="M226.16,242.621" transform="translate(0 -100.171)" style="fill:#8bacc9"/><path d="M120.95,248.421c3-1.73,6.24-2.99,9.13-4.91-.09.45-.26,1.35-.35,1.8-3.12,7.17,9.63,3.73,13.33,4.16-.3,4.35-5.05,2.94-8.23,3.17-3.32-1.85-12.97-.89-9.71,4.41,3.88-1.78,1.45,1.73,2.25,3.86,2.3,1.45,9.25,3.89-1.53,2.73.09,2.6,5.03,2.56,4.56,4.78-.77,4.85-10.75.38-5.62,4.86-9.27.85-14.27,9.58-22.29,12.63-.8,1.06-1.49,2.19-2.21,3.3-3.32,0-7.03,1.15-9.44-1.69-2.68,2.64-7.46,6.3-4.87-.01-4.18,4.37-2.67-2.93-4.71-5.34-1.9-4.1-9.84,2.68-10.61-1.86,3.24-2.44,9.62-1.92,10.4-6.65-3.2-.66-7.89.73-9.28-3.02l1.12-.09c4.46-.16,10.4,3.73,13.69.13,2.84-2.5-1.37-2.53-3.24-2.32-.88-3.92-4.39-8.32-8.45-8.32.41-1.12.78-2.24,1.22-3.34,4.85,3.52,9.95,8.07,15.64,9.48,6.85-4.35-6.25-3.49-3.78-9.3,3.95-2.18,2.03-6.05-.15-8.79a1.619,1.619,0,0,1,2.77-1.21c4.05,3.37,9.52,5.51,11.47,10.81,4.91-2.28,9.64-5.02,15-6.17A3.876,3.876,0,0,0,120.95,248.421Z" transform="translate(0 -100.171)" style="fill:#343f54"/><path d="M8.16,246.261a46.615,46.615,0,0,1,6.06-1.17c1.51,3.14-3.81,3.58-5.98,3.56C8.22,248.051,8.18,246.861,8.16,246.261Z" transform="translate(0 -100.171)" style="fill:#9aa1b0"/><path d="M71.86,247.371c.28-.54.83-1.62,1.1-2.17,4.46,3.46,10.14,5.94,14.86,2.89,2.18,2.74,4.1,6.61.15,8.79C81.82,256.331,74.39,253.461,71.86,247.371Z" transform="translate(0 -100.171)" style="fill:#bbb5aa"/><path d="M166.8,252.361c6.84,1.61,11.11-11.33,17.12-4.51,2.61,2.25,6.39,4.99,8.33.54,1.08,2.19.24,4.2-1.08,6.04,3.55,1.11,7.36,1.67,10.6,3.62,2.15,2.14,2.37,4.86,1.39,7.61,1.6-4.25,7.88-5,6.67.68-5.05,3.19-9.25-2.62-13.92.85-3.24,3.3-7.3,6.24-11.9,7.02-7.69-1.98-12.16,6.92-19.06,8.37.51-1.85,1.25-3.62,1.85-5.44-5.65,3.61-9.75,10.3-16.85,11.38.97-13.17,13.66-20.84,20.1-30.05.72-3.68-4.08-2.93-4.11-6.08Z" transform="translate(0 -100.171)" style="fill:#213855"/><path d="M325.35,249.671c2.92-4.35,5.89-.89,9.4-3.23-1.05,4.12.64,3.29,3.59,2.71-4.07,5.29,4.85,2.38,0,0l-.32-.73c2.17.2,5.15-.62,5.85,2.18,4.15,5.76,11.36,8.21,17.24,11.9,6,3.15,10.05,9.14,16.54,11.39-.07.89-.17,1.77-.28,2.65,4.42-3.61,10.63-.17,15.6-.22a56.248,56.248,0,0,0-8.72.32c-4.25,2.69,3.36,7.64-.96,10.14-3.85,2.78-3.4-4.58-7.19-4.57-.23-4.49-1.34-7.05-5.17-4.02-2.04,1.32.21-5.86-2.08-2.81-3.9,1.84-1.13,7.65-4.83,9.16-6.88-5.73-15.57-8.15-23.07-12.83a28.2,28.2,0,0,1-10.2-.09c-2.4,4.13-1.12,9.88-4.67,13.18-2.04-4.58,3.38-10.84-1.03-14.54-1.04,2.16-.24,8.87-2.94,5.11-.98-3.32-4.52-.36-3.8,1.97.85,3.16-3.47,3.99-5.75,4.58-9.99-2.54.87,9.26-6.38,9.26-5.82-3.3-11.13-10.8-18.47-9.99-4.46,3.81-9.63-5.65-13.21.68-.28,5.88-4.03-2.85-5.44.58-.44,4.16-3.12,4.22-6.03,1.89-.43-.26-1.29-.77-1.71-1.03l-.45-.46a9.91,9.91,0,0,0,5.1-7.3c-3.64-5.22-3.85-11.94-4-17.82,1.76,2.58,2.97-.11,5.17.55,2.09.69,5,2.84,6.95,1.36,1.45-3.48,5.38-2.49,7.9-4.69,1.52,1.06,4.34,2.87,5.36.23a32.716,32.716,0,0,0,13.83,2.64c-1.4,1.02-2.92,1.88-4.41,2.76-1.91.56-6.36.01-3.86,2.97,3.5,6.86,14.57.84,16.95,8.22.61,4.39,6.06,5.47,7.9,1.44a13.189,13.189,0,0,1,1.85-10.17c2.62-.43,4.78,1.33,7.16,2.08,2.45-2.25,4.92-4.64,8.46-3.02-.41-2.56-2.15-4.79-1.3-7.48-2.42,2.86-3.33-1.41-5.03,1.7-2.73,4.24-8.07.37-11.43-1.03l1.8-.64c2.01-.23,3.41-1.62,4.59-3.15C324.23,251.041,324.98,250.131,325.35,249.671Zm-45.27,12.08" transform="translate(0 -100.171)" style="fill:#1e3f5b"/><path d="M608.33,246.771c6.1-2.39,2.1,3.93-1.02,5.07-4.4,2.66-5.26,9.89-11.01,10.02-3.76,1.84-6.43,8.24-11.26,5.62-10,5.77-22.77,7.15-30.33,16.71a38.517,38.517,0,0,0-9.87,1.22c4.15-4.23,9.85-6.79,13.45-11.64,10.72-.92,17.57-9.7,26.03-14.89,5.11.21,6.52-4.97,9.99-7.09,2.8-1.72.24,2.37.64,3.75,3.28-.51,5.5-3.23,7.34-5.76A8.453,8.453,0,0,0,608.33,246.771Z" transform="translate(0 -100.171)" style="fill:#2b445e"/><path d="M616.15,267.431c17.37-7.41,34.31-16.41,52.85-21.22V269.1c-8.4,2.38-15.95,6.82-23.88,10.34-7.32,4.15-18.24-.64-23.03,7.9,3.66,3.73-2.38,5.99-3.91,9.25-2.33,5.5-8.93,6.31-12.44,10.6-2.66,4.27,5.23-.39,7.34,2.44a18.588,18.588,0,0,1-5.28,4.71,25.43,25.43,0,0,0-4.6,1.56c-11.34-7.78-23.6.83-34.29,5.66.27-4.16,5.22-5.28,8.24-6.93,6.47-2.9,12.07-7.34,17.66-11.63-1.8-1.14-2.9-2.57.24-3.5,8.13-4.4,15.27-10.36,23.67-14.29.39-6.45,3.84-10.2,9.5-12.71a12.794,12.794,0,0,0-10.54,4.56c-3.24-1.5-8.17-2.02-8.8-6.26C612.3,271.991,614.36,269.521,616.15,267.431Z" transform="translate(0 -100.171)" style="fill:#314358"/><path d="M135.32,247.711" transform="translate(0 -100.171)" style="fill:#645f54"/><path d="M50.82,256.611c-3.14-8.28,10.51-9.49,14.42-4.43-8.7-1.92-6.67,2.17-2.15,4.26,2.46,4.67-.52,5.69-3.21,7.8C56.83,261.731,53.93,259.041,50.82,256.611Z" transform="translate(0 -100.171)" style="fill:#536479"/><path d="M269.1,249.871" transform="translate(0 -100.171)" style="fill:#4f5037"/><path d="M338.34,249.151" transform="translate(0 -100.171)" style="fill:#8faabe"/><path d="M16.3,251.761" transform="translate(0 -100.171)" style="fill:#7589a7"/><path d="M102.96,323.371c6.32-7.27,9.15-17.03,8.63-26.57-.28-5.97,4.71,5.4,6.84.08,2.78-3.33,2.42.3,1.71,2.75,5.34-1.42,7.85-6.98,12.38-9.75,2.14-1.42-1.34-6.61-1.95-2.53-3.01-1.65-2.35-5.66-4.33-8.08-5.71,5.86-13.1,9.77-18.14,16.32-1.69,2.6-1.87-1.52-3.15-2.16-2.46,1.71-4.68,4.42-8,4.11a25.5,25.5,0,0,1,3.33-8.33c.72-1.11,1.41-2.24,2.21-3.3,8.02-3.05,13.02-11.78,22.29-12.63-5.13-4.48,4.85-.01,5.62-4.86.47-2.22-4.47-2.18-4.56-4.78,10.78,1.16,3.83-1.28,1.53-2.73-.8-2.13,1.63-5.64-2.25-3.86-3.26-5.3,6.39-6.26,9.71-4.41,3.41,2.69,7.56,3.98,11.61,5.34.69,4.16,5.28.41,7.68-.29,3.18-1.93,6-4.39,9.02-6.55.94.39,1.87.8,2.8,1.25.03,3.15,4.83,2.4,4.11,6.08-6.44,9.21-19.13,16.88-20.1,30.05,7.1-1.08,11.2-7.77,16.85-11.38-.6,1.82-1.34,3.59-1.85,5.44,6.9-1.45,11.37-10.35,19.06-8.37,4.6-.78,8.66-3.72,11.9-7.02a66.223,66.223,0,0,1,9.8,2.44c-2.32,3.99-16.3,6.04-10.73,12.85-1.31.97-2.57,2.01-3.8,3.08.21-7.25-7.49.58-10.15,1.95-3.28,1.02,3.15,2.79.19,4.11-5.93,2.7-12.89,3.17-18.46,6.59-3.46,1.78-6.23,5.07-10.18,5.71-9.44-1.05-15.18,7.57-22.54,11.78-5.03.21,4.44-6.59,1.11-7.1-7.06,5.03-13.29,11.44-20.24,16.76" transform="translate(0 -100.171)" style="fill:#434c5e"/><path d="M135.05,258.4c2.72,4.92-3.66,1.94-1.99,6.08C136.63,265.681,140.37,258.011,135.05,258.4Z" transform="translate(0 -100.171)" style="fill:#434c5e"/><path d="M142.34,258.671" transform="translate(0 -100.171)" style="fill:#434c5e"/><path d="M63.09,256.441c-4.52-2.09-6.55-6.18,2.15-4.26.97.54,1.96,1.05,2.96,1.53,1.66.74,3.49,1.14,4.95,2.27-2.11.46-4.21,1.02-5.61,2.79l-.85-.17C65.46,257.921,64.27,257.191,63.09,256.441Z" transform="translate(0 -100.171)" style="fill:#c3c1bb"/><path d="M242.79,256.641" transform="translate(0 -100.171)" style="fill:#6d7d96"/><path d="M328.9,256.321c1.7-3.11,2.61,1.16,5.03-1.7-.85,2.69.89,4.92,1.3,7.48-3.54-1.62-6.01.77-8.46,3.02-2.38-.75-4.54-2.51-7.16-2.08-.08-.77-.15-1.54-.22-2.31.58-2.3-5.62-4.63-1.92-5.44C320.83,256.691,326.17,260.561,328.9,256.321Z" transform="translate(0 -100.171)" style="fill:#324e68"/><path d="M43.44,258.3c-.78-3.61,3.47-1.25,5.9-.97-3.29.71-9.3,4.06-2.68,3.37,1.74,4.83-4.94,5.85-7.14,2.17C38.02,259.581,41,259.151,43.44,258.3Z" transform="translate(0 -100.171)" style="fill:#5a6780"/><path d="M63.09,256.441c1.18.75,2.37,1.48,3.6,2.16-2.65,3.58,3.08,6.47,4.57,2.64,4.82,2.5,3.64,4.85-1.5,5.45.55-5.55-6.05.55,0,0a16.167,16.167,0,0,0,3.13,3.86l-1.12.09c-3.89-2.28-8.08-4.01-11.89-6.4C62.57,262.131,65.55,261.111,63.09,256.441Z" transform="translate(0 -100.171)" style="fill:#969593"/><path d="M400.17,261.111c-5.63-.35,1.86-1.6,3.6-3.71,4.31,4.25,10.05,6.26,15.25,9.14,3.69,1.84,7.67,4.33,11.51,5.7.65-6.76,5.94-1.01,9.68-2.73.97.31,1.94.62,2.92.91-3.13,6.52,7.68,6.4,6.98,13.08,4.52-3.4,10.12-1.39,14.04,1.93,5.89,1.52,4.46-7.97-1.77-5.47-3-4.81,6.15-4.25,8.98-4.61.46.36,1.4,1.09,1.86,1.45,1.91,1.91,3.88,3.86,6.73,4.11,3.35.85,3.22,2.82.51,4.57-.85-2.06-3.02-8.17-.93,1.4,2.85,7.29,10.13,11.02,16.91,14,1.68,1.35,6.45-.69,7.03,2.54-6.24,7.02-15.54,1.56-23.35,4.16-3.58,1.22-7.81-.64-11.16,1.22-2.62.99-2.6,4.11-3.45,6.35-13.81,6.49-14.43-17.37-27.42-16.08-5.82,1.37-9.6-8.59-3.19-8.89-1.09-2.26-6.93-10.07-6.44-4.44-1.46,5.76-8.46-7.05-3.44-6.28,4.47.1-1.46-4.04-2.38-5.88-2.24,3.5-10.54,6.26-7.17,11.29,2.22,5.16,10.01,4.58,12.85,9.61-1.42,1.33-3.7,3.06-5.13.79-2.59-1.68,2.34-7.23-5.07-4.03-2.94-.72-4.59-6.85-8.31-3.95-2.68,2.59-2.29-2.54-4.49-3.24-2.7-2.87-3.66,6.99-5.81,2.03-.37-4.37-4.11-6.58-6.54-9.76,2.43.41,5.05,1.07,7.08-.78,2-2.29,6.3,1.57,6.97-2.13C405.79,269.041,403.27,263.971,400.17,261.111Z" transform="translate(0 -100.171)" style="fill:#113f61"/><path d="M66.69,258.6l.85.17c.99.6,1.97,1.2,2.98,1.77l.74.7C69.77,265.071,64.04,262.181,66.69,258.6Z" transform="translate(0 -100.171)" style="fill:#52524b"/><path d="M135.05,258.4c5.32-.39,1.58,7.28-1.99,6.08C131.39,260.341,137.77,263.321,135.05,258.4Z" transform="translate(0 -100.171)" style="fill:#b4b4ba"/><path d="M142.34,258.671" transform="translate(0 -100.171)" style="fill:#8f8b98"/><path d="M419.69,258.651" transform="translate(0 -100.171)" style="fill:#adc0c8"/><path d="M50.22,259.491c2.66.93,5.95,2.98,6.96,5.7C53.57,265.421,47.14,264.611,50.22,259.491Z" transform="translate(0 -100.171)" style="fill:#3c4e6a"/><path d="M70.52,260.541a10.945,10.945,0,0,1,4.37-.5c4.06,0,7.57,4.4,8.45,8.32.45,1.33,2.2,1.55,3.24,2.32-3.29,3.6-9.23-.29-13.69-.13a16.167,16.167,0,0,1-3.13-3.86c5.14-.6,6.32-2.95,1.5-5.45Z" transform="translate(0 -100.171)" style="fill:#d5c8b2"/><path d="M247.16,260.621" transform="translate(0 -100.171)" style="fill:#99aabd"/><path d="M280.08,261.751" transform="translate(0 -100.171)" style="fill:#859fa9"/><path d="M247.17,263.841" transform="translate(0 -100.171)" style="fill:#778aa1"/><path d="M69.76,266.691" transform="translate(0 -100.171)" style="fill:#4f4a47"/><path d="M556.88,290.361c18.9-9.57,38.46-18.27,59.27-22.93-1.79,2.09-3.85,4.56-7.27,3.37.63,4.24,5.56,4.76,8.8,6.26a12.794,12.794,0,0,1,10.54-4.56c-5.66,2.51-9.11,6.26-9.5,12.71-8.4,3.93-15.54,9.89-23.67,14.29-3.14.93-2.04,2.36-.24,3.5-5.59,4.29-11.19,8.73-17.66,11.63-3.02,1.65-7.97,2.77-8.24,6.93,10.69-4.83,22.95-13.44,34.29-5.66-5.4,2.98-12.01.07-17.8-.02-9.3,4.7-18.66,10.13-29.55,8.36,2.53-3.63,8.64-3.96,10.22-8.88-13.16,2.37-25.24,9.61-38.32,9.97,3.4-2.75,8.04-4.01,10.49-7.87-3.46-3.28-9.54,5.68-10.8-.56-4.23-6.39-13.11,2.12-18.74-1.15a12.212,12.212,0,0,0-10.88.38c-6.02,2.92-13.58-2.66-18.15,3.98-3.26,4.38-8.25-.13-9.73-3.7-5.04-2.21-.39-4.5-.98-7.61,3.35-1.86,7.58,0,11.16-1.22,7.81-2.6,17.11,2.86,23.35-4.16l2.42.12c5.3,3.69.33,4.41-2.09,7.77,4.46-2.33,7.18.1,10.09,2.22,4.29-7.81,13.97-.98,20.14.83,5.44,4.58,12.2-6.03,16.38.6,6.93-1.06,15.52-1.05,22.56-4.61,13.19-6.46,23.9-16.25,37.08-22.77,1.72-.78,3.29-1.82,3.16-3.95-16.04,3.48-28.98,15.99-45.43,17.76,2-4.22,8.31-8.47,4.87-13.58C568.33,282.381,562.35,292.371,556.88,290.361Z" transform="translate(0 -100.171)" style="fill:#233e56"/><path d="M83.34,268.361c1.87-.21,6.08-.18,3.24,2.32C85.54,269.911,83.79,269.691,83.34,268.361Z" transform="translate(0 -100.171)" style="fill:#8c8689"/><path d="M212.23,342.251c-5.66.57-16.28-2.78-13.65-10.18,1.31-3.6-4.6-5.72-3.11-9.2,4.37-10.8-9.26-19.99-6.49-30.48.83-2.25,1.48-4.55,2.2-6.83,1.23-1.07,2.49-2.11,3.8-3.08,2.49.27,6.45-.47,3.6-3.34,1.63-5.52,12.94-1.28,11.22-8.98,2.94-.84,8.32,1.9,10.88,4.61,2.83,4.61,8.73,4.41,12.82,7.26a21.876,21.876,0,0,0,16.84,3.73c3.38-7.31-6.53-10.83-9.4-16.37,7.47,3.19,15.01,6.67,19.93,13.46l.45.46c-7.06-4.2-6,7.63-12.16,6.96-5.55-3.8-12.77-1.02-17.85-6.13-3.96-1.99-2.96,2.19-.73,3.86,3.86,12.15-5.83-3.86-6.08,4.08-2.42,3.8,4.46,3.39,3.21,7.06-1.71,4.49-7.62,12.56-11.72,6.41a14.039,14.039,0,0,0-8.03-7.21c.1,5.29,6.02,8.07,6.86,13.27,7.51,2.62,12.23,8.25,16.17,14.65-2.53,3.86-5.14,1.37-5.59-2.28-5.01-2.87-8.94-9.54-15.35-7.58,2.99-6.09-3.31-7.69-8.09-6.76,3.16,5.8-2.08,12.8,3.48,17.3-.58,7.53,8.25,8.95,9.79,15.37" transform="translate(0 -100.171)" style="fill:#11314e"/><path d="M443.13,270.421c2.49-1.94,5.39,2.1,7.01-.94,4.65.48,9.27,1.22,13.86,2.14a12.889,12.889,0,0,0,5.21.3,20.179,20.179,0,0,1,2.15,3.43c-2.83.36-11.98-.2-8.98,4.61,6.23-2.5,7.66,6.99,1.77,5.47-3.92-3.32-9.52-5.33-14.04-1.93C450.81,276.821,440,276.941,443.13,270.421Z" transform="translate(0 -100.171)" style="fill:#274b6a"/><path d="M645.12,279.441c7.93-3.52,15.48-7.96,23.88-10.34v13.26c-11.26-.81-21.18,8.88-31.4,10.43C637,287.7,640.67,282.3,645.12,279.441Z" transform="translate(0 -100.171)" style="fill:#0b2d46"/><path d="M231.88,342.361c5.41-2.57-1.51-5.83-1.87-8.96,3.65-3.44,18.06,9.86,17.46-2.58,1.66-.14,4.96-.4,6.61-.53-1.53-7.66-12.17-10.61-11.08-18.89,8.22-.11,8.6,13.19,17.17,12.11-5.1-4.17-6.96-11.11-12.83-14.4-3.01-1.44-2.89-5.71-6.29-6.78-2.97-.58.93-4.36,2.18-2.13a49.333,49.333,0,0,0,17.7,10.44c1.3,4.24-1.98,2.09-4.2.99,1.63,5.79,8.6,8.54,13.04,11.9,3.26-4.03-.24-8.45-4.9-7.35-4.04,1.36-1.45-4.58-.66-6.64,13.45.11,22.9,12.67,36.85,10.92.42-3.15-3.78-2.93-5.71-4.29.58-3.29-.56-6.85,1.44-9.8-11.3.27-16.37-12.52-15.95-21.95-5.23,3.22-14.54,7.07-17.81-.08,2.91,2.33,5.59,2.27,6.03-1.89,1.41-3.43,5.16,5.3,5.44-.58,3.58-6.33,8.75,3.13,13.21-.68,7.34-.81,12.65,6.69,18.47,9.99,7.25,0-3.61-11.8,6.38-9.26,2.28-.59,6.6-1.42,5.75-4.58-.72-2.33,2.82-5.29,3.8-1.97,2.7,3.76,1.9-2.95,2.94-5.11,4.41,3.7-1.01,9.96,1.03,14.54,3.55-3.3,2.27-9.05,4.67-13.18a28.2,28.2,0,0,0,10.2.09c7.5,4.68,16.19,7.1,23.07,12.83,3.7-1.51.93-7.32,4.83-9.16,2.29-3.05.04,4.13,2.08,2.81,3.83-3.03,4.94-.47,5.17,4.02.1,3.45.63,10.65,5.23,6.87,2.47.46,6.15,2.9,6.06-1.36,4.64-1.89-1.5,9.97,4.57,8.77,4.47.32.49-7.79,4.18-10.11,3.82,2.24,3.26,7.68,5.99,10.98,2.9,3.98-8.55,1.33-2.8,7.68,1.98,6.8,10.98-.44,15.34,1.7,6.22,2.94-6.79,10.47,1.27,11.13.13,4.23-4.17,9.57-6.95,3.56-5.48-3.25,2.62-7.02-1.89-9.04-4.71,5.21-12.39,6.16-17.13.09-1.47,5.6-10.06,1.37-5.25-2.3,3.62-3.4-1.14-5.46-4.26-3.96-.03-3.83-6.67-5.87-2.83-9.23.37-2.12-3.13-4.5-5.37-4.67,1.02,6.69-2.57,14.36,3.03,19.82a36.068,36.068,0,0,1,7.63,15.18c-4.14,2.32-7.01-4.8-11.59-2.58-5.75,1.75.85,6.48,3.51,7.99-.75,2.22-3.38,6.74-5.64,3.55-2.77-1.6-.92-6.1-3.86-7.24-2.13-1.6-4.37.31-6.34,1.15a4.413,4.413,0,0,0-6.05.07c-5.55-2.37-10.03-6.46-13.89-10.99.79,3.38,1.87,6.69,1.93,10.21-9.99.55-20.84-9.22-17.55-19.68,1.72-3.24-4.6-5.98-6.33-3.1-.99,2.84,2.19,4.91,1.92,7.67-.93,4.41-4.06-.99-6.05-2.01.64,10.56,10.6,17.46,17.88,23.3.44,2.91-6.31-.01-6.58,1.15-3.33,1.99,2.42,4.68,1.95,7.56" transform="translate(0 -100.171)" style="fill:#083656"/><path d="M14.28,278.511c-.7-1.98-3.21-4.01-1.26-6.03,4.52,1.83,7.6,6.11,4.56,10.61" transform="translate(0 -100.171)" style="fill:#5f6672"/><path d="M326.23,344.371c.47-2.88-5.28-5.57-1.95-7.56.27-1.16,7.02,1.76,6.58-1.15-7.28-5.84-17.24-12.74-17.88-23.3,1.99,1.02,5.12,6.42,6.05,2.01.27-2.76-2.91-4.83-1.92-7.67,1.73-2.88,8.05-.14,6.33,3.1-3.29,10.46,7.56,20.23,17.55,19.68-.06-3.52-1.14-6.83-1.93-10.21,3.86,4.53,8.34,8.62,13.89,10.99a4.413,4.413,0,0,1,6.05-.07c1.97-.84,4.21-2.75,6.34-1.15,2.94,1.14,1.09,5.64,3.86,7.24,2.26,3.19,4.89-1.33,5.64-3.55-2.66-1.51-9.26-6.24-3.51-7.99,4.58-2.22,7.45,4.9,11.59,2.58a36.068,36.068,0,0,0-7.63-15.18c-5.6-5.46-2.01-13.13-3.03-19.82,2.24.17,5.74,2.55,5.37,4.67-3.84,3.36,2.8,5.4,2.83,9.23,3.12-1.5,7.88.56,4.26,3.96-4.81,3.67,3.78,7.9,5.25,2.3,4.74,6.07,12.42,5.12,17.13-.09,4.51,2.02-3.59,5.79,1.89,9.04,2.78,6.01,7.08.67,6.95-3.56-8.06-.66,4.95-8.19-1.27-11.13-4.36-2.14-13.36,5.1-15.34-1.7-5.75-6.35,5.7-3.7,2.8-7.68-2.73-3.3-2.17-8.74-5.99-10.98-3.69,2.32.29,10.43-4.18,10.11-6.07,1.2.07-10.66-4.57-8.77.09,4.26-3.59,1.82-6.06,1.36-4.6,3.78-5.13-3.42-5.23-6.87,3.79-.01,3.34,7.35,7.19,4.57,4.32-2.5-3.29-7.45.96-10.14a56.248,56.248,0,0,1,8.72-.32c2.43,3.18,6.17,5.39,6.54,9.76,2.15,4.96,3.11-4.9,5.81-2.03,2.2.7,1.81,5.83,4.49,3.24,3.72-2.9,5.37,3.23,8.31,3.95,7.41-3.2,2.48,2.35,5.07,4.03,1.43,2.27,3.71.54,5.13-.79-2.84-5.03-10.63-4.45-12.85-9.61-3.37-5.03,4.93-7.79,7.17-11.29.92,1.84,6.85,5.98,2.38,5.88-5.02-.77,1.98,12.04,3.44,6.28-.49-5.63,5.35,2.18,6.44,4.44-6.41.3-2.63,10.26,3.19,8.89,12.99-1.29,13.61,22.57,27.42,16.08.85-2.24.83-5.36,3.45-6.35.59,3.11-4.06,5.4.98,7.61-6.93.06-13.86.67-20.75,1.27-3.32,4.21-1.54,11.47-7.02,13.86-8.24,3.65-17.59,6.79-19.36,16.92" transform="translate(0 -100.171)" style="fill:#093a5b"/><path d="M58.64,302.461c3.18-1.83,6.08-4.73,10.16-4.06-1.53,3.5,1.87,6.19,4.31,8.1,3.14.92,3.99-5.29,6.7-2.82,2.25,1.83,4.1-1.81,5.45-3.26-2.39-2.26-5.84-3.37-5.95-7.24-3,1.1-4.93-2.34-6.87-2.37-5.77,7.37-7-8.98-1.79-10.5.77,4.54,8.71-2.24,10.61,1.86,2.04,2.41.53,9.71,4.71,5.34-2.59,6.31,2.19,2.65,4.87.01,2.41,2.84,6.12,1.69,9.44,1.69a25.5,25.5,0,0,0-3.33,8.33c3.32.31,5.54-2.4,8-4.11,1.28.64,1.46,4.76,3.15,2.16,5.04-6.55,12.43-10.46,18.14-16.32,1.98,2.42,1.32,6.43,4.33,8.08.61-4.08,4.09,1.11,1.95,2.53-4.53,2.77-7.04,8.33-12.38,9.75.71-2.45,1.07-6.08-1.71-2.75-2.13,5.32-7.12-6.05-6.84-.08.52,9.54-2.31,19.3-8.63,26.57" transform="translate(0 -100.171)" style="fill:#263447"/><path d="M622.09,287.341c4.79-8.54,15.71-3.75,23.03-7.9-4.45,2.86-8.12,8.26-7.52,13.35,10.22-1.55,20.14-11.24,31.4-10.43v25.76c-7.55,2.4-14.9,5.7-22.83,6.63-4.82,2.6-10.9,5.36-15.81,1.54,1.33-2.37,1.74-5.74-1.34-6.95-3.19,1.16-6.39,6.58-9.74,2.8-2.1-2.72-5.59-.19-6.4,2.37a10.056,10.056,0,0,1-5.08-.17,18.588,18.588,0,0,0,5.28-4.71c-2.11-2.83-10,1.83-7.34-2.44,3.51-4.29,10.11-5.1,12.44-10.6C619.71,293.331,625.75,291.071,622.09,287.341Z" transform="translate(0 -100.171)" style="fill:#233b50"/><path d="M181.03,287.511c2.66-1.37,10.36-9.2,10.15-1.95-.72,2.28-1.37,4.58-2.2,6.83-5.89,6.29-14.29,7.37-22,9.85-.41-3.36.31-5.91-4.22-4.03,5.57-3.42,12.53-3.89,18.46-6.59C184.18,290.3,177.75,288.531,181.03,287.511Z" transform="translate(0 -100.171)" style="fill:#2e3b53"/><path d="M215.23,342.311c-1.54-6.42-10.37-7.84-9.79-15.37-5.56-4.5-.32-11.5-3.48-17.3,4.78-.93,11.08.67,8.09,6.76,6.41-1.96,10.34,4.71,15.35,7.58.45,3.65,3.06,6.14,5.59,2.28-3.94-6.4-8.66-12.03-16.17-14.65-.84-5.2-6.76-7.98-6.86-13.27a14.039,14.039,0,0,1,8.03,7.21c4.1,6.15,10.01-1.92,11.72-6.41,1.25-3.67-5.63-3.26-3.21-7.06.25-7.94,9.94,8.07,6.08-4.08-2.23-1.67-3.23-5.85.73-3.86,5.08,5.11,12.3,2.33,17.85,6.13,6.16.67,5.1-11.16,12.16-6.96.42.26,1.28.77,1.71,1.03,3.27,7.15,12.58,3.3,17.81.08-.42,9.43,4.65,22.22,15.95,21.95-2,2.95-.86,6.51-1.44,9.8,1.93,1.36,6.13,1.14,5.71,4.29-13.95,1.75-23.4-10.81-36.85-10.92-.79,2.06-3.38,8,.66,6.64,4.66-1.1,8.16,3.32,4.9,7.35-4.44-3.36-11.41-6.11-13.04-11.9,2.22,1.1,5.5,3.25,4.2-.99a49.333,49.333,0,0,1-17.7-10.44c-1.25-2.23-5.15,1.55-2.18,2.13,3.4,1.07,3.28,5.34,6.29,6.78,5.87,3.29,7.73,10.23,12.83,14.4-8.57,1.08-8.95-12.22-17.17-12.11-1.09,8.28,9.55,11.23,11.08,18.89-1.65.13-4.95.39-6.61.53.6,12.44-13.81-.86-17.46,2.58.36,3.13,7.28,6.39,1.87,8.96" transform="translate(0 -100.171)" style="fill:#062e4e"/><path d="M567.78,301.391c16.45-1.77,29.39-14.28,45.43-17.76.13,2.13-1.44,3.17-3.16,3.95-13.18,6.52-23.89,16.31-37.08,22.77-7.04,3.56-15.63,3.55-22.56,4.61-4.18-6.63-10.94,3.98-16.38-.6-6.17-1.81-15.85-8.64-20.14-.83-2.91-2.12-5.63-4.55-10.09-2.22,2.42-3.36,7.39-4.08,2.09-7.77,5.41.08,10.78-1.52,14.3-5.83,7.11-2.57,14.12-6.47,21.9-6.24,1.01,4.07-3.94,4.15-5.4,6.82A88.574,88.574,0,0,0,554.18,292c.9-.54,1.8-1.09,2.7-1.64,5.47,2.01,11.45-7.98,15.77-2.55C576.09,292.921,569.78,297.171,567.78,301.391Z" transform="translate(0 -100.171)" style="fill:#32455b"/><path d="M116.91,328.7c7.16.17,8.24-9.07,13.13-13,7.36-4.21,13.1-12.83,22.54-11.78,3.95-.64,6.72-3.93,10.18-5.71,4.53-1.88,3.81.67,4.22,4.03,7.71-2.48,16.11-3.56,22-9.85-2.77,10.49,10.86,19.68,6.49,30.48-1.49,3.48,4.42,5.6,3.11,9.2-2.63,7.4,7.99,10.75,13.65,10.18" transform="translate(0 -100.171)" style="fill:#1c3047"/><path d="M110.91,325.361c6.95-5.32,13.18-11.73,20.24-16.76,3.33.51-6.14,7.31-1.11,7.1-4.89,3.93-5.97,13.17-13.13,13" transform="translate(0 -100.171)" style="fill:#333c48"/><path d="M604.23,348.671c2.67-1.4,7.22,1.02,7.78-3.15-6.7-.92-11.56-5.76-17.31-8.78-3.25-1.21.17-6.85,2.89-4.82,3.28,1.72,6.97,1.02,10.51,1.27-1.72-5.21-9.09-7.55-14.1-5.78-2.86.65-3.27-2.23-2.37-4.22,3.46-3.27,9-1.54,11.99-5.13,2.19-3.62,7.61.04,9.26-3.55.81-2.56,4.3-5.09,6.4-2.37,3.35,3.78,6.55-1.64,9.74-2.8,3.08,1.21,2.67,4.58,1.34,6.95,4.91,3.82,10.99,1.06,15.81-1.54,7.93-.93,15.28-4.23,22.83-6.63V354.4" transform="translate(0 -100.171)" style="fill:#0b3247"/><path d="M584.1,347.271c3.64-2.35,7.63-4.97,11.35-1.4" transform="translate(0 -100.171)" style="fill:#0b3247"/><path d="M580.07,346.571c2.04-2.2,1.6-4.6.17-6.99,2.91-.46,5.79-1.11,8.67-1.77,2.74,2.24-2.87,2.11-4.14,3.47" transform="translate(0 -100.171)" style="fill:#0b3247"/><path d="M497.82,316.131a12.212,12.212,0,0,1,10.88-.38c5.63,3.27,14.51-5.24,18.74,1.15,1.26,6.24,7.34-2.72,10.8.56-2.45,3.86-7.09,5.12-10.49,7.87,13.08-.36,25.16-7.6,38.32-9.97-1.58,4.92-7.69,5.25-10.22,8.88,10.89,1.77,20.25-3.66,29.55-8.36,5.79.09,12.4,3,17.8.02a25.43,25.43,0,0,1,4.6-1.56,10.056,10.056,0,0,0,5.08.17c-1.65,3.59-7.07-.07-9.26,3.55-2.99,3.59-8.53,1.86-11.99,5.13-6.66-.42-13.58.46-20.27,1.61-3.93,4.76,4.92-.2,4.65,5.59-4.87,2.73-11.04,2.43-16.1.32-2.67-.19-1.25,3.06-1.06,4.6-6.29-2.57-9.46,5.56-15.96,5.23.64-2.6,2.62-4.52,3.87-6.81-2.51-2.12-8.78-8.49-10.33-3.01-4.77,6.1-9.96-2.57-15.27-.91-5.62-7.76-14.84-4.27-22.47-3.51a18.668,18.668,0,0,1-15.81,1.93c5.51-1.36,8.19-7.57,14.18-7.69C500.17,320.881,498.6,317.681,497.82,316.131Z" transform="translate(0 -100.171)" style="fill:#133852"/><path d="M422.81,348.461c1.77-10.13,11.12-13.27,19.36-16.92,5.48-2.39,3.7-9.65,7.02-13.86,6.89-.6,13.82-1.21,20.75-1.27,1.48,3.57,6.47,8.08,9.73,3.7,4.57-6.64,12.13-1.06,18.15-3.98.78,1.55,2.35,4.75-.76,4.41-5.99.12-8.67,6.33-14.18,7.69a18.668,18.668,0,0,0,15.81-1.93c7.63-.76,16.85-4.25,22.47,3.51,5.31-1.66,10.5,7.01,15.27.91,1.55-5.48,7.82.89,10.33,3.01-1.25,2.29-3.23,4.21-3.87,6.81,6.5.33,9.67-7.8,15.96-5.23-.19-1.54-1.61-4.79,1.06-4.6,5.06,2.11,11.23,2.41,16.1-.32.27-5.79-8.58-.83-4.65-5.59,6.69-1.15,13.61-2.03,20.27-1.61-.9,1.99-.49,4.87,2.37,4.22,5.01-1.77,12.38.57,14.1,5.78-3.54-.25-7.23.45-10.51-1.27-2.72-2.03-6.14,3.61-2.89,4.82,5.75,3.02,10.61,7.86,17.31,8.78-.56,4.17-5.11,1.75-7.78,3.15" transform="translate(0 -100.171)" style="fill:#06334d"/><path d="M584.1,347.271c-.36-2.03-2.07-4.95.67-5.99,1.27-1.36,6.88-1.23,4.14-3.47-2.88.66-5.76,1.31-8.67,1.77,1.43,2.39,1.87,4.79-.17,6.99" transform="translate(0 -100.171)" style="fill:#06334d"/><path d="M595.45,345.871c-3.72-3.57-7.71-.95-11.35,1.4" transform="translate(0 -100.171)" style="fill:#06334d"/></g></svg>