<svg id="save" xmlns="http://www.w3.org/2000/svg" viewBox="0 0 669 230.17"><path d="M641,226.713" transform="translate(-0.099 1.681)" style="fill:#113352"/><path d="M669.24,217.563" transform="translate(-0.099 1.681)" style="fill:#113352"/><path d="M641,226.713" transform="translate(-0.099 1.681)" style="fill:#1e3d5b"/><path d="M.1-1.681h41.59c.43,6.17,7.87,6.11,12.43,5.97-6.04.52-13.22,6.52-18.62,1.57-3.67-4.3-9.1-1-13.76-2.14-3.92-1.63-5.85,3.61-9.55,3.68C8.469,3.949,3.659,2.559.1-1.071Z" transform="translate(-0.099 1.681)" style="fill:#4d5f82"/><path d="M41.689-1.681H279a4.45,4.45,0,0,1,1.31,4.88c-4.91-.65-7.76,3.92-11.95,5.42-17.06.75-34.71,1.92-51.26-3.23-13.24-4.61-28.98,8.47-40.2-3.94-10.68,5.37-22.31-1.52-33.66.62-6.34-2.55-12.99-1.18-19.38.46-9.02.59-18.92-.42-27.54.99-6.76,4.66-15.44,4.54-23.29,5.83.83-2.74,5.56-9.33-2.46-5.47-5.28,2.69-10.38-1.34-15.62.18l-.83.23C49.559,4.429,42.119,4.489,41.689-1.681Z" transform="translate(-0.099 1.681)" style="fill:#264875"/><path d="M279-1.681h27.65c17.28,4.46,35.39,4.49,52.88,7.39,4.01.11,5.27,4.92,9.23,4.96a29.508,29.508,0,0,1,11.6,3.76c-5.88,5.69-15.52,2.57-22.67,3.45-7.37,4.69-3.95-9.27-11.56-4.38-8.39.62-16.84-.42-25.2.39-6.74,1.52-13.7,1.35-20.51,2.38-.04-7.98-10.13-6.99-15.71-6.1-2.57.71-5.68,3.18-7.79.3,1.8-2.1,3.57-4.31,3.39-7.27A4.45,4.45,0,0,0,279-1.681Z" transform="translate(-0.099 1.681)" style="fill:#2e517f"/><path d="M306.649-1.681h46.92c13.42,3.53,29.17,5.5,40.61,13.83-13.09,8.62-29.78,10.6-44.9,6.96-4.94-4.75-11.81-1.37-17.86-2.35-2.91.48.34,2.95,1.35,3.94,2.91,2.12-2.36,4.53-4.42,3.6,2.28-6.14-3.68-7.91-7.42-10.41,8.36-.81,16.81.23,25.2-.39,7.61-4.89,4.19,9.07,11.56,4.38,7.15-.88,16.79,2.24,22.67-3.45a29.508,29.508,0,0,0-11.6-3.76c-3.96-.04-5.22-4.85-9.23-4.96C342.039,2.809,323.929,2.779,306.649-1.681Z" transform="translate(-0.099 1.681)" style="fill:#3f5f8a"/><path d="M353.569-1.681h53.59c-2.4,3.15,1.42,5.12,1.96,7.91-10.74,19.95-36.72,12.33-54.99,16.13-14.89,1.64-31.34,10.4-45.38,1.03,2.16-4.05,9.82-2.27,9.36-7.08-8.22,1.01-16.37,3.91-24.72,2.77-3.79-1.9-5.18-6.5-8.68-8.91,5.58-.89,15.67-1.88,15.71,6.1,6.81-1.03,13.77-.86,20.51-2.38,3.74,2.5,9.7,4.27,7.42,10.41,2.06.93,7.33-1.48,4.42-3.6-1.01-.99-4.26-3.46-1.35-3.94,6.05.98,12.92-2.4,17.86,2.35,15.12,3.64,31.81,1.66,44.9-6.96C382.739,3.819,366.989,1.849,353.569-1.681Z" transform="translate(-0.099 1.681)" style="fill:#516c92"/><path d="M407.159-1.681h5.4c8.47,6.38,21.55-.14,29.89,7.61,4.95,5.03,12.59,1.86,18.27,4.73,1.18,2.96,2.48,6.1,5.74,7.28,7.31,1.81,11.94,9.98,20.43,8.07,6.86-3.1,14.63-1.92,21.08-6.44,2.84,5.13,10.11,3.27,12.32,7.7,2.24-.26,3.27-3.31,4.92-4.78,8.71-3.93,18.15,1.2,27.04,2.08a34.125,34.125,0,0,0-10.38,7.67c-1.73,1.19-3.65,2.28-5.83,2.13-.8-3.27,6.42-7.24.96-8.96-10.41-6.24-17.57,12.82-26.94,3.96-3.96.1-1.62-7.6-6.3-4.42-3.42,4.56-8.56,1.41-12.67,4.36-3.45,2.55-6.59-1.8-10.12-1.89-6.9,2.17-8.1-5.96-13.44-7.63-5.5-3.07-12.85-5.89-18.55-2.69-.38,4.03-5.55,4.37-5.76.1-.59-4.02-4.14-3.98-7.24-2.82l-4.36-.09c-6.36-2.31-12.69-9.48-19.53-3.97a45.684,45.684,0,0,1-17.17,11.72c-.4.02-1.21.08-1.62.11-30.73-4.09-59.96,11.62-90.66,7.83-7.99,3.42-7.51-5.42-12.47-7.74-4.04-1.96-3.58-7.6-7.15-9.98-3.39,1.44-6.95,2.95-10.31.51-5.49-3.48-12.54,1.74-17.74-1.61,4.49-.57,9.21-.56,13.39-2.54,4.19-1.5,7.04-6.07,11.95-5.42.18,2.96-1.59,5.17-3.39,7.27,2.11,2.88,5.22.41,7.79-.3,3.5,2.41,4.89,7.01,8.68,8.91,8.35,1.14,16.5-1.76,24.72-2.77.46,4.81-7.2,3.03-9.36,7.08,14.04,9.37,30.49.61,45.38-1.03,18.27-3.8,44.25,3.82,54.99-16.13C408.579,3.439,404.759,1.469,407.159-1.681Z" transform="translate(-0.099 1.681)" style="fill:#687d99"/><path d="M412.559-1.681h54.93a68.966,68.966,0,0,0-3.45,6.09c5.44,6.57,13.62,10.36,20.31,15.57,13.98.16,27.69-2.29,40.86,2.51-1.65,1.47-2.68,4.52-4.92,4.78-2.21-4.43-9.48-2.57-12.32-7.7-6.45,4.52-14.22,3.34-21.08,6.44-8.49,1.91-13.12-6.26-20.43-8.07-3.26-1.18-4.56-4.32-5.74-7.28-5.68-2.87-13.32.3-18.27-4.73C434.109-1.821,421.029,4.7,412.559-1.681Z" transform="translate(-0.099 1.681)" style="fill:#556c8f"/><path d="M467.489-1.681h12.16c-1.96,1.87-6.51,2.21-5.51,5.77,6.48,2.8,9.23,8.9,17.6,7.55,2.7,5.48,8.99,5.09,14.34,4.77,15.1,2.44,27.76-8.67,41.43-11.52,2.31.29,2.04,3.11-.47,3.37-5.14,2.51-8.42,7.31-13.28,10.18,1.6,1.95,3.81,1.26,5.82.53,4.22-1.95,7.44,1.36,10.02,4.03,5.01.03,9.67-1.99,14.56-2.77-.3.5-.9,1.49-1.2,1.98a41.48,41.48,0,0,1-10.71,2.36c-8.89-.88-18.33-6.01-27.04-2.08-13.17-4.8-26.88-2.35-40.86-2.51-6.69-5.21-14.87-9-20.31-15.57A68.966,68.966,0,0,1,467.489-1.681Z" transform="translate(-0.099 1.681)" style="fill:#415e85"/><path d="M479.649-1.681h61.92c18.31,9.53,41.11,2.63,61,5.42,11.15,3.48,25.19,1.76,34.72,8.57-9.54,7.5-24.33,4.87-36.01,7.81-1.29-8.37-12.5-4.21-17.21-.86-4.53,5.4-8.5-1.47-13.11-1.99-2.65-.3-4.69,1.69-6.8,2.96-4.89.78-9.55,2.8-14.56,2.77-2.58-2.67-5.8-5.98-10.02-4.03-2.01.73-4.22,1.42-5.82-.53,4.86-2.87,8.14-7.67,13.28-10.18,2.51-.26,2.78-3.08.47-3.37-13.67,2.85-26.33,13.96-41.43,11.52-5.35.32-11.64.71-14.34-4.77-8.37,1.35-11.12-4.75-17.6-7.55C473.139.529,477.689.189,479.649-1.681Z" transform="translate(-0.099 1.681)" style="fill:#33527b"/><path d="M541.569-1.681h25.01c4.41,3.46,10.45.76,15.52,1.83,21.39,1.42,43.67,2.09,63.69,10.51,3.61,2.36-.94,3.76-3.93,3.51a15.572,15.572,0,0,0-5.61,2.17c-9.85,2.51-19.77,4.85-29.35,8.27-2.66-.88-5.35-2.13-8.22-1.85-5.34,3.28-6.56-5.23-11.42-2.5-3.98.04-6.42,3.89-9.95,4.96-2.31-2.5-4.24-5.3-6.35-7.95,4.61.52,8.58,7.39,13.11,1.99,4.71-3.35,15.92-7.51,17.21.86,11.68-2.94,26.47-.31,36.01-7.81-9.53-6.81-23.57-5.09-34.72-8.57C582.679.949,559.879,7.849,541.569-1.681Z" transform="translate(-0.099 1.681)" style="fill:#455f82"/><path d="M566.579-1.681h36.07c13.26,3.46,28.66-.43,40.17,8.21,3,.73,11.26,1.9,8.51,7.02a65.4,65.4,0,0,1-9.47.62c2.99.25,7.54-1.15,3.93-3.51-20.02-8.42-42.3-9.09-63.69-10.51C577.029-.921,570.989,1.779,566.579-1.681Z" transform="translate(-0.099 1.681)" style="fill:#586b89"/><path d="M602.649-1.681h40.08c.1,8.65,11.39,5.02,15.21,11.13,3.69,3.85-4.28,3.26-6.61,4.1,2.75-5.12-5.51-6.29-8.51-7.02C631.309-2.111,615.909,1.779,602.649-1.681Z" transform="translate(-0.099 1.681)" style="fill:#6d7b92"/><path d="M642.729-1.681H669.1v5.47c-3.54,2.68-1.83,8.63-6.42,10.14-8.54.87-17.91.63-25.29,5.68-2.1,2.33-4.05,4.91-7.27,5.78-3.97,2.81-7.89-3.74-11.98-1.22-8.62.32-11.88,8.59-19.58,10.58-7.55,4.59-6.06-9.65-13.39-6.18-4.97-.3-8.77,3.45-12.77,5.74-.8-3.68-6.23-4.67-4.93-8.63.65-1.84-1.61-2.73-2.58-3.88,5.16-1.31,6.99,7.17,12.09,6.54,3.71-2.28,6.8-5.44,10.28-8.08,4.86-2.73,6.08,5.78,11.42,2.5,2.87-.28,5.56.97,8.22,1.85,9.19-1.78,21.89-1.28,29.35-8.27a15.572,15.572,0,0,1,5.61-2.17,65.4,65.4,0,0,0,9.47-.62c2.33-.84,10.3-.25,6.61-4.1C654.119,3.339,642.829,6.969,642.729-1.681Z" transform="translate(-0.099 1.681)" style="fill:#89919d"/><path d="M.1-1.071c3.56,3.63,8.37,5.02,12.09,8.47,3.7-.07,5.63-5.31,9.55-3.68,4.66,1.14,10.09-2.16,13.76,2.14,5.4,4.95,12.58-1.05,18.62-1.57l.83-.23c7.99-.46,12.23,6.88,19.4,6.38-3.92,3.25-9.18,2.43-13.79,3.83-4.57-4.71-10.73,4.62-16.51.02-5.81-2.74-7.35,4.53-11.59,6.4-10.86.86-21.66-.28-32.36,1.77Z" transform="translate(-0.099 1.681)" style="fill:#798197"/><path d="M123.859,2.529c6.39-1.64,13.04-3.01,19.38-.46,11.35-2.14,22.98,4.75,33.66-.62,11.22,12.41,26.96-.67,40.2,3.94,16.55,5.15,34.2,3.98,51.26,3.23-4.18,1.98-8.9,1.97-13.39,2.54a26.38,26.38,0,0,0-6.82-.84c-17.2,3.65-33.59-6.29-50.33-2.36-9.6,2.72-18.89-.8-28.44-.5-12.09-4.39-24.69-4.26-37.33-3.31C128.869,5.709,126.349,3.9,123.859,2.529Z" transform="translate(-0.099 1.681)" style="fill:#3f5c84"/><path d="M96.319,3.519c8.62-1.41,18.52-.4,27.54-.99,2.49,1.37,5.01,3.18,8.19,1.62,12.64-.95,25.24-1.08,37.33,3.31-4.65.67-9.56.53-13.87-1.47-8.24-1.88-16.28,2-24.27,3.06-11.23-2.17-22.24,2.03-33.47.7-5.17.08-10.26-.29-14.92,2.51-3.06.4-5.43-2.28-8.5-1.82-7.17.5-11.41-6.84-19.4-6.38,5.24-1.52,10.34,2.51,15.62-.18,8.02-3.86,3.29,2.73,2.46,5.47C80.879,8.059,89.559,8.179,96.319,3.519Z" transform="translate(-0.099 1.681)" style="fill:#546a8e"/><path d="M662.679,13.929c4.59-1.51,2.88-7.46,6.42-10.14v12.44c-9.15-3.73-14.36,7.81-22.89,4.18-6.49,4.05-18.62,6.27-17.08,15.7,13.24,2.18,26.7,3.75,39.97,3.1v30.3c-4.95.81-7.98-2.22-8.24-6.89-12.46-5.52-26.52.86-39.61-1.92-14.69.44-29.42.74-43.94-1.75-7.81,2.84-13.52-2.09-20.09-4.62-5.96,5.42-14.26,5.43-21.24,8.81-3.86,1.53-11.65-.27-8.8,6.9,2.17,2.77,6.01-.13,8.94.25.3,8.57-12.95,6.21-17.94,3.18a56.634,56.634,0,0,1-31.61,3.3c-4.13-3.51-8.4.81-11.1,3.94-7.83,8.07-19.25,9.24-29.93,9.12-3.24.45-8.2,1.03-6.98,6.06-.56,2.9-6.07,1.97-5.38,5.23,6.12,1.1,12.78,2.03,16.56,7.57,8.04,4.73,18.2,3.7,27.13,4.88,4.75,4.38,11.79,1.7,17.23,4.65,8.23-2.53,16.68-.85,25.03-.07,12.93-.82,26.2-.81,38.93,1.85,2.14-.73,4.11-2.41,6.49-2.14,9.23,1.34,18.29-1.97,27.53-1.51,13.27-.7,27.24.66,39.92-4.13,8.88-2.85,18.31-1.98,27.38-3.55,3.19-.19,6.49-.33,9.72-.41v13.15c-9.63,1.3-19.63.48-28.96,3.57-4.89-3.34-10.57.81-15.91-.14-18.26.15-36.79-3.22-54.72,1.77a189.91,189.91,0,0,1-38.29-.15c-18.88,6.7-39.59,2.41-58.74,9.3-16.14,4.13-33-.75-49.38,1.61-7.46,1.44-13.55-3.5-20.11-5.92-1.45-6.45-8.6-3.46-12.27-7.77-18.75-2.45-37.71-2.19-56.55-3.46-4.08-.27.74-8.37-4.52-6.47-5.18,3.73-7.84-2.71-12.37-1.59,6.34-6.58-2.05-14.29-8.25-16.78-8-1.55-17.73-2.61-24.88,2.17-1.44,7.95,8.43,9.9,13.9,12.88-2.65,5.84-8.9,7.99-14.99,7.84-24.33,3.99-48.52,2.72-72.96,5.08v-3.94c14.97-1.17,30.06-1.71,44.88-4.23,5.2-.83,6.71-7.11,6.88-11.04,5-.08,9.87.04,11.24-6.03,12.28-9.3,29.19-7.89,43.55-4.44.99,4.25,4.22,7.06,7.78,9.37,15.42.99,31.01-1,46.04-4.23,13.78-.55,30.01,2.64,41.71-6.38,7.89,1.17,17.03,5.34,23.55-1.48,7.51-7.39,23.97,1.28,28.44-9.6-4.96-4.2,4.59-7.38-1-11.12-7.22-3.62-19.48,4.03-24.67-4.36-.04-11.18-1.5,1.89-6.15-.13-11.49-4.65-23.09,7.65-34.29,2.01-5.2.33-15.46,2.72-13.04-6.47-.79-5.9,7.33-5.58,10.95-6.19,6.69-.4,11.73-10.08,18.54-5.19,5.34,5.55,14.74,1.21,19.45,8.49,5.23,1.32,10.16,6.39,15.66,3.68a57.132,57.132,0,0,0,14.51-4.64,45.156,45.156,0,0,1,22.42-.73c4.43,2.78,6.89-3.94,11.12-1.79,6.7,4.97,15.4,2.14,22.9,4.83,3.47,2.97,15.02-.94,7.82-4.75-4.07-2.87,2.75-2.95,2.86-5.63-16.29-5.84-33.85,4.07-50.02-2.26-9.21,1.14-18.48,1.64-27.59-1.26-2.76-1.58-11.6.3-10.44-5.15,5.71-1.18,13.92-3.71,13.33-10.96.64-4.11,3.66-11.88-3.62-10.73,5.57-5.71,7.63,4.07,12.07,5.45,3.08.91,6.07,3.38,6.12,6.81-2.43,8.15-17.64,3.72-18.05,11.91,20.98,4.17,42.34,2.22,63.53,2.77,8.9-5,18.64,5.05,26.58-1.57,3.49-3.02,3.18,5.12,6.61,5.23,3.97.67,8.19,3.75,12.24,1.6,9.44-2.88,17.87,9.17,27.16,3.27,11.6-4.98,30.35-2.56,34.05-17.91-4.29.94-7.97-1.2-11.88-2.04-1.9,1.7-3.48,6.67-6.58,4.14-2.31-2.95,2.06-6.1,4.71-6.83,4.37-.39,6.12-4.74,8.67-7.66,4.09-2.52,8.01,4.03,11.98,1.22,3.22-.87,5.17-3.45,7.27-5.78C644.769,14.559,654.139,14.8,662.679,13.929Zm-243.17,90.9c-6.9.66-13.74,3.75-20.71,1.79-5.02-1.34-10.87.19-13.53,4.86-1.25,2.28-1.45-3.15-3.78-.77-3.07,3.8-9.27.87-11.43,5.43a161.858,161.858,0,0,0,41.94,3.28c5.65.26,7.14,9.54,13.24,7.21,3.22-.07,11.34-3.81,10.62,2,16.4,10.96,38.09-.02,57.11.42,7.94-3.74,18.23-2.65,25.08-6.67-15.48-2.98-31.47-.26-46.83-3.82-2.56,1-5.53,1.28-6.62-1.79-7.21-1.22-13.46-4.05-20.17-6.81C438.569,101.929,427.959,104.089,419.509,104.829Z" transform="translate(-0.099 1.681)" style="fill:#a5a7a8"/><path d="M131.239,9.049c7.99-1.06,16.03-4.94,24.27-3.06,4.31,2,9.22,2.14,13.87,1.47,9.55-.3,18.84,3.22,28.44.5,15,.48,29.26,6.35,44.19,9.35,3.71-.54,3.58-5.01,6.14-6.99a26.38,26.38,0,0,1,6.82.84c5.2,3.35,12.25-1.87,17.74,1.61,3.36,2.44,6.92.93,10.31-.51,3.57,2.38,3.11,8.02,7.15,9.98,4.96,2.32,4.48,11.16,12.47,7.74,30.7,3.79,59.93-11.92,90.66-7.83-16.13,1.25-32.5,1.92-47.94,7.36-15.8,3.3-32.19,3.4-48.27,3.84-4.77-.18-10.54-.03-13.78-4.22-3.08-3.68-8.29-1.13-12.17-2.8,1.47-2.84,3.72-5.2,5.09-8.1-4.05,1.32-6.42,3.1-3.36-1.89-9.24.19-20.19-4.16-27.78,2.91-3.97,1.34-11,4.54-13.14-.8-3.05-6.48-11.33,5.48-14.96.06-1.91-6.66-10.24-7.16-15.91-8.13-5.07-.07-10.57-2.11-15.24.72-17.63.67-35.59-3.86-52.97-.15-16.71-1.77-33.37.84-50.02,1.31,4.66-2.8,9.75-2.43,14.92-2.51C109,11.079,120.009,6.879,131.239,9.049Z" transform="translate(-0.099 1.681)" style="fill:#7a8ba0"/><path d="M197.819,7.959c16.74-3.93,33.13,6.01,50.33,2.36-2.56,1.98-2.43,6.45-6.14,6.99C227.079,14.309,212.819,8.439,197.819,7.959Z" transform="translate(-0.099 1.681)" style="fill:#607797"/><path d="M412.089,10.319c6.84-5.51,13.17,1.66,19.53,3.97-2.08,2.21-5.2,2.53-8.01,3.08-2.29-1.94-5.63-3.1-7.92-.47-5.4,5.63-13.63,4.42-20.77,5.14A45.684,45.684,0,0,0,412.089,10.319Z" transform="translate(-0.099 1.681)" style="fill:#7d8da1"/><path d="M132.869,10.949c17.38-3.71,35.34.82,52.97.15,7,1.64,15.31.08,21.58,4.09-4.32,6.4-13.05,1.68-18.21,6.37-1.04,7.11,8.63,5.89,12.89,3.8,5.94,2.33,13.52,1.88,17.92,7.06,1.52,2.04,3.97.08,5.84-.3,5.07-1.82,9.94.81,14.91,1.55,9.59,2.31,19.68-4.16,29.09-.2,14.72,6.6,30.88,1.36,46.23,4.67,9.58.5,18.58-6.49,28.01-2.14a80.426,80.426,0,0,0,20.44-7.19c13.94-2.51,28.17-6.83,42.6-4.57,5.57-.49,8.88-8.27,15.02-6.59-6.52,3.57-13.41,8.38-12.94,16.69,5.9,9.86,20.06-1.41,25.96,7.92-12.94,1.26-27.53,3.93-39.52-2.56-6.09-3.07-9.91,3.72-15.73,3.09-5.04-.89-10.45-.68-14.87-3.49-6.48,1.87-12.59,5.86-19.62,4.66-5.54.38-10.84-2.49-16.35-.66-5.14.89-9.22,4.89-14.77,4.24-10.87-.72-22.02,5.87-32.58,1.16-6.22-2.14-12.97.22-19.37-1.15-3.97,9.88-16.84,6.41-25.17,6.68-6.18-1.52-2.33-11.03-8.42-12.59-5.22-4-8.26,4.59-13.72,2.52-6.41-1.89-9.96,3.29-12.3,8.1-5.67,2.39-9.22-3.9-14.73-2.84-4.61.48,4.1-9.39-5.92-4.12-13.8,1.85-28.55-3.08-41.77.94-.4-1.25-2.15-3.16.04-3.6,18.18,1.09,35.61-9.56,53.5-5.43,4.56-4.27-5.94-4.85-7.81-4.91-4.23-.34-5.5-5.55-9.57-6.57-2.04-4.37,8.98-12.86-1.97-11.87-12.27.25-24.41-3.3-36.64-1.32-.64-.1-1.92-.29-2.56-.39C134.719,11.849,133.489,11.249,132.869,10.949Z" transform="translate(-0.099 1.681)" style="fill:#a2a7a9"/><path d="M185.839,11.1c4.67-2.83,10.17-.79,15.24-.72,5.67.97,14,1.47,15.91,8.13,3.63,5.42,11.91-6.54,14.96-.06,2.14,5.34,9.17,2.14,13.14.8,7.59-7.07,18.54-2.72,27.78-2.91-3.06,4.99-.69,3.21,3.36,1.89-1.37,2.9-3.62,5.26-5.09,8.1,3.88,1.67,9.09-.88,12.17,2.8,3.24,4.19,9.01,4.04,13.78,4.22,16.08-.44,32.47-.54,48.27-3.84,15.44-5.44,31.81-6.11,47.94-7.36.41-.03,1.22-.09,1.62-.11,7.14-.72,15.37.49,20.77-5.14,2.29-2.63,5.63-1.47,7.92.47-.36.07-1.08.21-1.45.28-6.14-1.68-9.45,6.1-15.02,6.59-14.43-2.26-28.66,2.06-42.6,4.57A80.426,80.426,0,0,1,344.1,36c-9.43-4.35-18.43,2.64-28.01,2.14-15.35-3.31-31.51,1.93-46.23-4.67-9.41-3.96-19.5,2.51-29.09.2-4.97-.74-9.84-3.37-14.91-1.55-1.87.38-4.32,2.34-5.84.3-4.4-5.18-11.98-4.73-17.92-7.06-4.26,2.09-13.93,3.31-12.89-3.8,5.16-4.69,13.89.03,18.21-6.37C201.149,11.179,192.839,12.739,185.839,11.1Z" transform="translate(-0.099 1.681)" style="fill:#8f9aa5"/><path d="M74.349,10.439c3.07-.46,5.44,2.22,8.5,1.82,16.65-.47,33.31-3.08,50.02-1.31.62.3,1.85.9,2.46,1.2-16.32.19-32.86.15-48.93,3.45-5.48,3.61-4.08,9.53-2.32,14.51-11.15,5.5-24.21-1.76-36.01.23-15.57-3.29-32.08-1.63-47.97-4.08v-3c14.09,1.7,29.07,3.44,42.48-2.39,7.73,2.59,11.05-5.37,17.98-6.6C65.169,12.869,70.429,13.689,74.349,10.439Z" transform="translate(-0.099 1.681)" style="fill:#aba8a9"/><path d="M137.889,12.539c12.23-1.98,24.37,1.57,36.64,1.32,10.95-.99-.07,7.5,1.97,11.87,4.07,1.02,5.34,6.23,9.57,6.57,1.87.06,12.37.64,7.81,4.91-17.89-4.13-35.32,6.52-53.5,5.43-2.19.44-.44,2.35-.04,3.6,13.22-4.02,27.97.91,41.77-.94,10.02-5.27,1.31,4.6,5.92,4.12,5.51-1.06,9.06,5.23,14.73,2.84,2.34-4.81,5.89-9.99,12.3-8.1,5.46,2.07,8.5-6.52,13.72-2.52,6.09,1.56,2.24,11.07,8.42,12.59,8.33-.27,21.2,3.2,25.17-6.68,6.4,1.37,13.15-.99,19.37,1.15,10.56,4.71,21.71-1.88,32.58-1.16-18.1,7.76-39.29-1.84-56.43,7.74-9.44.47-19.97,3.47-28.72-.7-15.53,2.74-31.34,0-46.87,2.15-10.46-3.8-21.87-2.73-32.65-1.01-7.85-1.53-17.25,3.15-24.4-.58-4.23-4.03,11.15-2.85,5.43-7.36-4.86-1.95-.27-5.31,1.78-7.67,6.65-.82,10.36-11.56,17.46-7.69,5.91.27,12.9-5.9,9.35-12.31-1.67-1.87.94-3.19,1.82-4.7C153.4,14.089,145.579,13.789,137.889,12.539Z" transform="translate(-0.099 1.681)" style="fill:#adacaa"/><path d="M44.049,14.289c5.78,4.6,11.94-4.73,16.51-.02-6.93,1.23-10.25,9.19-17.98,6.6-13.41,5.83-28.39,4.09-42.48,2.39v-.8c10.7-2.05,21.5-.91,32.36-1.77C36.7,18.819,38.239,11.549,44.049,14.289Z" transform="translate(-0.099 1.681)" style="fill:#9495a0"/><path d="M86.4,15.6c16.07-3.3,32.61-3.26,48.93-3.45.64.1,1.92.29,2.56.39,7.69,1.25,15.51,1.55,23.2,2.87-.88,1.51-3.49,2.83-1.82,4.7,3.55,6.41-3.44,12.58-9.35,12.31-7.1-3.87-10.81,6.87-17.46,7.69-2.05,2.36-6.64,5.72-1.78,7.67,5.72,4.51-9.66,3.33-5.43,7.36,7.15,3.73,16.55-.95,24.4.58,10.78-1.72,22.19-2.79,32.65,1.01,15.53-2.15,31.34.59,46.87-2.15,8.75,4.17,19.28,1.17,28.72.7,25.45-2.44,51.26-4.41,76.93-5.72a4.634,4.634,0,0,1,3.11,5.45c-8.47,5.43-21.72,5.85-27,15.11,5.01-.25,10.41,2.21,15.29.34,13.77-7.45,31.19-9.6,45.72-4.07-4.55,9.82-19.41,13.18-29.67,10.67-6.77-3.66-13.91,2.29-21.08,1.41-3.65.17,0,4.28-2.27,5.66-1.63,2.42-4.21.2-6.22-.37-17.32,1.76-35.58.02-52.75,5.37-9.64,4.36-19.87.29-29.28-2.38-1.5-3.69-7.53-5.09-8.31-.38,1.56,3.52-2.32,4.79-5.03,5.41-5.19-1.87-10.62-2.73-16.04-1.47-.81-3.73-3.63-5.82-6.42-8.11-2.28,3.29-4.07,11.06-9.18,8.52-3.12-2.67-9.85-1.89-8.81-7.48A85.371,85.371,0,0,1,213,80.259c8.32-4.77,19.25-2.5,27.82.35a8.434,8.434,0,0,0,10.52,1.02c3.37-2.14,9.07,1.31,10.52-3.62,2.18-4.54-6.43-4.02-5.56-7.39,5.43-2.93,11.82.3,17.42,1.07,5.01,2.12-1.02,6.92,1.6,10.57,11.48,1.33,21.31-6.07,28.59-14.14,4.96-6.29,16.08-5.78,19.3-13.53-14.79-4.83-30.05,1.06-45.14.5-9.67-.74-18.95,2.44-27.93,5.4.55,3.1,2.18,7.78-2.11,8.85-4.69.36-2.11-5.46-2.52-8.51q-3.48-.435-6.96-.75c-9.11-.89-17.9,3.68-27.11,3.93-16.88-2.77-34.19.79-50.88-3.22-12.43-5.4-26.43-1.37-39.47-2.44-7.84-.97-17.8,3.67-24.49-2.08,5.52-1.65,11.34-1.51,16.95-2.46a55.645,55.645,0,0,1,6.76-6.44c-4.87-3.32-4.17-7.51-1.29-12-2.66-1.66-6.39.2-8.96-2.12,4.18-10.78,16.13-13.08,25.39-17.49-15.3-3.08-32.33-2.52-46.22,3.74-3.89,4.77,5.26,14.11-2.78,15.17-8.08-.4-15.67,4.3-23.53,2.82,2.98,3.36,4.95,6.6,4.41,11.59,4.02,2.68,9.08,3.61,13.2,6.31-8.85,7.21-22.01.86-32.38,2.12-15.97.75-32.03.28-48.05.83V26.259c15.89,2.45,32.4.79,47.97,4.08,11.8-1.99,24.86,5.27,36.01-.23C82.319,25.129,80.919,19.209,86.4,15.6Z" transform="translate(-0.099 1.681)" style="fill:#b9b4ae"/><path d="M89.229,19.5c13.89-6.26,30.92-6.82,46.22-3.74-9.26,4.41-21.21,6.71-25.39,17.49,2.57,2.32,6.3.46,8.96,2.12-2.88,4.49-3.58,8.68,1.29,12a55.645,55.645,0,0,0-6.76,6.44c-5.61.95-11.43.81-16.95,2.46-5.35-.15-10.89.84-16.07-.88-4.12-2.7-9.18-3.63-13.2-6.31.54-4.99-1.43-8.23-4.41-11.59,7.86,1.48,15.45-3.22,23.53-2.82C94.489,33.609,85.339,24.269,89.229,19.5Z" transform="translate(-0.099 1.681)" style="fill:#c2bbb4"/><path d="M435.979,14.379c3.1-1.16,6.65-1.2,7.24,2.82.21,4.27,5.38,3.93,5.76-.1,5.7-3.2,13.05-.38,18.55,2.69,5.34,1.67,6.54,9.8,13.44,7.63,1.81,2.83,3.96,6.06,7.83,5.51,5.69-2.01,8.88,3.85,13.94,4.76,3.39.54,5.69,2.93,7.76,5.45,9.45.16,18.68-2.67,28.22-2.17,4.85-.6,2.31-5.53,3.15-8.73a34.125,34.125,0,0,1,10.38-7.67,41.48,41.48,0,0,0,10.71-2.36c.48-.1,1.44-.31,1.93-.41.97,1.15,3.23,2.04,2.58,3.88-1.3,3.96,4.13,4.95,4.93,8.63,4-2.29,7.8-6.04,12.77-5.74,7.33-3.47,5.84,10.77,13.39,6.18,7.7-1.99,10.96-10.26,19.58-10.58-2.55,2.92-4.3,7.27-8.67,7.66-2.65.73-7.02,3.88-4.71,6.83,3.1,2.53,4.68-2.44,6.58-4.14,3.91.84,7.59,2.98,11.88,2.04-3.7,15.35-22.45,12.93-34.05,17.91-9.29,5.9-17.72-6.15-27.16-3.27-4.05,2.15-8.27-.93-12.24-1.6-3.43-.11-3.12-8.25-6.61-5.23-7.94,6.62-17.68-3.43-26.58,1.57-21.19-.55-42.55,1.4-63.53-2.77.41-8.19,15.62-3.76,18.05-11.91-.05-3.43-3.04-5.9-6.12-6.81-4.44-1.38-6.5-11.16-12.07-5.45-6.35,4.18-14.26,4.95-20.03,10.16-2.55,1.05-5.55-1.94-4.64-4.51C432.779,22.989,442.909,19.189,435.979,14.379Z" transform="translate(-0.099 1.681)" style="fill:#9aa0a5"/><path d="M431.619,14.289l4.36.09c6.93,4.81-3.2,8.61-7.74,10.27-.91,2.57,2.09,5.56,4.64,4.51,5.77-5.21,13.68-5.98,20.03-10.16,7.28-1.15,4.26,6.62,3.62,10.73.59,7.25-7.62,9.78-13.33,10.96-1.16,5.45,7.68,3.57,10.44,5.15,9.11,2.9,18.38,2.4,27.59,1.26,16.17,6.33,33.73-3.58,50.02,2.26-.11,2.68-6.93,2.76-2.86,5.63,7.2,3.81-4.35,7.72-7.82,4.75-7.5-2.69-16.2.14-22.9-4.83-4.23-2.15-6.69,4.57-11.12,1.79a45.156,45.156,0,0,0-22.42.73,57.132,57.132,0,0,1-14.51,4.64c-5.5,2.71-10.43-2.36-15.66-3.68-4.71-7.28-14.11-2.94-19.45-8.49-6.81-4.89-11.85,4.79-18.54,5.19-3.62.61-11.74.29-10.95,6.19-2.42,9.19,7.84,6.8,13.04,6.47,11.2,5.64,22.8-6.66,34.29-2.01,4.65,2.02,6.11-11.05,6.15.13,5.19,8.39,17.45.74,24.67,4.36,5.59,3.74-3.96,6.92,1,11.12-4.47,10.88-20.93,2.21-28.44,9.6-6.52,6.82-15.66,2.65-23.55,1.48-11.7,9.02-27.93,5.83-41.71,6.38-15.03,3.23-30.62,5.22-46.04,4.23-3.56-2.31-6.79-5.12-7.78-9.37-14.36-3.45-31.27-4.86-43.55,4.44-3.06-1.77-2.97,3.99-5.97,3.03-5.35-1.21-11.03,2.22-15.98-.91-2.91-1.99-6.54-1.53-9.86-2.13,2.55-6.91-6.74-10.88-11.08-5.64-5.55-.05-11.7,1.22-17.36.21,1.5-.25,3-.51,4.48-.89,2.71-.62,6.59-1.89,5.03-5.41.78-4.71,6.81-3.31,8.31.38,9.41,2.67,19.64,6.74,29.28,2.38,17.17-5.35,35.43-3.61,52.75-5.37,2.01.57,4.59,2.79,6.22.37,2.27-1.38-1.38-5.49,2.27-5.66,7.17.88,14.31-5.07,21.08-1.41,10.26,2.51,25.12-.85,29.67-10.67-14.53-5.53-31.95-3.38-45.72,4.07-4.88,1.87-10.28-.59-15.29-.34,5.28-9.26,18.53-9.68,27-15.11a4.634,4.634,0,0,0-3.11-5.45c-25.67,1.31-51.48,3.28-76.93,5.72,17.14-9.58,38.33.02,56.43-7.74,5.55.65,9.63-3.35,14.77-4.24,5.51-1.83,10.81,1.04,16.35.66,7.03,1.2,13.14-2.79,19.62-4.66,4.42,2.81,9.83,2.6,14.87,3.49,5.82.63,9.64-6.16,15.73-3.09,11.99,6.49,26.58,3.82,39.52,2.56-5.9-9.33-20.06,1.94-25.96-7.92-.47-8.31,6.42-13.12,12.94-16.69.37-.07,1.09-.21,1.45-.28C426.419,16.819,429.539,16.5,431.619,14.289Z" transform="translate(-0.099 1.681)" style="fill:#b0b0ae"/><path d="M606.9,24.609c9.58-3.42,19.5-5.76,29.35-8.27C628.789,23.329,616.089,22.829,606.9,24.609Z" transform="translate(-0.099 1.681)" style="fill:#637890"/><path d="M646.209,20.409c8.53,3.63,13.74-7.91,22.89-4.18v22.98c-13.27.65-26.73-.92-39.97-3.1C627.589,26.679,639.719,24.459,646.209,20.409Z" transform="translate(-0.099 1.681)" style="fill:#b9b6b1"/><path d="M564.159,20.229c2.11-1.27,4.15-3.26,6.8-2.96,2.11,2.65,4.04,5.45,6.35,7.95,3.53-1.07,5.97-4.92,9.95-4.96-3.48,2.64-6.57,5.8-10.28,8.08-5.1.63-6.93-7.85-12.09-6.54-.49.1-1.45.31-1.93.41C563.259,21.719,563.859,20.729,564.159,20.229Z" transform="translate(-0.099 1.681)" style="fill:#657891"/><path d="M503.759,24.949c4.68-3.18,2.34,4.52,6.3,4.42,9.37,8.86,16.53-10.2,26.94-3.96,5.46,1.72-1.76,5.69-.96,8.96,2.18.15,4.1-.94,5.83-2.13-.84,3.2,1.7,8.13-3.15,8.73-9.54-.5-18.77,2.33-28.22,2.17-2.07-2.52-4.37-4.91-7.76-5.45-5.06-.91-8.25-6.77-13.94-4.76-3.87.55-6.02-2.68-7.83-5.51,3.53.09,6.67,4.44,10.12,1.89C495.2,26.359,500.339,29.509,503.759,24.949Z" transform="translate(-0.099 1.681)" style="fill:#838f9c"/><path d="M278.069,55.089c15.09.56,30.35-5.33,45.14-.5-3.22,7.75-14.34,7.24-19.3,13.53-7.28,8.07-17.11,15.47-28.59,14.14-2.62-3.65,3.41-8.45-1.6-10.57-5.6-.77-11.99-4-17.42-1.07-.87,3.37,7.74,2.85,5.56,7.39-1.45,4.93-7.15,1.48-10.52,3.62-3.75.51-7.24-.99-5.37-5.2-5.7-4.64-14.48-6.83-20.92-2.17-2.56,2.38-7.68.08-5.75-3.61,5.87-4.5,11.57-9.53,19.25-10.57q3.48.315,6.96.75c.41,3.05-2.17,8.87,2.52,8.51,4.29-1.07,2.66-5.75,2.11-8.85C259.119,57.529,268.4,54.349,278.069,55.089Z" transform="translate(-0.099 1.681)" style="fill:#c4bdb3"/><path d="M535.979,63.139c6.98-3.38,15.28-3.39,21.24-8.81,6.57,2.53,12.28,7.46,20.09,4.62,14.52,2.49,29.25,2.19,43.94,1.75,13.09,2.78,27.15-3.6,39.61,1.92.26,4.67,3.29,7.7,8.24,6.89v11.91c-20.7-2.22-42.06,2.63-62.49-2.48-10.55-.82-22.25-2.75-31.64,3.5.43,4.12,5.72,5.1,9.07,5.94,16.61.95,29.91,15.38,46.93,12.26,10.31,1.24,20.53-1.15,30.79-1.85,4.62.51,1.48-6.33,7.34-4.7v7.29c-20.96-1.24-42.49,5.78-63.31.19-3.72-1.9-6.92-5.74-11.44-4.69-8.63-7-21.24-2.38-30.3-8.65,1.82-14.33,20.57-12.64,31.05-12.96,19.2-3.08,37.99,7.44,56.96,2.09,3.12-1.61,9.02-.24,9.9-4.69-3.72-.51-6.15-3.07-8.29-5.91-6.19-.05-12.12-4.64-18.27-2.2-3.36,1.51-6.02-.4-8.73-1.86-16.2-1.38-32.33,2.34-48.53.85-11.36.87-23.32-3.17-34.4.39-8.54,4.16,12.55,5.78,6.17,12.2-4.27.97-10.29,1.14-13.36,5.6-2.14,4.51-7.9,1.65-11.75.84-6.49-2.76-13.14.5-19.72.7-6.88,1.16-13.19-2.31-19.86-2.89-6.59,2.89-12.64,6.91-19.25,9.75-7.39,1.96-15.77-.42-22.64,3.26-.01,12.15,15.95,18.85,26.46,16.64,3.76-.33,1.29-4.2,1.39-6.58,8.93-1.29,17.85-.73,26.71.64,8.8-4.65,19.25-5.09,28.93-3.5,3.89,3.22-7.88,4.8-4.05,9,3.52,2.15,7.32,3.97,10.7,6.44,29.48,1.27,58.7-1.68,88.09-3.21a72.9,72.9,0,0,1,37.82-4.16c-9.07,1.57-18.5.7-27.38,3.55-12.68,4.79-26.65,3.43-39.92,4.13-9.24-.46-18.3,2.85-27.53,1.51-2.38-.27-4.35,1.41-6.49,2.14-12.73-2.66-26-2.67-38.93-1.85-8.35-.78-16.8-2.46-25.03.07-5.44-2.95-12.48-.27-17.23-4.65-8.93-1.18-19.09-.15-27.13-4.88-3.78-5.54-10.44-6.47-16.56-7.57-.69-3.26,4.82-2.33,5.38-5.23-1.22-5.03,3.74-5.61,6.98-6.06,10.68.12,22.1-1.05,29.93-9.12,2.7-3.13,6.97-7.45,11.1-3.94a56.634,56.634,0,0,0,31.61-3.3c4.99,3.03,18.24,5.39,17.94-3.18-2.93-.38-6.77,2.52-8.94-.25C524.329,62.869,532.119,64.669,535.979,63.139Z" transform="translate(-0.099 1.681)" style="fill:#9da1a5"/><path d="M80.529,55.389c5.18,1.72,10.72.73,16.07.88,6.69,5.75,16.65,1.11,24.49,2.08,13.04,1.07,27.04-2.96,39.47,2.44,16.69,4.01,34,.45,50.88,3.22,9.21-.25,18-4.82,27.11-3.93-7.68,1.04-13.38,6.07-19.25,10.57-1.93,3.69,3.19,5.99,5.75,3.61,6.44-4.66,15.22-2.47,20.92,2.17-1.87,4.21,1.62,5.71,5.37,5.2a8.434,8.434,0,0,1-10.52-1.02c-8.57-2.85-19.5-5.12-27.82-.35a85.371,85.371,0,0,0-36.12,2.98c-21.26,2.18-42.46.83-63.78,2.08-9.92.03-20.55.55-29.12,5.98-3.28,1.31-4.11-4.77-7.31-2.62-2.65,6.13-11.07,5.17-16.52,5.52-6.6-1.08-13.96.61-19.87-3.18,1.71-4.33-.36-9.44-5.02-5.85-1.38-8.65-8.11-16.08-17.16-15.76-5.97-.47-12.18.62-18-1.1v-4.08c16.71,1.73,33.35,3,50.02,4.09,12.31-3.61,25.98,1.34,35.96,8.05,5.69-4.18,11.47,3.24,17.89.83,8.06-.96,15.34-5.93,23.82-3.57,4.92,1.83,19.23-2.98,16.79,6.63,16.86,2.43,33.81-3.35,50.34-6.04-2.51-10.19-17.21-6.09-24.86-7.82-56.18-8.35-113.25-4.62-169.96-5.09v-2.97c16.02-.55,32.08-.08,48.05-.83C58.519,56.249,71.679,62.6,80.529,55.389Z" transform="translate(-0.099 1.681)" style="fill:#c3b7ab"/><path d="M.1,61.309c56.71.47,113.78-3.26,169.96,5.09,7.65,1.73,22.35-2.37,24.86,7.82-16.53,2.69-33.48,8.47-50.34,6.04,2.44-9.61-11.87-4.8-16.79-6.63-8.48-2.36-15.76,2.61-23.82,3.57-6.42,2.41-12.2-5.01-17.89-.83-9.98-6.71-23.65-11.66-35.96-8.05-16.67-1.09-33.31-2.36-50.02-4.09Z" transform="translate(-0.099 1.681)" style="fill:#cdbdae"/><path d="M543.739,63.939c11.08-3.56,23.04.48,34.4-.39,16.2,1.49,32.33-2.23,48.53-.85,2.71,1.46,5.37,3.37,8.73,1.86,6.15-2.44,12.08,2.15,18.27,2.2,2.14,2.84,4.57,5.4,8.29,5.91-.88,4.45-6.78,3.08-9.9,4.69-18.97,5.35-37.76-5.17-56.96-2.09-10.48.32-29.23-1.37-31.05,12.96,9.06,6.27,21.67,1.65,30.3,8.65,4.52-1.05,7.72,2.79,11.44,4.69,20.82,5.59,42.35-1.43,63.31-.19v6.88c-3.23.08-6.53.22-9.72.41a72.9,72.9,0,0,0-37.82,4.16c-29.39,1.53-58.61,4.48-88.09,3.21-3.38-2.47-7.18-4.29-10.7-6.44-3.83-4.2,7.94-5.78,4.05-9-9.68-1.59-20.13-1.15-28.93,3.5-8.86-1.37-17.78-1.93-26.71-.64-.1,2.38,2.37,6.25-1.39,6.58-10.51,2.21-26.47-4.49-26.46-16.64,6.87-3.68,15.25-1.3,22.64-3.26,6.61-2.84,12.66-6.86,19.25-9.75,6.67.58,12.98,4.05,19.86,2.89,6.58-.2,13.23-3.46,19.72-.7,3.85.81,9.61,3.67,11.75-.84,3.07-4.46,9.09-4.63,13.36-5.6C556.289,69.719,535.2,68.1,543.739,63.939Zm-58.3,19.68c-5.01,5.93-14.15,6.13-18.65,12.51-3.97.54-9.8-2.88-11.52,2.34-8.84,2.97,3.89,11.91,9.19,10.29,4.4-1.65-.93-5.65-2.23-7.31,10.89-3.14,23.23-.87,34.57-1.42,5.87-4.74,13.93-3.07,20.38-6.63,10.31-3.56,17.94,6.19,28.05,6.15-2.33,3.31-7.15,2.32-9.92,5.15-1.97,4.5,2.53,7.44,6.11,8.3,21.08,6.04,42.46-3.51,63.66-.66.89-.72,8.05.73,6.93-2.83-1.75-1.91-5.6-.27-5.27-3.93-13.88-7.23-28.04-6.95-42.4-8.28,1.7-6.55-13.62-.73-12.34-8.91-2.94-2.37-12.85-4.14-13.31,2.61-4.88,6.5-9.02-7-15.23-3.22-5.29,1.86-9.69-3.42-14.95-.89-5.92.95-11.49-3.48-17.31-1.57C489.439,84.339,487.589,82.349,485.439,83.619Z" transform="translate(-0.099 1.681)" style="fill:#959ba1"/><path d="M.1,68.309c5.82,1.72,12.03.63,18,1.1,9.05-.32,15.78,7.11,17.16,15.76,4.66-3.59,6.73,1.52,5.02,5.85,5.91,3.79,13.27,2.1,19.87,3.18,5.45-.35,13.87.61,16.52-5.52,3.2-2.15,4.03,3.93,7.31,2.62,8.57-5.43,19.2-5.95,29.12-5.98,21.32-1.25,42.52.1,63.78-2.08-1.04,5.59,5.69,4.81,8.81,7.48,5.11,2.54,6.9-5.23,9.18-8.52,2.79,2.29,5.61,4.38,6.42,8.11,5.42-1.26,10.85-.4,16.04,1.47-1.48.38-2.98.64-4.48.89-8.6.53-17.28-.92-25.62,1.52-7.54-4.07-16.08-.94-24.13-2.82-20.73-1.28-41.73-1.35-62.38-1.57-7.9-.53-1.68,11.79-9.56,12.33-8.12-5.22-17.8,7.14-25.37-.31-2.2-2.11-5.15.13-7.79.23-10.1-3.1-20.68,2.51-30.72-2.09-4.03-2.17-5.89,1.99-9.12,3.4-5.57-6.28-13.35-1.59-18.06,3.23Z" transform="translate(-0.099 1.681)" style="fill:#b9afa7"/><path d="M574.969,82.439c9.39-6.25,21.09-4.32,31.64-3.5,20.43,5.11,41.79.26,62.49,2.48v12.67c-5.86-1.63-2.72,5.21-7.34,4.7-10.26.7-20.48,3.09-30.79,1.85-17.02,3.12-30.32-11.31-46.93-12.26C580.689,87.539,575.4,86.559,574.969,82.439Z" transform="translate(-0.099 1.681)" style="fill:#a6a6a9"/><path d="M485.439,83.619c2.15-1.27,4,.72,5.76,1.7,5.82-1.91,11.39,2.52,17.31,1.57,5.26-2.53,9.66,2.75,14.95.89,6.21-3.78,10.35,9.72,15.23,3.22.46-6.75,10.37-4.98,13.31-2.61-1.28,8.18,14.04,2.36,12.34,8.91,14.36,1.33,28.52,1.05,42.4,8.28-.33,3.66,3.52,2.02,5.27,3.93,1.12,3.56-6.04,2.11-6.93,2.83-21.2-2.85-42.58,6.7-63.66.66-3.58-.86-8.08-3.8-6.11-8.3,2.77-2.83,7.59-1.84,9.92-5.15-10.11.04-17.74-9.71-28.05-6.15-6.45,3.56-14.51,1.89-20.38,6.63-11.34.55-23.68-1.72-34.57,1.42,1.3,1.66,6.63,5.66,2.23,7.31-5.3,1.62-18.03-7.32-9.19-10.29,1.72-5.22,7.55-1.8,11.52-2.34C471.289,89.749,480.429,89.549,485.439,83.619Z" transform="translate(-0.099 1.681)" style="fill:#8f959d"/><path d="M100.719,89.8c20.65.22,41.65.29,62.38,1.57,8.05,1.88,16.59-1.25,24.13,2.82,8.34-2.44,17.02-.99,25.62-1.52,5.66,1.01,11.81-.26,17.36-.21,4.34-5.24,13.63-1.27,11.08,5.64,3.32.6,6.95.14,9.86,2.13,4.95,3.13,10.63-.3,15.98.91,3,.96,2.91-4.8,5.97-3.03-1.37,6.07-6.24,5.95-11.24,6.03-.17,3.93-1.68,10.21-6.88,11.04-14.82,2.52-29.91,3.06-44.88,4.23-8.8.16-17.44-1.81-26.2-2.33,3.46-4.58,9.79-2.62,14.04-5.87,7.97-4.66,19.85-1.79,26.28-8.89-2.1-3.19-7.42-2.25-10.58-4.45-8.86-1.27-18.14,3.32-26.96-.05-7.1-2.59-13.04,1.7-19.4,3.79-18.25,1.41-36.72,1.81-55.05-.07-14.1,5.28-29.29,4.64-43.78,7.99-5.96.27-12.75,1.82-17.29-3.07-4.82,3.87-10.52-1.38-16.08.58-5.76-1.42-17.31-3.54-15.06,6.29-1.21-1.66-2.98-4.31-5.22-2.33-4.25,3.46-9.96,3.1-14.7,5.51v-9.92c4.71-4.82,12.49-9.51,18.06-3.23,3.23-1.41,5.09-5.57,9.12-3.4,10.04,4.6,20.62-1.01,30.72,2.09,2.64-.1,5.59-2.34,7.79-.23,7.57,7.45,17.25-4.91,25.37.31C99.039,101.589,92.819,89.269,100.719,89.8Z" transform="translate(-0.099 1.681)" style="fill:#afaba6"/><path d="M284.149,97.549c7.15-4.78,16.88-3.72,24.88-2.17,6.2,2.49,14.59,10.2,8.25,16.78,4.53-1.12,7.19,5.32,12.37,1.59,5.26-1.9.44,6.2,4.52,6.47,18.84,1.27,37.8,1.01,56.55,3.46,3.67,4.31,10.82,1.32,12.27,7.77,6.56,2.42,12.65,7.36,20.11,5.92,16.38-2.36,33.24,2.52,49.38-1.61,19.15-6.89,39.86-2.6,58.74-9.3a189.91,189.91,0,0,0,38.29.15c17.93-4.99,36.46-1.62,54.72-1.77,5.34.95,11.02-3.2,15.91.14,9.33-3.09,19.33-2.27,28.96-3.57v5.64c-8.17,1.65-16.4,3.05-24.55,4.76-8.15,7.17-17.08-2.27-25.33-2.49-4.52,6.04-10.18-.91-15.96-.35-9.67-2.01-21.56-4.67-29.32,3.05-19.03-2.41-37.85.29-55.95,6.15-11.56,3.17-23.38,2.31-35.1,3.77-9.35-.27-18.49,3.18-27.82,1.66a910.515,910.515,0,0,0-106.71,1.93,31.1,31.1,0,0,0-2.52,3.92l-.76-.18c-6.93-5.61-11.62-15.07-18.27-19.94-6.03,4.03-17.33-1.37-17.73,8.77-3.84-.09-9.65-7.06-8.12.49-.36-1.05-.74-2.08-1.13-3.11-6.49,2.76-11.44,8.41-18.4,10.19,2.09-1.96-.26-6.46,3.65-6.36,3.51,0,8.24-5.24,3.51-7.29.13,1.74.3,3.55-.7,5.1-9.8-.41-19.5-2.11-29.31-2.48-.07,6.53-17.05,1.73-10.62-2.22,4.74,4.48,5.93-4.89,10.8-4.39,2.88.56,12.03-2.65,1.84-2.2a425.606,425.606,0,0,1-70.23,1.38c-.76-2.61-3.1-3.89-5.43-4.9,8.39.21,16.76,1.11,25.16,1.04,24.44-2.36,48.63-1.09,72.96-5.08,6.09.15,12.34-2,14.99-7.84C292.579,107.449,282.709,105.5,284.149,97.549Zm8.33-.85c-2.63.38-6.96,2.38-4.11,5.33,6.18,4.81,15.8,4.69,22.55,1C312.639,94.169,297.529,96.559,292.479,96.7Z" transform="translate(-0.099 1.681)" style="fill:#99a0a5"/><path d="M292.479,96.7c5.05-.14,20.16-2.53,18.44,6.33-6.75,3.69-16.37,3.81-22.55-1C285.519,99.079,289.849,97.079,292.479,96.7Z" transform="translate(-0.099 1.681)" style="fill:#89949a"/><path d="M167.279,101.609c6.36-2.09,12.3-6.38,19.4-3.79,8.82,3.37,18.1-1.22,26.96.05,3.16,2.2,8.48,1.26,10.58,4.45-6.43,7.1-18.31,4.23-26.28,8.89-4.25,3.25-10.58,1.29-14.04,5.87,8.76.52,17.4,2.49,26.2,2.33v3.94c-8.4.07-16.77-.83-25.16-1.04-20.71-1.88-42.18-4.24-62.43,1.29A914.16,914.16,0,0,1,.1,123.259v-6.75c4.74-2.41,10.45-2.05,14.7-5.51,2.24-1.98,4.01.67,5.22,2.33-2.25-9.83,9.3-7.71,15.06-6.29,5.56-1.96,11.26,3.29,16.08-.58,4.54,4.89,11.33,3.34,17.29,3.07,14.49-3.35,29.68-2.71,43.78-7.99C130.559,103.419,149.029,103.019,167.279,101.609Z" transform="translate(-0.099 1.681)" style="fill:#a8a3a1"/><path d="M419.509,104.829c8.45-.74,19.06-2.9,24.92,5.13,6.71,2.76,12.96,5.59,20.17,6.81,1.09,3.07,4.06,2.79,6.62,1.79,15.36,3.56,31.35.84,46.83,3.82-6.85,4.02-17.14,2.93-25.08,6.67-19.02-.44-40.71,10.54-57.11-.42.72-5.81-7.4-2.07-10.62-2-6.1,2.33-7.59-6.95-13.24-7.21a161.858,161.858,0,0,1-41.94-3.28c2.16-4.56,8.36-1.63,11.43-5.43,2.33-2.38,2.53,3.05,3.78.77,2.66-4.67,8.51-6.2,13.53-4.86C405.769,108.579,412.609,105.489,419.509,104.829Z" transform="translate(-0.099 1.681)" style="fill:#adacab"/><path d="M122.509,123.6c20.25-5.53,41.72-3.17,62.43-1.29,2.33,1.01,4.67,2.29,5.43,4.9-21.01-3.28-42.65-1.05-63.41,2.98-42.05,2.83-84.56-.74-126.86-1.9v-5.03A914.16,914.16,0,0,0,122.509,123.6Z" transform="translate(-0.099 1.681)" style="fill:#9d9a9c"/><path d="M126.959,130.189c20.76-4.03,42.4-6.26,63.41-2.98a425.606,425.606,0,0,0,70.23-1.38c10.19-.45,1.04,2.76-1.84,2.2-4.87-.5-6.06,8.87-10.8,4.39-6.43,3.95,10.55,8.75,10.62,2.22,9.81.37,19.51,2.07,29.31,2.48,1-1.55.83-3.36.7-5.1,4.73,2.05,0,7.29-3.51,7.29-3.91-.1-1.56,4.4-3.65,6.36-4.31,1.59-9.48,2.7-11.32,7.5-1.35,3.73-6.4,9.49-4.15,1.98-7.8.74,2.23,8.07-4.74,9.05-2-1.95-3.23-2.28-2.9.85a6.938,6.938,0,0,0-4.33,5.36c2.81,0,3.24-3.39,4.33-5.36,8.07,2.41-6.98,9.86,1.85,11.32-.43,2.66-4.6,9.39.7,7.78,2.1-1.3-.84-5.1,3.02-3.7.5.23,1.48.7,1.98.93-.34,3.99-2.68,8.55-6.51,10.17-.97-3.28,3.37-3.13,2.49-6.37a9.638,9.638,0,0,0-5.63,2.46c.46-2.22,1.82-5.74-1.81-4.05-4.42.86-1.29,4.39,1.81,4.05a16.115,16.115,0,0,1-4.64,2.7c-1.05-1.51-2.58-1.64-4.21-1.19.87-1.94.88-3.15-1.56-2.19a5.4,5.4,0,0,1,5.12-3.77c4.38-.28,7.41-2.68,5.12-7.16.39-3.19-2.76-1.09-3.86.14-5.67-4.23,4.54-9.38-.24-12.52-10.16,2.93-20.3-2.57-30.71.98-9.56.09-19.24.09-28.6-2.09-1.3-2.26-2.51-5.64-6.53-3.44-7.94-.8-16.17-1.39-23.71-4.05-4.1-3.84,1.56-8.7,5.82-8.83-2.25-4.24-9.03-1.17-12.71-2.31-13.69,1.93-26.97-2.52-40.65-1.89,23.03-1.46,46.43-.76,68.97-5.92,4.29-.79,2.19-7.45-1.85-5.21C163.829,127.679,145.289,131.749,126.959,130.189Z" transform="translate(-0.099 1.681)" style="fill:#90979f"/><path d="M573.939,132.019c7.76-7.72,19.65-5.06,29.32-3.05,5.78-.56,11.44,6.39,15.96.35,8.25.22,17.18,9.66,25.33,2.49,8.15-1.71,16.38-3.11,24.55-4.76v28.91c-13.64,5.73-28.21,7.49-42.85,8.67-19.54-.42-38.46,6.78-58.15,5.78-18.42-1.43-38.05,1.37-54.83-8.28-3.66-3.27,3.43-5.06,5.95-5.66,4.17,1.01,8.24,1.01,11.24-2.76,2.72-3.8,6.73,2.95,9.53-.47,6.84-9.78,22.97-1.07,29.39-11.9-7.38-7.08-20.09-2.87-29.26-3.93-8.68,1.98-17.77,2.53-26.1,5.86-4.24,2.33-9.47.29-13.36,3.65q-36.24-.06-72.53.63c-19.62,1.5-39.7-2.48-59.14.65-7.22,2.95-15.56,1.79-23.15,1.25a31.1,31.1,0,0,1,2.52-3.92,910.515,910.515,0,0,1,106.71-1.93c9.33,1.52,18.47-1.93,27.82-1.66,11.72-1.46,23.54-.6,35.1-3.77C536.089,132.309,554.909,129.609,573.939,132.019Z" transform="translate(-0.099 1.681)" style="fill:#9097a0"/><path d="M.1,128.289c42.3,1.16,84.81,4.73,126.86,1.9,18.33,1.56,36.87-2.51,55.02.7,4.04-2.24,6.14,4.42,1.85,5.21-22.54,5.16-45.94,4.46-68.97,5.92-9.54-1.05-19.11,1.22-28.66-.4-28.54,4.65-57.37,3.12-86.1,2.66Z" transform="translate(-0.099 1.681)" style="fill:#8e8f95"/><path d="M514.019,143.269c8.33-3.33,17.42-3.88,26.1-5.86,9.17,1.06,21.88-3.15,29.26,3.93-6.42,10.83-22.55,2.12-29.39,11.9-2.8,3.42-6.81-3.33-9.53.47-3,3.77-7.07,3.77-11.24,2.76-2.52.6-9.61,2.39-5.95,5.66,16.78,9.65,36.41,6.85,54.83,8.28,19.69,1,38.61-6.2,58.15-5.78,14.64-1.18,29.21-2.94,42.85-8.67v7.18c-19.74,4.04-39.87,5-59.8,7.59-21.76,4.34-44.11,4.21-66.18,3.82-12.65,1.52-24.48-2.39-36.68-3.64-4.79-1.12-8.4-6.14-13.69-4.96-5.33,1.92-7.98-6.55-13.28-4.2-2.38,1.38-6.74-.06-6-2.96,4.42-3.71-3.82-6.44-6.44-3.68-5.21-4.24-12.61-3.48-18.88-3.65-19.98,1.7-40.04.45-60.05.9-4.02-1.18-7.53,1.38-9.48,4.52,2.11,5.44,11.61.32,13.88,6.42-4.31,5.96-12.06,5.28-17.6,8.71,3.06.03,3.74.75.99,2.38a171.224,171.224,0,0,1-30.81-25.12l.76.18c7.59.54,15.93,1.7,23.15-1.25,19.44-3.13,39.52.85,59.14-.65q36.3-.675,72.53-.63C504.549,143.559,509.779,145.6,514.019,143.269Z" transform="translate(-0.099 1.681)" style="fill:#84929e"/><path d="M.1,144.279c28.73.46,57.56,1.99,86.1-2.66,9.55,1.62,19.12-.65,28.66.4,13.68-.63,26.96,3.82,40.65,1.89,3.68,1.14,10.46-1.93,12.71,2.31-4.26.13-9.92,4.99-5.82,8.83,7.54,2.66,15.77,3.25,23.71,4.05,4.02-2.2,5.23,1.18,6.53,3.44-10.16-1.78-20.99-1.29-31.04-4.58-9.4-.46-19.29.7-28.22-2.91-3.39-2.07.32-5.13,2.56-6.25-3.51-4.14-10.11-2.28-14.83-3.01-5.49.01-11.29-.99-16.36,1.66-16.52.31-33.05.92-49.51,2.57-18.23-1.75-36.86-4.16-55.14-1.62Z" transform="translate(-0.099 1.681)" style="fill:#9a999c"/><path d="M104.749,147.449c5.07-2.65,10.87-1.65,16.36-1.66,4.72.73,11.32-1.13,14.83,3.01-2.24,1.12-5.95,4.18-2.56,6.25,8.93,3.61,18.82,2.45,28.22,2.91,10.05,3.29,20.88,2.8,31.04,4.58,9.36,2.18,19.04,2.18,28.6,2.09,10.41-3.55,20.55,1.95,30.71-.98,4.78,3.14-5.43,8.29.24,12.52-1.54,1.24-3.22,2.28-4.84,3.4,1.55-3.41.29-3.21-2.26-1.35-3.16-5.99,1.16-.01,3.11-4.81-2.53-1.27-5.49-.81-8.22-1.07-12.73.55-24.04,8.9-32.12,18.08-5.25,4.2-4.66-8.32-10.41-8.49-9.88-1.3-19.75-5.14-29.97-5.11-3.5,1.42-6.26-1.06-8.82-3.06-11.79-.11-24.35-.28-36.32-1.64q-3.27-1.8-6.46-3.7c3.99-.58,8.03-.5,12.02-1.1,2.48-3.02,7.77-5.31,12.07-6.2-1.25-1.53-4.41-.98-6.07-2.59-3.7-3.36-14.72.63-10.16-6.97-4.03-1.99-8.87-5.31-13.43-3.05C108.439,149.679,106.519,148.039,104.749,147.449Z" transform="translate(-0.099 1.681)" style="fill:#9ea0a3"/><path d="M.1,148.4c18.28-2.54,36.91-.13,55.14,1.62,16.46-1.65,32.99-2.26,49.51-2.57,1.77.59,3.69,2.23,5.56,1.06,4.56-2.26,9.4,1.06,13.43,3.05-4.56,7.6,6.46,3.61,10.16,6.97,1.66,1.61,4.82,1.06,6.07,2.59-4.3.89-9.59,3.18-12.07,6.2-3.99.6-8.03.52-12.02,1.1-6.96.41-13.73-.88-20.41-2.62-4.79-1.4-9.48,3.16-14.13.39-4.78-.36-12.39-6.05-16.05-.61,3.18,10.33-11.72,5.67-17.76,6.37-9.62,2.16-19.6.47-29.32.2-3.65-.12-3.54-3.56-3.14-6.67A28.8,28.8,0,0,0,.1,162.249Z" transform="translate(-0.099 1.681)" style="fill:#a79f9c"/><path d="M388.1,152.359c20.01-.45,40.07.8,60.05-.9,6.27.17,13.67-.59,18.88,3.65,2.62-2.76,10.86-.03,6.44,3.68-.74,2.9,3.62,4.34,6,2.96,5.3-2.35,7.95,6.12,13.28,4.2,5.29-1.18,8.9,3.84,13.69,4.96,12.2,1.25,24.03,5.16,36.68,3.64,22.07.39,44.42.52,66.18-3.82,19.93-2.59,40.06-3.55,59.8-7.59v2.17c-25.53,4.72-51.02,7.6-76.44,12.35-7.57.09-21.18-.78-21.58,9.45,13.08,1.45,26.16,3.46,38.96,6.15,8.5-2.81,17.59-1.74,26.06.61,11.09-2.75,22.25,2.42,33,1.6v12.12c-4.7-3.64-10.87-.73-15.9.45q-3.135.975-6.2,2.02c-3.31-6.41-8.83-12.45-15.99-14.77-.87,3.3,3.88,6.24.98,9.11-3.11-1.35-1.05-6.29-4.17-7.81-2.99-1.05-9.5-4.24-9.22.7.62,2.4-1.96,2.27-3.58,2.78-2.8-.71-.22-2.91.09-4.62-23.64-2.06-47.3-4.68-70.91-7.22-23.89-1.86-48.06-.53-71.95-2.7-.63.22-1.87.68-2.49.9-2.44-.8-4.82-2.08-7.44-2.02-3.26-.38-7.44,2.5-6.47,5.98-2.53-2.75-5.57-2.08-7.89.52-2.12-.99-4.35-2.46-6.44-.49-4.24-3.28-6.98-11.1-13.01-10.29,3.2-5.54-10.24-8.91-7.22-.62-.42-2.45.34-7.16-3.18-7.25-5.52.1-8.69-5.44-14.64-4.34-2.27-.29-6.46-6.75-6.65-2.5-1.41-2.05-2.04-5.35-4.32-2.12-2.27-6.1-11.77-.98-13.88-6.42C380.569,153.739,384.079,151.179,388.1,152.359Z" transform="translate(-0.099 1.681)" style="fill:#788c9e"/><path d="M.1,162.249a28.8,28.8,0,0,1,14.97,3.23c-.4,3.11-.51,6.55,3.14,6.67,9.72.27,19.7,1.96,29.32-.2,6.04-.7,20.94,3.96,17.76-6.37,3.66-5.44,11.27.25,16.05.61,4.65,2.77,9.34-1.79,14.13-.39,6.68,1.74,13.45,3.03,20.41,2.62q3.195,1.9,6.46,3.7c-15.37,2.47-32.03-3.74-47.07,2.34-4.8,2.31-10.25,2.65-15.35,4.02-9.98,2.08-20.01.91-29.98-.29-1.46-.99-2.43.04-3.25,1.27-2.26-.75-4.05-2.84-6.56-2.71-7.92-2.4-12.33,7.46-20.03,6.79Z" transform="translate(-0.099 1.681)" style="fill:#9f9996"/><path d="M253.989,170.409a6.938,6.938,0,0,1,4.33-5.36C257.229,167.019,256.8,170.409,253.989,170.409Z" transform="translate(-0.099 1.681)" style="fill:#4d4d58"/><path d="M268.189,169.219c-1.96-.67-4.58-3.4-1.04-3.87C270.689,163.5,271.249,168.839,268.189,169.219Z" transform="translate(-0.099 1.681)" style="fill:#b2b1a8"/><path d="M592.659,177.659c25.42-4.75,50.91-7.63,76.44-12.35v30.16c-10.75.82-21.91-4.35-33-1.6-8.47-2.35-17.56-3.42-26.06-.61-12.8-2.69-25.88-4.7-38.96-6.15C571.479,176.879,585.089,177.749,592.659,177.659Z" transform="translate(-0.099 1.681)" style="fill:#708292"/><path d="M262.959,169.4c1.73-.14,3.48-.21,5.23-.18C270.919,173.409,263.819,172.439,262.959,169.4Z" transform="translate(-0.099 1.681)" style="fill:#949388"/><path d="M75.269,174.459c15.04-6.08,31.7.13,47.07-2.34,11.97,1.36,24.53,1.53,36.32,1.64,2.56,2,5.32,4.48,8.82,3.06,10.22-.03,20.09,3.81,29.97,5.11,5.75.17,5.16,12.69,10.41,8.49,3.22.69,6.43-2.95,3.61,1.97.18,3.53-2.92,3.49-2.72-.02-3.13,1.27-4.63,6.51-.82,6.96-4.37-.13-4.32,3.77.13,2.89,1.79-1.2,3.71-2.4,5.78-1.04.12.75.36,2.25.48,2.99.19.44.57,1.32.76,1.75a18.483,18.483,0,0,0-3.05,4.53,2.881,2.881,0,0,0-.01,3.51c-.21.12-.63.36-.83.47-4.17-4.84-8.95-1.37-9.7,4.18l-.3.71c-1.96,1.64-2.26.03-2.34-1.88-2.34,1.01-4.74,1.88-7.15,2.69-1.53-.09-3.06-.13-4.58-.2a55.278,55.278,0,0,0,5.11-7.67c-3.14-.29-5.38,7.54-5.27,1.04-1.98,2.91-5.11,7.18-8.83,3.85-1.49-2.68-4.08-4.24-6.8-5.41,2.86-4.39-3.22-4.08-6.1-4.69.38-2.97.12-6.31,1.99-8.79,2.89.72.61,6.51,4.58,4.93.77-2.92,7.35-7.09,1.71-8.41-3.32-.33,1.14-8.49,2.45-5.51-1.37,7.25,11.53,1.11,6.21-3.02-10.71-2.03-24.01-2.15-35.07-5.66-8.85-.67-17.29,2.29-26.01-.34-5.27-.31-12.99,8.41-15.11.19-.53-4.53-5.18-3.55-4.15.92-5.03-.47-2.09-5.73,1.54-5.99-10.14-1.46-21.08-1-30.24,4.01-4.12,3.42-8.88-.24-13.21-.9C65.019,177.109,70.469,176.769,75.269,174.459Zm126.22,27.95c1.26,3.07-6.81,5.82-3.41,7.93-4.49,7.06,7.69-1.79,1.94-1.16,2.23-1.45,5.06-1.56,7.24-3.11,1.72,5.64,6.1-5.88-.03-.79-.04-.47-.12-1.41-.15-1.87C203.929,206.069,203.6,199.549,201.489,202.409Z" transform="translate(-0.099 1.681)" style="fill:#94969b"/><path d="M239.979,172.339c2.73.26,5.69-.2,8.22,1.07-1.95,4.8-6.27-1.18-3.11,4.81,2.55-1.86,3.81-2.06,2.26,1.35-2.05,3.1-5.33,4.63-8.32,6.49a10.679,10.679,0,0,1-3.18,6.59c-.29-3.58-2.49-6.28,2.37-8.19,4.1-2.97.76-3.05-2.1-2.18.67-2.22,2.53-5.01.27-6.9C238.649,174.659,244.429,174.7,239.979,172.339Z" transform="translate(-0.099 1.681)" style="fill:#c3c8c7"/><path d="M73.129,179.379c9.16-5.01,20.1-5.47,30.24-4.01-3.63.26-6.57,5.52-1.54,5.99-1.03-4.47,3.62-5.45,4.15-.92,2.12,8.22,9.84-.5,15.11-.19,8.72,2.63,17.16-.33,26.01.34,11.06,3.51,24.36,3.63,35.07,5.66,5.32,4.13-7.58,10.27-6.21,3.02-1.31-2.98-5.77,5.18-2.45,5.51,5.64,1.32-.94,5.49-1.71,8.41-3.97,1.58-1.69-4.21-4.58-4.93-1.87,2.48-1.61,5.82-1.99,8.79,2.88.61,8.96.3,6.1,4.69l-.82-.03c-5.53.4-11.35-5.88-16.02-.37-1.63-3-8.69-2.49-6.68,1.85-6.34,2.49-10.66-5.45-16.77-4.87-2.07-.87-1.51.91-1.34,2.26-1.98-.15-2.96-1.83-4.03-3.25a11.749,11.749,0,0,1-7.01,6.16c-4.32-1.94,4.53-3.51,2.48-7.24-2.75.03-6.18,4.17-4.34-.8-5.43,1.81-6.42-6.59-11.1-7.78-2.75-.06-8.24-2.41-10.04,1.11-.98,3.28-7.01,4.95-7.97.79-1.22.82-1.97,2.98-3.72,2.35,4.03-3.62-3.97-4.43-4.21-.54a25.371,25.371,0,0,1-5.33-4c-4.55-3.27-8.99-7.9-14.87-8.2.85,3.19-1.59,7.4-2.04,1.93-.89-3.72-5.43,1.67-7.81,2.3l-.95-.16c-3.34-2.56-5.1-9.19-10.04-7.36-4.21.87-7.18-4.3-8.78-7.7,9.97,1.2,20,2.37,29.98.29C64.249,179.139,69.009,182.8,73.129,179.379Z" transform="translate(-0.099 1.681)" style="fill:#8e9096"/><path d="M250.929,183.189a50.135,50.135,0,0,1,5.12-7.16C258.339,180.509,255.309,182.909,250.929,183.189Z" transform="translate(-0.099 1.681)" style="fill:#c9cfd4"/><path d="M260.169,176.369c2.03.68,6.53,1.35,3.72,4.08-3.86-1.4-.92,2.4-3.02,3.7C255.569,185.759,259.739,179.029,260.169,176.369Z" transform="translate(-0.099 1.681)" style="fill:#62626e"/><path d="M227.879,183.179c1.49-.91,4.78-3.06,4.85.04-1.38,1.19-2.02,2.45-.11,3.51a29.728,29.728,0,0,1-3.8,4.43C226.2,189.849,228.069,185.639,227.879,183.179Z" transform="translate(-0.099 1.681)" style="fill:#b6bab8"/><path d="M254.409,183.589c3.63-1.69,2.27,1.83,1.81,4.05C253.119,187.979,249.989,184.449,254.409,183.589Z" transform="translate(-0.099 1.681)" style="fill:#d2d4cb"/><path d="M469.759,186.429c.62-.22,1.86-.68,2.49-.9,23.89,2.17,48.06.84,71.95,2.7,23.61,2.54,47.27,5.16,70.91,7.22-.31,1.71-2.89,3.91-.09,4.62-3.37,1.11-5.51,5.03-1.1,6.41-1.56,1.76-3.91-.35-5.74-.59-5.94-6.11-13.23,1.71-20.1,1.77-2.16-2.97,7.02-3.94,4.82-9.02-24.09-7.08-49.58-3.27-74.12-7.82-2.47,1.75-3.06-1.34-4.78,1.33-3.57-4.88-4.22,2.9-5.1,5.96-4.04-.54-7.16,2.18-11.15,2.97a30.638,30.638,0,0,1,4.34-5.5c-2.53.02-4.87-1.37-7.05.75a24.474,24.474,0,0,0,3.17-5.81c-6.68.19-13.28-1.61-19.99-.08v2.6a61.561,61.561,0,0,0-4.85-3.85C472.139,188.289,470.929,187.379,469.759,186.429Zm37.69,4.26c-2.7.69-5.56.19-2.57,2.82C505.439,199.229,511.179,188.689,507.449,190.689Z" transform="translate(-0.099 1.681)" style="fill:#87949e"/><path d="M478.219,190.439c6.71-1.53,13.31.27,19.99.08a24.474,24.474,0,0,1-3.17,5.81c-.9.68-1.81,1.33-2.72,1.98-1.88.05-2.79,3.5-4.5,2.35.69-5.26-7.23-3.52-9.6-7.62Z" transform="translate(-0.099 1.681)" style="fill:#97a2ab"/><path d="M235.849,192.649c1.8-.6,4.47-3.65,5.31-.47-1.63,1.41-3.34,2.85-2.99,5.26-.29.43-.88,1.31-1.17,1.74A48.243,48.243,0,0,1,235.849,192.649Z" transform="translate(-0.099 1.681)" style="fill:#9da7b0"/><path d="M247.1,193.679c.49-2.42,1.83-3.93,4.48-3.34A3.392,3.392,0,0,1,247.1,193.679Z" transform="translate(-0.099 1.681)" style="fill:#9fa1a8"/><path d="M507.449,190.689c3.73-2-2.01,8.54-2.57,2.82C501.889,190.879,504.749,191.379,507.449,190.689Z" transform="translate(-0.099 1.681)" style="fill:#bcc9d6"/><path d="M514,192.149c1.72-2.67,2.31.42,4.78-1.33,24.54,4.55,50.03.74,74.12,7.82,2.2,5.08-6.98,6.05-4.82,9.02-.85.41-2.15.73-1.09,1.8,2.19,5.88-4.44,6.56-7.07,9.69-3.79-2.76-2.12-8.94-6.87-10.35-3.56-.64-7.52-.51-9.16,3.33-.01-3.13-1.65-2.58-3.61-1.06-.93-5.66-10.85-6.71-8.67.25-.06,6.03-4.92-1.86-3.65,4.2-1.76-5.84-7.33-10.97-13.48-11.34-1.81,4.63,5.71,8.84.87,12.33.57-6.61-3.06-3.07-4.02.93-1.25.73-2.5,1.64-4.01,1.64-.63-.2-1.9-.61-2.54-.81,1.24-1.61,3.19-1.89,5.08-2.16-2.49-2.16-2.05-7.88,2.13-6.03-.04-2.55-.02-5.52-2.26-6.61,2.12-4.28-6.08-12.55-4.36-4.45,3.13,3.52,2.45,8.13-.55,11.55a8.463,8.463,0,0,0-1.42-4.7c1.64-6.41-6.46-.04-5.42-5.21,2.92,1.24,2.66-1.29-.01-1.42.91-1.36,2-4.65-.84-3.23-.64-.86-1.29-1.72-1.98-2.53C514.869,193.149,514.289,192.479,514,192.149Z" transform="translate(-0.099 1.681)" style="fill:#989fa2"/><path d="M226.739,194.179c2.23-2.12.42,2.9,2.79,1.55,3.32-1.16.31,3.89-1.24,4.64C227.839,198.289,227.269,196.239,226.739,194.179Z" transform="translate(-0.099 1.681)" style="fill:#dde1e8"/><path d="M517.129,196.009c2.84-1.42,1.75,1.87.84,3.23C515.649,199.579,516.089,197.189,517.129,196.009Z" transform="translate(-0.099 1.681)" style="fill:#d8dce0"/><path d="M525.369,199.019c-1.72-8.1,6.48.17,4.36,4.45,2.24,1.09,2.22,4.06,2.26,6.61-4.18-1.85-4.62,3.87-2.13,6.03-1.89.27-3.84.55-5.08,2.16-.54-.18-1.62-.55-2.16-.73-.47-2.7,2.63-4.22,2.2-6.97C527.819,207.149,528.5,202.539,525.369,199.019Z" transform="translate(-0.099 1.681)" style="fill:#d3d5d0"/><path d="M79.759,201.379c.24-3.89,8.24-3.08,4.21.54-.53-.06-1.59-.19-2.12-.26Z" transform="translate(-0.099 1.681)" style="fill:#c5ced5"/><path d="M531.329,217.439a12.036,12.036,0,0,1,5.12.59c-.86,5.4-6.42,5.06-10.71,4.73-3.04-1.21-1.48-4.56,1.58-3.68C528.829,219.079,530.079,218.169,531.329,217.439Z" transform="translate(-0.099 1.681)" style="fill:#b5c0bf"/><path d="M111.279,230.1" transform="translate(-0.099 1.681)" style="fill:#d8d2c1"/><path d="M109.639,224.049" transform="translate(-0.099 1.681)" style="fill:#d8d2c1"/><path d="M153.9,225.059" transform="translate(-0.099 1.681)" style="fill:#aeaea4"/><path d="M622.279,228.489c2.51-.54,5.08-.78,7.6-1.35" transform="translate(-0.099 1.681)" style="fill:#1c3b59"/><path d="M84.169,227.979" transform="translate(-0.099 1.681)" style="fill:#9c9995"/><path d="M155.889,229.469" transform="translate(-0.099 1.681)" style="fill:#666461"/></svg>