<svg id="Layer_1" data-name="Layer 1" xmlns="http://www.w3.org/2000/svg" viewBox="0 0 244.309 115.845">


<path d="M213.574,144.571a18.168,18.168,0,0,1,.056-4.13l-.268,1.994c.666-4.857,2.5-9.676,2.049-14.641a17.733,17.733,0,0,0-2.625-8.551,17.306,17.306,0,0,0-6.464-5.825,33.769,33.769,0,0,0-15-3.242,34.26,34.26,0,0,0-14.991,3.459c-8.61,4.177-15.084,13.867-14.6,23.585.524,10.491,7.8,18.31,16.225,23.707,4.233,2.711,8.787,4.9,12.9,7.8.516.363,1.958,1.718.229.126.388.357.826.665,1.225,1.01a29.753,29.753,0,0,1,2.421,2.33c.121.131,1.194,1.148,1.154,1.337-.015.074-1-1.363-.579-.743.182.269.379.527.559.8a20.164,20.164,0,0,1,1.666,3.063l-.756-1.791a17.716,17.716,0,0,1,1.148,4.083l-.268-1.994a18.593,18.593,0,0,1,.025,4.577l.268-1.994a20.666,20.666,0,0,1-1.419,5.187l.756-1.792a21.17,21.17,0,0,1-1.855,3.392c-.17.249-.9,1.213-.1.179.831-1.071,0-.024-.143.141-.431.5-.888.973-1.365,1.426-.4.378-.993,1.138-1.511,1.308.152-.05,1.418-1.032.558-.455-.276.186-.548.377-.828.558a25.876,25.876,0,0,1-3.714,1.963l1.792-.756a29.193,29.193,0,0,1-7.37,1.979l1.993-.268a27.611,27.611,0,0,1-6.834.017l1.994.268a19.967,19.967,0,0,1-4.628-1.231l1.791.756a15.949,15.949,0,0,1-2.115-1.091c-.558-.349-1.276-1.153.241.268-.27-.253-.562-.477-.827-.736-.2-.195-.7-.562-.758-.814l.711.937c-.148-.2-.29-.4-.426-.608a12.9,12.9,0,0,1-1.037-1.958l.757,1.791a11.944,11.944,0,0,1-.741-2.811l.268,1.993a10.787,10.787,0,0,1,0-2.156l-.268,1.994a10.138,10.138,0,0,1,.414-1.764,7.559,7.559,0,0,0-5.239-9.226,7.672,7.672,0,0,0-9.226,5.238,17.329,17.329,0,0,0,2.325,14.777,21.625,21.625,0,0,0,12.987,8.78c8.931,2.047,19.371.173,26.79-5.3a27.835,27.835,0,0,0,9.31-11.019,27.309,27.309,0,0,0,2.15-15.543c-1.424-9.321-9.078-16.249-16.682-20.965-4.256-2.639-8.705-4.917-12.807-7.8-.208-.146-.787-.6.144.124,1.037.806.081.059-.151-.132q-.6-.492-1.177-1.011a28.757,28.757,0,0,1-2.192-2.2c-.344-.385-.659-.79-.993-1.182,1.568,1.839.28.32-.053-.2a20.162,20.162,0,0,1-1.519-2.845l.756,1.792a17.337,17.337,0,0,1-1.13-4.008l.268,1.994a16.408,16.408,0,0,1,0-4.083l-.268,1.994a18.434,18.434,0,0,1,1.176-4.3L177,133.922a19.968,19.968,0,0,1,1.686-3.149c.06-.091.555-.75.54-.776.042.071-1.192,1.433-.475.622.42-.475.826-.953,1.275-1.4.4-.4.844-.759,1.257-1.148.6-.564-1.613,1.148-.476.359.206-.144.41-.292.619-.431a22.454,22.454,0,0,1,3.6-1.918l-1.791.756a26.393,26.393,0,0,1,6.353-1.685l-1.994.268a31.636,31.636,0,0,1,7.881.032l-1.994-.268a26.131,26.131,0,0,1,6.179,1.541l-1.792-.756a15.279,15.279,0,0,1,1.558.764c.218.126.426.285.648.4.67.353-1.416-1.287-.463-.368.181.175.362.354.547.524.747.687-.332-.563-.439-.64a4.725,4.725,0,0,1,.951,1.7l-.756-1.792a12.053,12.053,0,0,1,.7,2.634l-.268-1.994a19.068,19.068,0,0,1-.084,4.809l.268-1.994c-.71,4.829-2.494,9.607-1.955,14.553a8.138,8.138,0,0,0,2.2,5.3,7.5,7.5,0,0,0,10.606,0c1.261-1.373,2.408-3.364,2.2-5.3Z" transform="translate(-158.086 -92.918)" style="fill:#231f20"/>


<path d="M223.311,100.423,219,139.959c-1.424,13.073-2.982,26.14-3.953,39.257q-.819,11.04-1.139,22.108a7.478,7.478,0,0,0,6.5,7.366c3.874.521,6.923-1.819,8.229-5.372,3.165-8.607,6.095-17.353,9.659-25.805l-.756,1.792a71.76,71.76,0,0,1,3.41-7.033q.882-1.566,1.874-3.067.447-.672.918-1.327c.157-.219.321-.432.477-.651.5-.707-1.237,1.526-.306.4a36.773,36.773,0,0,1,4.614-4.748,4.244,4.244,0,0,1,.775-.631c-.167.073-1.4,1.031-.559.452.439-.3.873-.61,1.324-.9a23.128,23.128,0,0,1,3.052-1.647l-1.792.756a15.379,15.379,0,0,1,3.471-1l-1.994.268a11.065,11.065,0,0,1,2.447-.059l-1.994-.268a8.046,8.046,0,0,1,1.947.506l-1.791-.756a7,7,0,0,0,.883.478c-.081,0-1.7-1.232-.6-.41.465.347-.945-1.6-.468-.624.141.289.307.561.437.858l-.756-1.792a7.793,7.793,0,0,1,.406,1.561l-.267-1.994a9,9,0,0,1-.009,1.982l.268-1.994a9.816,9.816,0,0,1-.632,2.273l.756-1.792c-.237.519-.55.976-.821,1.472.917-1.675.83-1.012.237-.4-.227.233-.485.435-.715.664-.55.544,1.6-1.032.431-.349-.282.164-.55.352-.833.515a18.145,18.145,0,0,1-1.954.949l1.791-.756c-4.46,1.78-9.3,1.939-12.975,5.44-4.781,4.557-4.026,11.255-1.707,16.777,1.769,4.213,3.5,8.5,6.242,12.195a25.907,25.907,0,0,0,12.533,9.619c5.205,1.8,11.8,1.4,16.34-1.912a8.134,8.134,0,0,0,3.447-4.482,7.667,7.667,0,0,0-.756-5.779c-2.018-3.131-6.872-5.165-10.261-2.691a10.866,10.866,0,0,1-1.834,1.082l1.792-.756a11.242,11.242,0,0,1-2.691.753l1.994-.268a13.433,13.433,0,0,1-3.2,0l1.994.268a15.954,15.954,0,0,1-3.869-1.074l1.792.756a16.807,16.807,0,0,1-2.123-1.112c-.312-.195-.608-.409-.911-.617-.621-.426,1.553,1.3.371.243a20.156,20.156,0,0,1-1.832-1.865c-.408-.472-.9-1.539.166.268-.2-.342-.479-.653-.7-.981a51.458,51.458,0,0,1-4.626-9.047l.756,1.791a22.169,22.169,0,0,1-1.759-5.385l.268,1.993a9.059,9.059,0,0,1-.027-1.545l-.268,1.994a6.326,6.326,0,0,1,.374-1.458l-.756,1.791c.152-.311.818-1.262,0-.192-.99,1.288.092.074.117.02-.082.177-1.534,1.005-.675.6.317-.15.618-.311.942-.45l-1.792.756a36.62,36.62,0,0,1,4.211-1.157,34.382,34.382,0,0,0,5.936-2.177,17.3,17.3,0,0,0,8.309-7.911,15.231,15.231,0,0,0-.041-13.966c-2.337-4.275-7.05-6.532-11.78-6.681-7.534-.239-14.8,4.8-19.681,10.117-5.362,5.831-8.81,12.759-11.757,20.038-3.213,7.937-6,16.065-8.953,24.1l14.732,1.994c.775-26.338,4.126-52.491,6.976-78.662l2.423-22.239a7.49,7.49,0,0,0-2.2-5.3,7.5,7.5,0,0,0-10.606,0,8.616,8.616,0,0,0-2.2,5.3Z" transform="translate(-158.086 -92.918)" style="fill:#231f20"/>


<path d="M277.683,152.671l-1.118,25.975c-.194,4.5-.528,9,.479,13.447,1.027,4.527,4.006,9.161,8.218,11.312,5.195,2.654,12.438,2.289,16.4-2.455a8.042,8.042,0,0,0,2.2-5.3,7.632,7.632,0,0,0-2.2-5.3c-2.774-2.547-7.92-3.214-10.606,0-.222.265-1.31,1.2-.173.3,1.113-.88-.017-.1-.355.046l1.792-.756a7.373,7.373,0,0,1-1.574.4l1.994-.267a8.26,8.26,0,0,1-1.649-.015l1.994.268a8.069,8.069,0,0,1-1.6-.419l1.792.756c-.133-.058-1.211-.679-1.233-.663.11-.08,1.382,1.265.647.489-.208-.22-.426-.454-.648-.658-.6-.546.9,1.345.484.643-.126-.215-.278-.415-.405-.63a12.713,12.713,0,0,1-.751-1.516l.756,1.792a15.876,15.876,0,0,1-.9-3.579l.268,1.994a53.238,53.238,0,0,1,0-8.386l.4-9.241.785-18.233a7.555,7.555,0,0,0-7.5-7.5,7.659,7.659,0,0,0-7.5,7.5Z" transform="translate(-158.086 -92.918)" style="fill:#231f20"/>

<path d="M287.332,133.881c3.923,0,7.681-3.45,7.5-7.5a7.631,7.631,0,0,0-7.5-7.5c-3.923,0-7.682,3.449-7.5,7.5a7.631,7.631,0,0,0,7.5,7.5Z" transform="translate(-158.086 -92.918)" style="fill:#231f20"/>

<path d="M311.108,102.935a391.908,391.908,0,0,0-5.986,46.426q-.761,11.18-.85,22.393-.045,5.724.086,11.449c.091,3.988-.056,8.257.9,12.154,1.268,5.15,5.527,9.685,10.888,10.531a14.4,14.4,0,0,0,9.138-1.347,13.656,13.656,0,0,0,5.632-5.564c1.849-3.459.983-8.321-2.691-10.262-3.481-1.839-8.286-1-10.261,2.691-.155.291-.8,1.188.006.163.839-1.064.044-.124-.13.061-.718.763.534-.554.664-.492-.012-.006-.9.5-.954.53l1.791-.756a7.662,7.662,0,0,1-1.742.5l1.994-.268a7.836,7.836,0,0,1-1.453.011l1.994.268a7.823,7.823,0,0,1-1.755-.459l1.792.756c-.339-.153-.646-.321-.969-.5-1.035-.585,1.06,1.027.516.389a3.281,3.281,0,0,1-.256-.258q-.585-.641.6.81a6.184,6.184,0,0,0-.587-1.056l.756,1.792a11.6,11.6,0,0,1-.738-2.727l.268,1.994a110.764,110.764,0,0,1-.475-12.612q-.085-6.576.061-13.154.292-13.152,1.512-26.262.7-7.52,1.7-15.007l-.268,1.994q1.365-10.142,3.273-20.2a8.042,8.042,0,0,0-.756-5.78,7.643,7.643,0,0,0-4.482-3.446c-3.7-.842-8.444,1.116-9.226,5.238Z" transform="translate(-158.086 -92.918)" style="fill:#231f20"/>

<path d="M339.177,103.132q-3.007,23.011-4.557,46.181-.76,11.454-1.16,22.929-.2,5.8-.311,11.6c-.072,3.8-.264,7.616.523,11.363a14.164,14.164,0,0,0,10.552,10.924,13.9,13.9,0,0,0,15.191-6.873c1.811-3.477,1.008-8.307-2.691-10.262-3.449-1.822-8.326-1.024-10.261,2.691a4.406,4.406,0,0,1-.262.477q-.457.738.652-.777a5.245,5.245,0,0,0-.627.655q-.426.38.337-.243.865-.637.165-.169c-.33.15-.639.339-.975.482l1.791-.756a7.971,7.971,0,0,1-1.4.364l1.993-.268a7.9,7.9,0,0,1-1.538,0l1.994.268a7.919,7.919,0,0,1-1.851-.517l1.792.756a7.347,7.347,0,0,1-1.008-.565c-.038.062,1.651,1.229.5.291q-.39-.434.228.324.632.857.161.156c-.155-.33-.347-.642-.5-.977l.756,1.792a12.171,12.171,0,0,1-.719-2.882l.268,1.993a60.679,60.679,0,0,1-.082-7.759q.079-4.443.215-8.885.265-8.76.744-17.512.954-17.5,2.753-34.944,1.026-9.946,2.325-19.861c.231-1.761-1-4.111-2.2-5.3a7.5,7.5,0,0,0-10.607,0,8.837,8.837,0,0,0-2.2,5.3Z" transform="translate(-158.086 -92.918)" style="fill:#231f20"/>

<path d="M400.77,163.185a11.728,11.728,0,0,0,1.318-4.734,11.913,11.913,0,0,0-3.36-8.721c-2.85-3.143-6.968-4.059-10.991-4.484-6.11-.645-12.914-.514-18.248,2.932a17.508,17.508,0,0,0-7.178,8.85,15.653,15.653,0,0,0,.163,10.387,20.731,20.731,0,0,0,5.926,8.735,37.139,37.139,0,0,0,7.769,5,80.918,80.918,0,0,1,7.886,4.018c.3.187.587.377.874.576l.341.241q.939.7-.524-.41a15,15,0,0,0,1.533,1.42,4.964,4.964,0,0,0,.506.566q-1.152-1.541-.474-.609l.216.317a13.506,13.506,0,0,1,1.081,2.024l-.756-1.791a12.2,12.2,0,0,1,.719,2.535l-.268-1.994a9.87,9.87,0,0,1,.007,2.587l.268-1.993a9.4,9.4,0,0,1-.5,1.783l.756-1.791a9.8,9.8,0,0,1-.475.958c-.161.278-.828,1.169-.009.117s.121-.178-.1.05c-.248.259-.513.493-.78.732-.9.8,1.264-.869.512-.407-.26.159-.508.337-.771.492a18.576,18.576,0,0,1-1.981,1l1.791-.756a26.78,26.78,0,0,1-6.768,1.8l1.994-.268a19.8,19.8,0,0,1-4.925-.011l1.994.268a14.95,14.95,0,0,1-3.12-.845l1.792.757a13.43,13.43,0,0,1-1.621-.816,5.5,5.5,0,0,0-.906-.6c.278.026,1.5,1.255.544.37-.22-.2-.423-.421-.634-.635-.84-.853.857,1.277.391.546a12.736,12.736,0,0,1-.95-1.7l.756,1.792c-.133-.337-.247-.668-.351-1.015-1.121-3.755-5.314-6.5-9.226-5.238-3.8,1.23-6.44,5.2-5.238,9.226a18.574,18.574,0,0,0,15.572,12.763,29,29,0,0,0,18.924-3.975,17.555,17.555,0,0,0,6.914-7.929,15.76,15.76,0,0,0,.421-11.079c-2.242-6.562-7.4-10.939-13.468-13.94-2.645-1.309-5.384-2.44-7.907-3.983q-.447-.273-.883-.564c-.229-.153-1.479-1.082-.428-.267s-.046-.059-.211-.205c-.314-.277-.62-.565-.911-.866-.182-.188-.354-.385-.53-.579-.95-1.041.885,1.4.213.26A19.983,19.983,0,0,1,376.329,162l.756,1.791a12.163,12.163,0,0,1-.742-2.618l.268,1.994a10.241,10.241,0,0,1-.032-2.3l-.268,1.993a9.081,9.081,0,0,1,.6-2.187l-.756,1.791a12.888,12.888,0,0,1,.808-1.413c.455-.717-1.254,1.335-.369.535.222-.2.455-.417.658-.634.567-.606-1.359.933-.654.486.26-.166.508-.351.773-.51a13.838,13.838,0,0,1,1.659-.835l-1.792.756a16.635,16.635,0,0,1,3.593-.953l-1.994.268a37.587,37.587,0,0,1,9.716.175l-1.994-.268a12.487,12.487,0,0,1,2.758.713l-1.791-.756c.3.139.594.337.9.463.718.3-1.4-1.274-.545-.414.717.717-.533-.6-.514-.713-.011.066.44.822.479.912l-.756-1.791a6.129,6.129,0,0,1,.261.971l-.268-1.994a4.968,4.968,0,0,1,0,.983l.268-1.993a3.15,3.15,0,0,1-.161.639l.756-1.792-.133.309a8.214,8.214,0,0,0-.757,5.78,7.656,7.656,0,0,0,3.447,4.482,7.575,7.575,0,0,0,5.779.756c1.728-.559,3.728-1.7,4.483-3.447Z" transform="translate(-158.086 -92.918)" style="fill:#231f20"/></svg>