<svg id="Layer_1" data-name="Layer 1" xmlns="http://www.w3.org/2000/svg" viewBox="0 0 234.997 213.516"><path d="M81.222,412.314q-.111.879-.147,1.685c-.024.537-.036,1.075-.036,1.611a19.83,19.83,0,0,0,1.117,7.086,11.862,11.862,0,0,0,3.185,4.742,12.536,12.536,0,0,0,4.981,2.656,23.973,23.973,0,0,0,6.537.824,23.211,23.211,0,0,0,6.885-1.007,16.857,16.857,0,0,0,5.731-3.021,14.725,14.725,0,0,0,3.937-5,15.487,15.487,0,0,0,1.464-6.9,14.6,14.6,0,0,0-.677-4.559,14.957,14.957,0,0,0-1.867-3.809,17.85,17.85,0,0,0-2.821-3.2,32.76,32.76,0,0,0-3.552-2.766q-1.923-1.3-4.046-2.49t-4.322-2.4Q95.284,394.517,93,393.2a51.227,51.227,0,0,1-4.377-2.82,34.653,34.653,0,0,1-3.882-3.24,19.637,19.637,0,0,1-3.094-3.864,19.318,19.318,0,0,1-2.051-4.688,20.128,20.128,0,0,1-.751-5.676,25.453,25.453,0,0,1,.989-7.232,24.217,24.217,0,0,1,2.765-6.153,23.458,23.458,0,0,1,4.248-5,26.191,26.191,0,0,1,5.42-3.716,27.293,27.293,0,0,1,6.3-2.308,29.956,29.956,0,0,1,6.866-.787,31.669,31.669,0,0,1,3.443.2,34.8,34.8,0,0,1,3.662.605,32.737,32.737,0,0,1,3.5.97,17.048,17.048,0,0,1,2.948,1.3,7.911,7.911,0,0,1,2.051,1.611,2.8,2.8,0,0,1,.769,1.868q0,1.063-.037,2.655t-.092,3.626q-.054,2.031-.164,4.43t-.256,5.073l-3.7-.183q.11-1.318.11-2.527a17.514,17.514,0,0,0-1.08-6.391,12.5,12.5,0,0,0-3.04-4.614,12.707,12.707,0,0,0-4.724-2.783,19.1,19.1,0,0,0-6.134-.934,17.4,17.4,0,0,0-6.281,1.117,15.212,15.212,0,0,0-5.035,3.113,14.384,14.384,0,0,0-3.333,4.742,14.85,14.85,0,0,0-1.208,6.043,15.412,15.412,0,0,0,2.618,8.862,17.5,17.5,0,0,0,2.911,3.333,34.609,34.609,0,0,0,3.663,2.838q1.977,1.336,4.174,2.545t4.432,2.417q2.307,1.209,4.595,2.49t4.377,2.729A31.4,31.4,0,0,1,117.458,396a19.891,19.891,0,0,1,3.077,3.771,18.689,18.689,0,0,1,2.05,4.56,19.132,19.132,0,0,1,.751,5.53,26.6,26.6,0,0,1-1.374,8.9,22.877,22.877,0,0,1-3.68,6.757,23.176,23.176,0,0,1-5.291,4.851,30.834,30.834,0,0,1-6.208,3.187,34.265,34.265,0,0,1-6.445,1.739,37,37,0,0,1-5.969.531,44.538,44.538,0,0,1-6.812-.494,34.114,34.114,0,0,1-5.585-1.3,13.206,13.206,0,0,1-3.771-1.848,2.836,2.836,0,0,1-1.374-2.143q0-2.454.165-7.031t.531-10.877Z" transform="translate(-76.827 -222.309)" style="fill:#231f20"/><path d="M151.388,410.264a56.541,56.541,0,0,0,8.02-3.333,36.229,36.229,0,0,0,6.244-3.992,17.72,17.72,0,0,0,4.046-4.467,9.115,9.115,0,0,0,1.428-4.8,4.559,4.559,0,0,0-1.41-3.351,4.511,4.511,0,0,0-1.5-.933,5.121,5.121,0,0,0-1.849-.33,9.558,9.558,0,0,0-4.78,1.428,20.616,20.616,0,0,0-4.907,4.138,41.216,41.216,0,0,0-4.742,6.629,64.5,64.5,0,0,0-4.285,8.9A96.159,96.159,0,0,0,144.1,421.1a109.976,109.976,0,0,0-2.527,12.744l-7.4.952-.586-.037q.219-4.32.494-9.539t.586-11.078q.311-5.859.66-12.213t.695-12.946q.348-6.593.714-13.294t.715-13.238q.346-6.537.677-12.8t.622-11.975a2.672,2.672,0,0,1,.513-1.52,3.465,3.465,0,0,1,1.227-1.025,6.315,6.315,0,0,1,1.7-.568,10.458,10.458,0,0,1,1.977-.183,10.578,10.578,0,0,1,4.615,1.172q-.843,7.507-1.5,13.769t-1.19,11.627q-.531,5.365-.971,10.034t-.787,8.936q-.348,4.267-.659,8.349t-.6,8.3q-.294,4.212-.6,8.716t-.677,9.668l.22.037a86.5,86.5,0,0,1,3.112-8.606,78.483,78.483,0,0,1,3.956-8.075,59.9,59.9,0,0,1,4.65-7.068,37.8,37.8,0,0,1,5.2-5.585,23.934,23.934,0,0,1,5.6-3.68,13.847,13.847,0,0,1,5.859-1.337,9.545,9.545,0,0,1,3.442.6,8.009,8.009,0,0,1,2.729,1.722,7.791,7.791,0,0,1,1.794,2.691A9.256,9.256,0,0,1,179,389.17a13.918,13.918,0,0,1-1.318,5.9,21.481,21.481,0,0,1-3.736,5.493,34.93,34.93,0,0,1-5.8,5,55.843,55.843,0,0,1-7.526,4.376q2.452,4.5,4.413,7.709t3.553,5.383a29.819,29.819,0,0,0,2.874,3.46,13.166,13.166,0,0,0,2.362,1.942,6.563,6.563,0,0,0,2.033.86,9.119,9.119,0,0,0,1.9.2,14.371,14.371,0,0,0,3.955-.586,29.141,29.141,0,0,0,4.138-1.538l.7,1.9a22.556,22.556,0,0,1-3.333,2.161,41.341,41.341,0,0,1-4.266,2.013,34.783,34.783,0,0,1-4.468,1.484,15.988,15.988,0,0,1-3.9.567,6.6,6.6,0,0,1-3.937-1.446,21.39,21.39,0,0,1-4.211-4.487,83.586,83.586,0,0,1-4.962-7.708q-2.711-4.67-6.226-11.151Z" transform="translate(-76.827 -222.309)" style="fill:#231f20"/><path d="M203.646,382.322q-.624,4.175-1.062,8.367t-.714,8.112q-.274,3.92-.4,7.416t-.128,6.317q0,3.81.11,6.537t.366,4.6a16.136,16.136,0,0,0,.641,2.984,4.738,4.738,0,0,0,.952,1.722,2.647,2.647,0,0,0,1.319.787,7.2,7.2,0,0,0,1.7.183,15.057,15.057,0,0,0,3.791-.531,25.4,25.4,0,0,0,4.119-1.483l.7,1.9a23.063,23.063,0,0,1-3.314,2.161,42.96,42.96,0,0,1-4.193,2.014,34.87,34.87,0,0,1-4.3,1.484,14.33,14.33,0,0,1-3.644.567,9.747,9.747,0,0,1-1.868-.165,2.971,2.971,0,0,1-1.52-.824,5.777,5.777,0,0,1-1.208-1.941,15.848,15.848,0,0,1-.879-3.479q-.348-2.2-.531-5.493t-.183-7.983q0-2.747.055-6.208t.165-7.433q.109-3.974.293-8.387t.476-9.1a3.12,3.12,0,0,1,.549-1.667,3.268,3.268,0,0,1,1.172-.988,5.15,5.15,0,0,1,1.483-.477,9.1,9.1,0,0,1,1.447-.127A9.777,9.777,0,0,1,203.646,382.322Zm-3.186-16.553a4.727,4.727,0,0,1-2.271-.531,5.47,5.47,0,0,1-1.684-1.391,6.166,6.166,0,0,1-1.062-1.978,7.693,7.693,0,0,1,.183-5.2,6.621,6.621,0,0,1,1.428-2.124A5.842,5.842,0,0,1,199,353.263a5.633,5.633,0,0,1,2.088-.421,5.259,5.259,0,0,1,2.233.458,5.133,5.133,0,0,1,1.7,1.263,5.8,5.8,0,0,1,1.1,1.849,6.477,6.477,0,0,1,.384,2.253,7.7,7.7,0,0,1-.439,2.545,8.107,8.107,0,0,1-1.227,2.289,6.171,6.171,0,0,1-1.9,1.647A4.983,4.983,0,0,1,200.46,365.769Z" transform="translate(-76.827 -222.309)" style="fill:#231f20"/><path d="M235.946,335.557q-.734,6.226-1.446,12.762t-1.356,13.22q-.64,6.684-1.19,13.422T231,388.236q-.4,6.537-.623,12.836t-.219,12.085q0,3.626.091,6.225t.293,4.394a15.647,15.647,0,0,0,.549,2.894,4.7,4.7,0,0,0,.861,1.684,2.514,2.514,0,0,0,1.209.788,5.967,5.967,0,0,0,1.648.2,15.05,15.05,0,0,0,3.79-.531,25.411,25.411,0,0,0,4.12-1.483l.7,1.9a23.022,23.022,0,0,1-3.315,2.161,42.96,42.96,0,0,1-4.193,2.014,34.813,34.813,0,0,1-4.3,1.484,14.323,14.323,0,0,1-3.644.567,4.594,4.594,0,0,1-3.13-1.007,6.441,6.441,0,0,1-1.758-3.278,28.742,28.742,0,0,1-.77-5.914q-.164-3.643-.164-8.881,0-1.9.11-5.438t.311-8.221q.2-4.687.458-10.254t.549-11.518q.292-5.95.622-12.011t.66-11.719q.328-5.658.622-10.675t.549-8.862a2.672,2.672,0,0,1,.513-1.52,3.465,3.465,0,0,1,1.227-1.025,6.328,6.328,0,0,1,1.685-.568,9.771,9.771,0,0,1,1.886-.183A10.577,10.577,0,0,1,235.946,335.557Z" transform="translate(-76.827 -222.309)" style="fill:#231f20"/><path d="M264.986,335.557q-.732,6.226-1.446,12.762t-1.355,13.22q-.642,6.684-1.19,13.422t-.953,13.275q-.4,6.537-.622,12.836t-.22,12.085q0,3.626.092,6.225t.293,4.394a15.647,15.647,0,0,0,.549,2.894,4.686,4.686,0,0,0,.861,1.684,2.507,2.507,0,0,0,1.208.788,5.977,5.977,0,0,0,1.648.2,15.057,15.057,0,0,0,3.791-.531,25.4,25.4,0,0,0,4.119-1.483l.7,1.9a23.063,23.063,0,0,1-3.314,2.161,42.96,42.96,0,0,1-4.193,2.014,34.826,34.826,0,0,1-4.3,1.484,14.316,14.316,0,0,1-3.643.567,4.6,4.6,0,0,1-3.131-1.007,6.455,6.455,0,0,1-1.758-3.278,28.751,28.751,0,0,1-.769-5.914q-.165-3.643-.165-8.881,0-1.9.11-5.438t.312-8.221q.2-4.687.457-10.254t.549-11.518q.294-5.95.623-12.011t.659-11.719q.33-5.658.623-10.675t.549-8.862a2.664,2.664,0,0,1,.513-1.52,3.465,3.465,0,0,1,1.227-1.025,6.321,6.321,0,0,1,1.684-.568,9.778,9.778,0,0,1,1.886-.183A10.57,10.57,0,0,1,264.986,335.557Z" transform="translate(-76.827 -222.309)" style="fill:#231f20"/><path d="M281.5,420.627a10.83,10.83,0,0,0,4.5,8.094,12.857,12.857,0,0,0,3.973,1.9,15.732,15.732,0,0,0,4.34.622,13.692,13.692,0,0,0,3.882-.549,10.839,10.839,0,0,0,3.3-1.575,7.939,7.939,0,0,0,2.289-2.526,6.66,6.66,0,0,0,.86-3.369,6.293,6.293,0,0,0-.915-3.406,10.505,10.505,0,0,0-2.454-2.674,21.279,21.279,0,0,0-3.569-2.233q-2.034-1.026-4.23-2.088-1.943-.915-3.9-1.849t-3.791-2.033a30.26,30.26,0,0,1-3.424-2.38,16.506,16.506,0,0,1-2.783-2.838,12.563,12.563,0,0,1-1.868-3.479,12.762,12.762,0,0,1-.677-4.267,12.043,12.043,0,0,1,.879-4.65,13.4,13.4,0,0,1,2.4-3.827,16.959,16.959,0,0,1,3.516-2.985,22.885,22.885,0,0,1,4.266-2.142,25.7,25.7,0,0,1,4.669-1.282,26.955,26.955,0,0,1,4.67-.421,23.334,23.334,0,0,1,5.547.64,15.53,15.53,0,0,1,4.578,1.869,10.005,10.005,0,0,1,3.113,2.984,7.057,7.057,0,0,1,1.153,3.955,6.448,6.448,0,0,1-.293,1.831,5.34,5.34,0,0,1-.989,1.85,5.639,5.639,0,0,1-1.83,1.446,6.327,6.327,0,0,1-2.783.623,11.854,11.854,0,0,1-3.223-.476l-.11-.367a11.824,11.824,0,0,0,.732-2.16,8.451,8.451,0,0,0,.22-1.831,4.968,4.968,0,0,0-.86-2.839,6.7,6.7,0,0,0-2.07-1.886,9.31,9.31,0,0,0-2.764-1.062,14.116,14.116,0,0,0-2.985-.329,14.43,14.43,0,0,0-4.651.7,10.982,10.982,0,0,0-3.461,1.849,8.233,8.233,0,0,0-2.16,2.618,6.583,6.583,0,0,0-.751,3.04,6.354,6.354,0,0,0,1.062,3.607,12.24,12.24,0,0,0,2.82,2.93,27,27,0,0,0,4.047,2.508q2.288,1.173,4.779,2.344,2.783,1.318,5.529,2.728a26.861,26.861,0,0,1,4.907,3.2,15.143,15.143,0,0,1,3.5,4.119,10.794,10.794,0,0,1,1.337,5.476,13.313,13.313,0,0,1-1.666,6.7,15.515,15.515,0,0,1-4.45,4.944,20.54,20.54,0,0,1-6.39,3.058,26.831,26.831,0,0,1-7.488,1.043,28.645,28.645,0,0,1-4.01-.293,26.8,26.8,0,0,1-4.01-.879,23.67,23.67,0,0,1-3.681-1.446,14.429,14.429,0,0,1-3.04-1.978,8.917,8.917,0,0,1-2.05-2.49,6.189,6.189,0,0,1-.751-3.021,4.56,4.56,0,0,1,.6-2.417,4.9,4.9,0,0,1,1.593-1.611,7.69,7.69,0,0,1,2.216-.934,11.564,11.564,0,0,1,2.508-.348Z" transform="translate(-76.827 -222.309)" style="fill:#231f20"/><path d="M147,199.319" transform="translate(-76.827 -222.309)" style="fill:none;stroke:#1d1b1c;stroke-miterlimit:10"/><path d="M62.868,169.253" transform="translate(-76.827 -222.309)" style="fill:none;stroke:#ed1964;stroke-miterlimit:10"/><path d="M129.527,242.374V229.319s-21.56-16.682-33.3,3.362S111.4,264.527,111.4,264.527s16.417,10.088,17.34,13.121,2.835,8.638-4.088,21.429S90.3,301.912,90.3,301.912l-.792-17.143" transform="translate(-76.827 -222.309)" style="fill:none;stroke:#ed1964;stroke-miterlimit:10"/></svg>