<svg version="1.2" xmlns="http://www.w3.org/2000/svg" viewBox="0 0 180 180" width="180" height="180">
	<title>jp</title>
	<style>
		.s0 { fill: #16a34a } 
		.s1 { fill: #ffffff } 
	</style>
	<path id="JP - green" class="s0" aria-label="JP"  d="m49.2 103.8v-68.3h23.9v68.3q0 9.5-4.4 16.9-4.4 7.5-12.4 11.6-7.8 4.1-17.5 4.1-16.3 0-25.3-8.2-9-8.2-9-23.3h24q0 6.9 2.3 9.9 2.4 3.1 8 3.1 5 0 7.6-3.7 2.8-3.7 2.8-10.4zm78.3-2.6h-15.3v33.8h-24v-99.5h39.7q11.4 0 20.2 4.2 8.8 4.2 13.6 12 4.8 7.7 4.8 17.5 0 14.6-10.4 23.3-10.4 8.7-28.6 8.7zm-15.3-47.2v28.7h15.7q7 0 10.6-3.5 3.7-3.5 3.7-9.8 0-7-3.8-11.2-3.7-4.1-10.2-4.2z"/>
	<path id="JP - white" class="s1" aria-label="JP"  d="m58 103.8v-68.3h24v68.3q0 9.5-4.5 16.9-4.3 7.5-12.3 11.6-7.8 4.1-17.5 4.1-16.3 0-25.3-8.2-9.1-8.2-9.1-23.3h24.1q0 6.9 2.3 9.9 2.4 3.1 8 3.1 4.9 0 7.6-3.7 2.7-3.7 2.7-10.4zm78.4-2.6h-15.3v33.8h-24v-99.5h39.7q11.4 0 20.2 4.2 8.8 4.2 13.6 12 4.8 7.7 4.8 17.5 0 14.6-10.4 23.3-10.4 8.7-28.6 8.7zm-15.3-47.2v28.7h15.7q7 0 10.6-3.5 3.7-3.5 3.7-9.8 0-7-3.8-11.2-3.7-4.1-10.2-4.2z"/>
</svg>