<?xml version="1.0" encoding="UTF-8" ?>
<!DOCTYPE svg PUBLIC "-//W3C//DTD SVG 1.1//EN" "http://www.w3.org/Graphics/SVG/1.1/DTD/svg11.dtd">
<svg width="312pt" height="244pt" viewBox="0 0 312 244" version="1.1" xmlns="http://www.w3.org/2000/svg">
<g id="#764abcff">
<path fill="#764abc" opacity="1.00" d=" M 125.35 33.35 C 133.50 24.87 145.16 19.46 157.04 20.14 C 169.01 20.54 179.91 27.75 186.71 37.34 C 193.51 46.76 196.58 58.31 197.61 69.75 C 194.21 68.62 190.79 67.56 187.35 66.59 C 186.07 56.18 182.03 45.88 174.90 38.08 C 169.64 32.34 161.74 28.86 153.90 29.87 C 144.69 31.03 135.22 34.97 129.70 42.75 C 120.87 54.44 117.95 69.64 119.13 84.02 C 119.85 95.68 123.58 107.08 129.56 117.10 C 134.38 116.72 139.55 118.83 141.69 123.39 C 144.84 129.24 141.52 137.20 135.21 139.17 C 130.02 141.00 123.78 138.55 121.37 133.58 C 119.49 130.14 120.08 125.95 121.63 122.51 C 112.73 107.34 107.78 89.60 109.31 71.95 C 110.62 57.94 115.27 43.55 125.35 33.35 Z" />
<path fill="#764abc" opacity="1.00" d=" M 134.32 78.01 C 134.11 71.12 141.24 65.27 147.95 66.88 C 151.35 67.48 153.92 69.96 155.87 72.64 C 175.76 72.08 196.21 77.43 212.01 89.83 C 223.47 98.82 233.33 111.16 235.69 125.89 C 236.08 133.59 236.82 141.85 232.95 148.88 C 225.83 162.20 210.72 169.92 195.95 170.55 C 185.97 171.12 176.08 168.57 167.06 164.45 C 170.19 162.16 173.27 159.78 176.18 157.20 C 185.97 161.10 197.15 163.10 207.37 159.64 C 220.14 155.38 229.23 141.33 226.45 127.89 C 223.67 114.28 214.28 102.73 202.83 95.24 C 189.26 86.16 172.80 81.51 156.49 82.35 C 154.51 85.47 151.79 88.50 147.93 89.08 C 141.24 90.69 134.13 84.87 134.32 78.01 Z" />
<path fill="#764abc" opacity="1.00" d=" M 78.45 120.82 C 81.61 108.32 90.36 98.04 100.59 90.56 C 101.38 94.03 102.25 97.49 103.30 100.89 C 95.63 107.16 88.92 115.30 86.62 125.13 C 84.08 135.23 87.98 146.41 95.59 153.35 C 103.00 159.85 113.42 161.24 122.91 160.48 C 135.83 159.50 147.67 153.33 158.01 145.87 C 166.43 139.79 173.33 131.71 178.16 122.52 C 174.69 118.53 173.59 112.35 176.91 107.93 C 180.64 102.11 189.84 101.39 194.48 106.48 C 198.73 110.67 198.65 118.20 194.32 122.30 C 192.53 124.23 189.94 124.97 187.53 125.79 C 179.21 142.58 165.02 156.48 147.68 163.75 C 135.57 168.76 122.11 172.05 109.01 169.51 C 98.91 167.66 88.96 162.51 83.14 153.81 C 76.88 144.17 75.71 131.82 78.45 120.82 Z" />
</g>
<g id="#303030ff">
<path fill="#fff" opacity="1.00" d=" M 160.57 180.14 C 163.58 180.13 166.58 180.07 169.59 179.93 C 169.68 194.25 169.55 208.58 169.66 222.90 C 167.09 223.00 164.51 222.92 161.97 222.53 C 161.74 221.42 161.51 220.31 161.28 219.21 C 158.68 221.49 155.61 223.69 151.95 223.47 C 147.32 223.67 143.43 220.05 142.02 215.85 C 139.72 209.18 140.33 200.70 145.73 195.66 C 149.77 191.85 156.29 191.58 160.68 194.95 C 160.56 190.01 160.63 185.07 160.57 180.14 M 153.62 199.66 C 151.05 201.07 150.28 204.26 150.27 206.98 C 150.23 210.19 149.99 214.24 153.07 216.24 C 155.89 217.46 158.57 215.72 160.69 214.00 C 160.56 209.62 160.57 205.24 160.68 200.87 C 158.56 199.69 156.03 198.59 153.62 199.66 Z" />
<path fill="#fff" opacity="1.00" d=" M 77.79 181.38 C 84.32 181.24 90.89 180.90 97.39 181.57 C 103.14 182.23 109.15 186.61 108.81 192.93 C 109.46 198.43 105.70 203.32 100.79 205.35 C 105.89 210.46 108.82 217.19 112.83 223.10 C 109.06 222.58 105.07 223.69 101.45 222.39 C 97.52 218.08 95.96 212.07 91.99 207.78 C 90.59 207.55 89.18 207.39 87.77 207.29 C 87.76 212.58 87.79 217.87 87.74 223.16 C 84.43 223.18 81.12 223.05 77.82 222.78 C 78.42 216.20 78.08 209.58 78.14 202.98 C 78.00 195.78 78.44 188.56 77.79 181.38 M 87.75 188.43 C 87.77 192.54 87.77 196.65 87.76 200.76 C 90.27 200.67 92.85 200.93 95.32 200.31 C 99.26 199.01 100.82 193.24 97.75 190.31 C 95.12 187.69 91.08 188.69 87.75 188.43 Z" />
<path fill="#fff" opacity="1.00" d=" M 115.37 196.30 C 121.18 191.12 131.48 191.33 136.37 197.66 C 139.03 200.99 138.95 205.41 138.83 209.44 C 132.28 209.92 125.71 209.53 119.16 209.72 C 120.10 212.40 121.20 215.77 124.37 216.48 C 128.14 217.58 131.45 215.10 134.95 214.25 C 136.54 215.37 137.76 216.90 139.10 218.30 C 133.40 223.94 123.77 225.26 116.94 220.95 C 109.00 215.66 108.10 202.53 115.37 196.30 M 119.16 204.39 C 123.19 204.53 127.22 204.52 131.25 204.42 C 130.61 201.43 128.45 198.24 124.96 198.84 C 121.82 198.98 120.40 201.97 119.16 204.39 Z" />
<path fill="#fff" opacity="1.00" d=" M 174.26 193.22 C 177.31 193.24 180.35 193.24 183.40 193.21 C 183.42 199.49 183.31 205.78 183.40 212.06 C 183.31 213.71 183.89 215.50 185.42 216.34 C 187.87 217.25 190.63 216.29 192.48 214.57 C 192.89 207.46 192.49 200.32 192.63 193.20 C 195.66 193.24 198.69 193.24 201.72 193.23 C 201.66 203.11 201.66 212.99 201.72 222.87 C 198.58 223.02 194.31 224.01 193.17 220.04 C 190.54 222.08 187.43 223.84 183.98 223.45 C 178.76 223.50 174.48 218.74 174.39 213.65 C 174.10 206.84 174.41 200.03 174.26 193.22 Z" />
<path fill="#fff" opacity="1.00" d=" M 203.62 193.23 C 206.97 193.28 210.35 193.02 213.69 193.41 C 216.35 196.21 217.88 199.85 219.95 203.08 C 221.79 199.89 223.37 196.50 225.63 193.58 C 228.79 192.86 232.09 193.34 235.31 193.24 C 231.84 197.75 228.79 202.54 225.42 207.11 C 228.83 212.46 232.21 217.82 235.72 223.11 C 232.34 222.71 228.82 223.53 225.53 222.61 C 222.86 219.82 221.54 216.05 219.29 212.95 C 216.34 215.64 215.50 220.01 212.48 222.69 C 209.42 223.19 206.28 222.93 203.19 223.12 C 206.63 217.96 210.02 212.78 213.50 207.65 C 210.24 202.82 207.01 197.97 203.62 193.23 Z" />
</g>
</svg>
