<?xml version="1.0" encoding="UTF-8" ?>
<!DOCTYPE svg PUBLIC "-//W3C//DTD SVG 1.1//EN" "http://www.w3.org/Graphics/SVG/1.1/DTD/svg11.dtd">
<svg width="375pt" height="371pt" viewBox="0 0 375 371" version="1.1" xmlns="http://www.w3.org/2000/svg">
<g id="#fe8219ff">
<path fill="#fe8219" opacity="1.00" d=" M 174.50 1.80 C 210.11 -0.99 246.50 6.88 277.69 24.31 C 306.06 40.06 330.10 63.47 346.58 91.42 C 363.13 119.26 372.07 151.60 372.01 184.00 C 372.39 218.50 362.54 253.00 344.19 282.20 C 329.81 305.16 310.28 324.88 287.47 339.50 C 259.97 357.17 227.65 367.26 194.97 368.26 C 161.15 369.57 127.01 361.22 97.63 344.41 C 68.38 327.74 43.85 302.88 27.62 273.37 C 12.43 245.88 4.50 214.41 4.99 183.00 C 5.12 146.57 16.67 110.32 37.47 80.43 C 59.83 47.97 92.93 22.97 130.41 10.66 C 144.64 5.83 159.52 2.93 174.50 1.80 M 140.26 26.19 C 127.64 29.48 115.83 35.22 104.46 41.49 C 97.85 45.80 90.86 49.63 84.92 54.88 C 55.58 77.47 34.85 110.51 25.94 146.36 C 23.22 154.24 23.26 162.63 21.98 170.79 C 21.14 178.17 21.51 185.62 21.48 193.04 C 21.40 199.41 22.79 205.67 23.29 212.01 C 23.51 215.27 23.94 218.53 24.71 221.72 L 24.97 221.46 C 28.09 234.09 32.32 246.46 37.80 258.27 C 44.67 271.76 52.76 284.77 63.07 295.93 C 76.41 311.92 93.60 324.20 111.69 334.28 C 124.64 340.33 137.93 346.02 152.06 348.66 C 175.30 353.89 199.69 354.20 222.99 349.17 C 235.84 346.93 248.19 342.47 259.98 336.97 C 267.73 333.83 274.61 328.99 281.79 324.77 C 307.28 307.83 327.73 283.66 340.90 256.07 C 345.00 245.72 349.64 235.47 351.80 224.49 C 353.21 217.04 354.88 209.60 355.48 202.03 C 355.94 192.70 355.89 183.35 355.67 174.02 C 355.61 163.75 352.99 153.75 351.12 143.72 C 346.26 125.91 338.48 108.92 328.44 93.43 C 319.03 79.53 307.42 67.18 294.55 56.44 C 287.49 50.23 279.26 45.63 271.52 40.35 C 260.62 34.82 249.58 29.26 237.66 26.27 C 206.25 16.07 171.69 16.09 140.26 26.19 Z" />
</g>
<g id="#443222ff">
<path fill="#443222" opacity="1.00" d=" M 140.26 26.19 C 171.69 16.09 206.25 16.07 237.66 26.27 C 249.58 29.26 260.62 34.82 271.52 40.35 C 267.00 43.43 262.52 46.82 259.43 51.40 C 258.55 52.58 258.36 54.08 258.46 55.51 C 258.81 61.40 259.85 67.44 263.10 72.49 C 263.46 70.44 263.81 68.39 264.16 66.33 C 265.54 71.54 266.74 76.86 269.31 81.64 C 270.27 83.86 271.99 86.26 271.08 88.78 C 270.20 90.64 268.82 92.20 267.57 93.81 C 268.89 95.21 270.21 96.60 271.53 98.00 C 271.63 96.53 271.73 95.05 271.83 93.58 C 273.85 97.42 275.54 101.41 277.24 105.39 C 270.86 98.86 263.53 92.70 254.44 90.52 C 244.91 88.13 234.75 88.88 225.43 91.87 C 219.83 81.82 210.34 73.55 199.08 70.67 C 189.22 68.97 178.23 68.92 169.43 74.31 C 164.07 77.41 159.24 81.54 155.66 86.62 C 154.42 88.30 153.31 90.10 151.81 91.58 C 146.56 90.58 141.41 88.86 136.02 88.79 C 125.13 88.79 113.92 92.29 105.99 99.97 C 92.19 111.77 87.60 132.63 94.69 149.28 C 89.27 152.44 83.99 156.15 80.25 161.28 C 74.85 168.65 71.77 177.82 72.29 186.99 C 72.18 201.84 81.66 215.66 94.76 222.22 C 91.78 230.05 90.67 238.53 91.94 246.84 C 90.02 244.18 86.82 244.79 84.04 245.30 C 81.25 242.97 78.49 240.61 75.64 238.37 C 73.57 239.07 71.14 241.74 68.98 240.19 C 65.42 235.53 64.20 228.36 58.05 226.19 C 52.53 224.38 46.92 222.54 42.25 218.95 C 40.12 213.21 33.38 210.37 32.94 203.85 C 30.01 203.75 25.48 202.55 24.43 206.40 C 23.42 211.38 24.74 216.45 24.97 221.46 L 24.71 221.72 C 23.94 218.53 23.51 215.27 23.29 212.01 C 22.79 205.67 21.40 199.41 21.48 193.04 C 21.51 185.62 21.14 178.17 21.98 170.79 C 23.26 162.63 23.22 154.24 25.94 146.36 C 34.85 110.51 55.58 77.47 84.92 54.88 C 90.86 49.63 97.85 45.80 104.46 41.49 C 115.83 35.22 127.64 29.48 140.26 26.19 Z" />
<path fill="#443222" opacity="1.00" d=" M 167.59 82.65 C 174.95 77.58 184.00 74.46 193.00 75.73 C 204.15 77.45 215.15 84.06 219.79 94.65 C 212.26 100.58 205.38 108.33 195.61 110.39 C 188.50 112.32 180.87 110.88 174.42 107.57 C 168.18 104.03 163.33 98.62 157.47 94.55 C 160.38 90.22 163.32 85.77 167.59 82.65 Z" />
<path fill="#443222" opacity="1.00" d=" M 121.26 103.44 C 129.82 99.94 139.62 99.95 148.31 103.07 C 148.64 107.09 147.66 111.05 147.47 115.05 C 145.92 127.30 137.13 138.05 125.83 142.79 C 119.45 145.32 112.50 145.03 105.78 145.50 C 102.50 137.13 102.16 127.32 106.07 119.11 C 109.08 112.30 114.88 107.07 121.26 103.44 Z" />
<path fill="#443222" opacity="1.00" d=" M 229.35 102.71 C 234.83 101.69 240.35 99.97 245.98 100.89 C 249.98 101.61 254.25 101.93 257.75 104.19 C 263.70 107.72 268.78 112.91 271.64 119.25 C 275.62 127.44 275.61 137.43 271.62 145.62 C 265.85 144.93 259.90 145.44 254.30 143.66 C 247.87 142.00 242.62 137.58 237.98 133.02 C 234.69 129.03 232.40 124.23 230.87 119.30 C 229.18 113.93 229.57 108.26 229.35 102.71 Z" />
<path fill="#443222" opacity="1.00" d=" M 214.92 113.95 C 217.90 111.75 220.63 109.24 223.42 106.82 C 224.25 112.70 223.98 118.87 226.31 124.45 C 230.38 135.19 239.01 144.28 249.91 148.18 C 255.75 150.77 262.18 150.71 268.39 151.52 C 262.69 157.13 257.25 163.43 255.00 171.28 C 251.44 180.80 251.51 191.56 255.23 201.03 C 257.43 208.69 263.27 214.38 268.30 220.27 C 256.52 219.93 244.75 224.10 236.14 232.17 C 230.35 238.16 225.74 245.63 224.60 254.00 C 224.27 257.52 224.22 261.06 223.67 264.56 C 217.68 260.83 212.99 255.19 206.27 252.61 C 197.05 248.94 186.65 248.56 177.00 250.79 C 167.65 252.35 161.06 259.58 153.78 264.93 C 153.86 254.54 151.63 243.42 144.43 235.52 C 136.03 225.20 122.63 219.89 109.47 220.21 C 112.37 216.52 115.91 213.33 118.42 209.34 C 122.42 202.57 125.18 194.94 125.41 187.03 C 125.72 177.87 122.64 168.86 117.82 161.16 C 115.39 157.60 112.16 154.70 109.23 151.58 C 115.81 150.89 122.63 150.69 128.74 147.82 C 140.32 143.21 149.56 132.81 152.43 120.64 C 153.94 116.21 153.30 111.46 154.46 106.96 C 160.88 113.10 168.14 118.90 176.95 121.06 C 189.79 124.73 204.32 122.13 214.92 113.95 Z" />
<path fill="#443222" opacity="1.00" d=" M 82.94 168.02 C 86.73 162.66 91.09 157.17 97.47 154.83 C 100.26 159.18 103.86 162.87 107.26 166.72 C 112.36 174.24 115.10 183.80 112.81 192.80 C 111.27 198.52 108.64 204.14 104.32 208.30 C 101.66 210.89 99.46 213.89 97.40 216.97 C 87.93 212.24 80.80 203.09 78.46 192.79 C 76.33 184.38 78.49 175.32 82.94 168.02 Z" />
<path fill="#443222" opacity="1.00" d=" M 105.55 226.38 C 110.90 226.58 116.32 226.35 121.54 227.75 C 131.63 229.86 140.24 237.19 144.56 246.47 C 148.06 253.21 148.21 260.96 148.60 268.37 C 141.80 271.37 134.00 272.45 126.81 270.16 C 118.50 267.63 110.60 262.11 106.79 254.11 C 102.06 245.71 102.31 235.25 105.55 226.38 Z" />
</g>
<g id="#2f1b08ff">
<path fill="#2f1b08" opacity="1.00" d=" M 259.43 51.40 C 262.52 46.82 267.00 43.43 271.52 40.35 C 279.26 45.63 287.49 50.23 294.55 56.44 C 307.42 67.18 319.03 79.53 328.44 93.43 C 338.48 108.92 346.26 125.91 351.12 143.72 C 352.99 153.75 355.61 163.75 355.67 174.02 C 355.89 183.35 355.94 192.70 355.48 202.03 C 354.88 209.60 353.21 217.04 351.80 224.49 C 349.64 235.47 345.00 245.72 340.90 256.07 C 327.73 283.66 307.28 307.83 281.79 324.77 C 274.61 328.99 267.73 333.83 259.98 336.97 C 248.19 342.47 235.84 346.93 222.99 349.17 C 199.69 354.20 175.30 353.89 152.06 348.66 C 137.93 346.02 124.64 340.33 111.69 334.28 C 93.60 324.20 76.41 311.92 63.07 295.93 C 52.76 284.77 44.67 271.76 37.80 258.27 C 32.32 246.46 28.09 234.09 24.97 221.46 C 24.74 216.45 23.42 211.38 24.43 206.40 C 25.48 202.55 30.01 203.75 32.94 203.85 C 33.38 210.37 40.12 213.21 42.25 218.95 C 46.92 222.54 52.53 224.38 58.05 226.19 C 64.20 228.36 65.42 235.53 68.98 240.19 C 71.14 241.74 73.57 239.07 75.64 238.37 C 78.49 240.61 81.25 242.97 84.04 245.30 C 86.82 244.79 90.02 244.18 91.94 246.84 C 94.33 257.95 100.42 268.58 110.07 274.90 C 121.91 283.94 138.29 284.79 152.00 279.92 C 156.16 285.97 160.67 292.19 167.26 295.79 C 175.15 300.70 184.71 303.21 193.98 301.82 C 200.89 300.93 207.31 297.89 213.06 294.06 C 218.27 290.44 222.13 285.28 225.52 280.00 C 234.08 282.94 243.36 283.50 252.26 281.94 C 271.20 277.45 286.08 259.54 286.45 239.98 C 286.78 233.86 284.79 228.00 283.07 222.23 C 298.30 214.67 307.69 197.07 305.21 180.21 C 303.84 172.12 300.33 164.30 294.82 158.19 C 291.40 154.63 287.28 151.85 283.11 149.27 C 286.21 140.74 287.80 131.35 285.23 122.46 C 283.91 116.21 280.23 110.92 277.24 105.39 C 275.54 101.41 273.85 97.42 271.83 93.58 C 271.73 95.05 271.63 96.53 271.53 98.00 C 270.21 96.60 268.89 95.21 267.57 93.81 C 268.82 92.20 270.20 90.64 271.08 88.78 C 271.99 86.26 270.27 83.86 269.31 81.64 C 266.74 76.86 265.54 71.54 264.16 66.33 C 263.81 68.39 263.46 70.44 263.10 72.49 C 259.85 67.44 258.81 61.40 258.46 55.51 C 258.36 54.08 258.55 52.58 259.43 51.40 Z" />
<path fill="#2f1b08" opacity="1.00" d=" M 279.46 155.40 C 281.69 154.63 283.68 156.49 285.40 157.63 C 291.27 162.55 296.24 168.85 298.33 176.32 C 303.34 191.91 294.79 210.01 280.15 216.89 C 277.97 214.36 276.59 211.19 274.02 208.98 C 262.25 198.49 260.98 178.86 270.52 166.51 C 273.95 163.18 276.91 159.44 279.46 155.40 Z" />
<path fill="#2f1b08" opacity="1.00" d=" M 240.91 235.91 C 248.83 227.82 260.78 226.17 271.58 226.47 C 277.55 237.60 274.14 251.84 266.03 260.99 C 259.88 266.96 251.71 271.22 243.01 271.37 C 238.26 271.59 233.65 270.15 229.30 268.40 C 228.91 256.69 231.63 243.86 240.91 235.91 Z" />
<path fill="#2f1b08" opacity="1.00" d=" M 179.98 262.03 C 187.37 259.75 195.40 260.69 202.45 263.64 C 209.12 266.85 213.79 272.90 220.05 276.76 C 216.45 284.16 209.97 290.04 202.52 293.45 C 193.82 296.56 184.07 296.54 175.33 293.58 C 167.75 290.25 161.33 284.37 157.60 276.95 C 165.04 271.96 170.75 263.86 179.98 262.03 Z" />
</g>
<g id="#fee4d1ff">
<path fill="#fee4d1" opacity="1.00" d=" M 169.43 74.31 C 178.23 68.92 189.22 68.97 199.08 70.67 C 210.34 73.55 219.83 81.82 225.43 91.87 C 234.75 88.88 244.91 88.13 254.44 90.52 C 263.53 92.70 270.86 98.86 277.24 105.39 C 280.23 110.92 283.91 116.21 285.23 122.46 C 287.80 131.35 286.21 140.74 283.11 149.27 C 287.28 151.85 291.40 154.63 294.82 158.19 C 300.33 164.30 303.84 172.12 305.21 180.21 C 307.69 197.07 298.30 214.67 283.07 222.23 C 284.79 228.00 286.78 233.86 286.45 239.98 C 286.08 259.54 271.20 277.45 252.26 281.94 C 243.36 283.50 234.08 282.94 225.52 280.00 C 222.13 285.28 218.27 290.44 213.06 294.06 C 207.31 297.89 200.89 300.93 193.98 301.82 C 184.71 303.21 175.15 300.70 167.26 295.79 C 160.67 292.19 156.16 285.97 152.00 279.92 C 138.29 284.79 121.91 283.94 110.07 274.90 C 100.42 268.58 94.33 257.95 91.94 246.84 C 90.67 238.53 91.78 230.05 94.76 222.22 C 81.66 215.66 72.18 201.84 72.29 186.99 C 71.77 177.82 74.85 168.65 80.25 161.28 C 83.99 156.15 89.27 152.44 94.69 149.28 C 87.60 132.63 92.19 111.77 105.99 99.97 C 113.92 92.29 125.13 88.79 136.02 88.79 C 141.41 88.86 146.56 90.58 151.81 91.58 C 153.31 90.10 154.42 88.30 155.66 86.62 C 159.24 81.54 164.07 77.41 169.43 74.31 M 167.59 82.65 C 163.32 85.77 160.38 90.22 157.47 94.55 C 163.33 98.62 168.18 104.03 174.42 107.57 C 180.87 110.88 188.50 112.32 195.61 110.39 C 205.38 108.33 212.26 100.58 219.79 94.65 C 215.15 84.06 204.15 77.45 193.00 75.73 C 184.00 74.46 174.95 77.58 167.59 82.65 M 121.26 103.44 C 114.88 107.07 109.08 112.30 106.07 119.11 C 102.16 127.32 102.50 137.13 105.78 145.50 C 112.50 145.03 119.45 145.32 125.83 142.79 C 137.13 138.05 145.92 127.30 147.47 115.05 C 147.66 111.05 148.64 107.09 148.31 103.07 C 139.62 99.95 129.82 99.94 121.26 103.44 M 229.35 102.71 C 229.57 108.26 229.18 113.93 230.87 119.30 C 232.40 124.23 234.69 129.03 237.98 133.02 C 242.62 137.58 247.87 142.00 254.30 143.66 C 259.90 145.44 265.85 144.93 271.62 145.62 C 275.61 137.43 275.62 127.44 271.64 119.25 C 268.78 112.91 263.70 107.72 257.75 104.19 C 254.25 101.93 249.98 101.61 245.98 100.89 C 240.35 99.97 234.83 101.69 229.35 102.71 M 214.92 113.95 C 204.32 122.13 189.79 124.73 176.95 121.06 C 168.14 118.90 160.88 113.10 154.46 106.96 C 153.30 111.46 153.94 116.21 152.43 120.64 C 149.56 132.81 140.32 143.21 128.74 147.82 C 122.63 150.69 115.81 150.89 109.23 151.58 C 112.16 154.70 115.39 157.60 117.82 161.16 C 122.64 168.86 125.72 177.87 125.41 187.03 C 125.18 194.94 122.42 202.57 118.42 209.34 C 115.91 213.33 112.37 216.52 109.47 220.21 C 122.63 219.89 136.03 225.20 144.43 235.52 C 151.63 243.42 153.86 254.54 153.78 264.93 C 161.06 259.58 167.65 252.35 177.00 250.79 C 186.65 248.56 197.05 248.94 206.27 252.61 C 212.99 255.19 217.68 260.83 223.67 264.56 C 224.22 261.06 224.27 257.52 224.60 254.00 C 225.74 245.63 230.35 238.16 236.14 232.17 C 244.75 224.10 256.52 219.93 268.30 220.27 C 263.27 214.38 257.43 208.69 255.23 201.03 C 251.51 191.56 251.44 180.80 255.00 171.28 C 257.25 163.43 262.69 157.13 268.39 151.52 C 262.18 150.71 255.75 150.77 249.91 148.18 C 239.01 144.28 230.38 135.19 226.31 124.45 C 223.98 118.87 224.25 112.70 223.42 106.82 C 220.63 109.24 217.90 111.75 214.92 113.95 M 82.94 168.02 C 78.49 175.32 76.33 184.38 78.46 192.79 C 80.80 203.09 87.93 212.24 97.40 216.97 C 99.46 213.89 101.66 210.89 104.32 208.30 C 108.64 204.14 111.27 198.52 112.81 192.80 C 115.10 183.80 112.36 174.24 107.26 166.72 C 103.86 162.87 100.26 159.18 97.47 154.83 C 91.09 157.17 86.73 162.66 82.94 168.02 M 279.46 155.40 C 276.91 159.44 273.95 163.18 270.52 166.51 C 260.98 178.86 262.25 198.49 274.02 208.98 C 276.59 211.19 277.97 214.36 280.15 216.89 C 294.79 210.01 303.34 191.91 298.33 176.32 C 296.24 168.85 291.27 162.55 285.40 157.63 C 283.68 156.49 281.69 154.63 279.46 155.40 M 105.55 226.38 C 102.31 235.25 102.06 245.71 106.79 254.11 C 110.60 262.11 118.50 267.63 126.81 270.16 C 134.00 272.45 141.80 271.37 148.60 268.37 C 148.21 260.96 148.06 253.21 144.56 246.47 C 140.24 237.19 131.63 229.86 121.54 227.75 C 116.32 226.35 110.90 226.58 105.55 226.38 M 240.91 235.91 C 231.63 243.86 228.91 256.69 229.30 268.40 C 233.65 270.15 238.26 271.59 243.01 271.37 C 251.71 271.22 259.88 266.96 266.03 260.99 C 274.14 251.84 277.55 237.60 271.58 226.47 C 260.78 226.17 248.83 227.82 240.91 235.91 M 179.98 262.03 C 170.75 263.86 165.04 271.96 157.60 276.95 C 161.33 284.37 167.75 290.25 175.33 293.58 C 184.07 296.54 193.82 296.56 202.52 293.45 C 209.97 290.04 216.45 284.16 220.05 276.76 C 213.79 272.90 209.12 266.85 202.45 263.64 C 195.40 260.69 187.37 259.75 179.98 262.03 Z" />
</g>
</svg>
